<mxfile host="app.diagrams.net" agent="Mozilla/5.0 (Windows NT 10.0; Win64; x64) AppleWebKit/537.36 (KHTML, like Gecko) Chrome/135.0.0.0 Safari/537.36" version="26.2.14">
  <diagram id="6a731a19-8d31-9384-78a2-239565b7b9f0" name="Page-1">
    <mxGraphModel dx="239" dy="748" grid="1" gridSize="10" guides="1" tooltips="1" connect="1" arrows="1" fold="1" page="1" pageScale="1" pageWidth="1169" pageHeight="827" background="none" math="0" shadow="0">
      <root>
        <mxCell id="0" />
        <mxCell id="1" parent="0" />
        <mxCell id="934" value="" style="rounded=0;whiteSpace=wrap;html=1;fillColor=#444;strokeColor=#444;strokeWidth=2;" parent="1" vertex="1">
          <mxGeometry x="1259" y="2234" width="1010" height="330" as="geometry" />
        </mxCell>
        <mxCell id="935" value="" style="rounded=0;whiteSpace=wrap;html=1;fillColor=#ffffff;strokeColor=#FFFFFF;fontColor=#000000;strokeWidth=2;" parent="1" vertex="1">
          <mxGeometry x="1259" y="54" width="1010" height="470" as="geometry" />
        </mxCell>
        <mxCell id="936" value="" style="rounded=0;whiteSpace=wrap;html=1;strokeColor=#eee;fillColor=#EEE;strokeWidth=2;" parent="1" vertex="1">
          <mxGeometry x="1259" y="524" width="1010" height="590" as="geometry" />
        </mxCell>
        <mxCell id="937" value="" style="rounded=0;whiteSpace=wrap;html=1;strokeColor=#F08705;fillColor=#F08705;strokeWidth=2;" parent="1" vertex="1">
          <mxGeometry x="1259" y="1115" width="1010" height="442" as="geometry" />
        </mxCell>
        <mxCell id="938" value="" style="rounded=0;whiteSpace=wrap;html=1;fillColor=#333;strokeColor=#333;strokeWidth=2;" parent="1" vertex="1">
          <mxGeometry x="1259" y="1554" width="1010" height="680" as="geometry" />
        </mxCell>
        <mxCell id="939" value="" style="rounded=0;whiteSpace=wrap;html=1;fillColor=#eee;strokeColor=#eee;strokeWidth=2;" parent="1" vertex="1">
          <mxGeometry x="1259" y="2564" width="1010" height="750" as="geometry" />
        </mxCell>
        <mxCell id="940" value="" style="shape=image;verticalLabelPosition=bottom;labelBackgroundColor=#ffffff;verticalAlign=top;aspect=fixed;imageAspect=0;image=data:image/svg+xml,PHN2ZyB4bWxucz0iaHR0cDovL3d3dy53My5vcmcvMjAwMC9zdmciIHZpZXdCb3g9IjAgMCAyMDAgMjAwIj48ZGVmcz48c3R5bGU+LmNscy0xe2ZpbGw6IzQ0NDt9LmNscy0ye2ZpbGw6IzkwOTA5MDt9LmNscy0ze2ZpbGw6I2YwODcwNTt9LmNscy00e2ZpbGw6I2NjYzt9PC9zdHlsZT48L2RlZnM+PHRpdGxlPlplaWNoZW5mbMODwqRjaGUgMyBLb3BpZSAxMDwvdGl0bGU+PGcgaWQ9IkViZW5lXzIiIGRhdGEtbmFtZT0iRWJlbmUgMiI+PHJlY3QgY2xhc3M9ImNscy0xIiB4PSI4OS40NjUiIHk9Ijk5Ljc3MyIgd2lkdGg9IjMuNiIgaGVpZ2h0PSIzOS4wMiIvPjxyZWN0IGNsYXNzPSJjbHMtMSIgeD0iOTUuNTcxIiB5PSI5Mi40MjEiIHdpZHRoPSIzLjYiIGhlaWdodD0iNDYuMzczIi8+PHJlY3QgY2xhc3M9ImNscy0xIiB4PSIxMDEuNjc2IiB5PSI4My45NyIgd2lkdGg9IjMuNiIgaGVpZ2h0PSI1NC44MjMiLz48cmVjdCBjbGFzcz0iY2xzLTEiIHg9IjgzLjM2IiB5PSI5NC4zMTkiIHdpZHRoPSIzLjYiIGhlaWdodD0iNDQuNDc0Ii8+PHJlY3QgY2xhc3M9ImNscy0xIiB4PSIxMDcuNzgyIiB5PSI4OS45MzkiIHdpZHRoPSIzLjYiIGhlaWdodD0iNDguODU0Ii8+PHJlY3QgY2xhc3M9ImNscy0xIiB4PSIxMTMuODg3IiB5PSI5Mi40MjEiIHdpZHRoPSIzLjYiIGhlaWdodD0iNDYuMzczIi8+PHJlY3QgY2xhc3M9ImNscy0xIiB4PSIxMTkuOTkzIiB5PSI4Ny41MzgiIHdpZHRoPSIzLjYiIGhlaWdodD0iNTEuMjU1Ii8+PHJlY3QgY2xhc3M9ImNscy0xIiB4PSIxMjYuMDk4IiB5PSI3OC4wMjIiIHdpZHRoPSIzLjYiIGhlaWdodD0iNjAuNzcxIi8+PHJlY3QgY2xhc3M9ImNscy0xIiB4PSIxMzIuMjA0IiB5PSI4NS40NDQiIHdpZHRoPSIzLjYiIGhlaWdodD0iNTMuMzUiLz48cmVjdCBjbGFzcz0iY2xzLTEiIHg9IjEzOC4zMDkiIHk9Ijg3LjUzOCIgd2lkdGg9IjMuNiIgaGVpZ2h0PSI1MS4yNTUiLz48cmVjdCBjbGFzcz0iY2xzLTEiIHg9IjE0NC40MTUiIHk9IjgxLjc1NCIgd2lkdGg9IjMuNiIgaGVpZ2h0PSI1Ny4wMzkiLz48cmVjdCBjbGFzcz0iY2xzLTEiIHg9IjE1MC41MiIgeT0iNzIuNDYiIHdpZHRoPSIzLjYiIGhlaWdodD0iNjYuMzMzIi8+PHBhdGggY2xhc3M9ImNscy0yIiBkPSJNODEuNTYsMTM4Ljc5M2wxLjQtMTEuMzQ3LDEwLjQ0OCwxLjA0OWExLDEsMCwwLDAsMS4xLS45MTZMOTUuNjgsMTEyLjc3aDUuNjM0YTEsMSwwLDAsMCwuOTQ2LTEuMzIzTDk2LjcyOSw5NS4yNjNWOTEuM2gtLjA0YTI2LjAyMSwyNi4wMjEsMCwxLDAtNTAuNjEsOS42MWw1LjQzOSwxNy44NjMtMy4yNDYsMjAuMDI1WiIvPjxwYXRoIGNsYXNzPSJjbHMtMSIgZD0iTTY5Ljk2MSwxMDcuMDYyQTE2LjE2NCwxNi4xNjQsMCwxLDEsODYuMTIsOTAuOSwxNi4xODcsMTYuMTg3LDAsMCwxLDY5Ljk2MSwxMDcuMDYyWiIvPjxyZWN0IGNsYXNzPSJjbHMtMyIgeD0iNjguNDMyIiB5PSI4Mi43MjkiIHdpZHRoPSIzLjA0NyIgaGVpZ2h0PSIxNi4zMzYiLz48cmVjdCBjbGFzcz0iY2xzLTMiIHg9IjYxLjc5MyIgeT0iODkuMzc0IiB3aWR0aD0iMTYuMzMxIiBoZWlnaHQ9IjMuMDQ3Ii8+PHBvbHlnb24gY2xhc3M9ImNscy00IiBwb2ludHM9IjExMy4wMzYgODIuNDE2IDExMi41OTcgODIuNDE2IDExMi4yODMgODIuMTA1IDEwNi4yMDIgNzYuMDIxIDEwNy42OTkgNzQuNTI0IDExMy43OCA4MC42MSAxMTMuMDM0IDgxLjM1NiAxMTMuMDM2IDgyLjQxNiIvPjxwb2x5Z29uIGNsYXNzPSJjbHMtNCIgcG9pbnRzPSIxMzYuNTUxIDc3LjcxMyAxMzYuMTEzIDc3LjcxMyAxMzUuNzk4IDc3LjQwMyAxMjkuNzE3IDcxLjMxOCAxMzEuMjE1IDY5LjgyMiAxMzcuMjk1IDc1LjkwNyAxMzYuNTQ5IDc2LjY1MyAxMzYuNTUxIDc3LjcxMyIvPjxwb2x5Z29uIGNsYXNzPSJjbHMtNCIgcG9pbnRzPSIxNDAuMzE1IDc3LjcxMyAxMzkuODc2IDc3LjcxMyAxMzkuODc0IDc2LjY1MyAxMzkuMTI4IDc1LjkwNyAxNDkuOTExIDY1LjExOCAxNTEuNDA5IDY2LjYxNSAxNDAuMzE1IDc3LjcxMyIvPjxwb2x5Z29uIGNsYXNzPSJjbHMtNCIgcG9pbnRzPSIxMTYuOCA4Mi40MTYgMTE2LjM2MSA4Mi40MTYgMTE2LjM1OSA4MS4zNTYgMTE1LjYxMyA4MC42MDkgMTI2LjM5NiA2OS44MjEgMTI3Ljg5MyA3MS4zMTggMTE2LjggODIuNDE2Ii8+PHBvbHlnb24gY2xhc3M9ImNscy00IiBwb2ludHM9IjkzLjI4NiA4Ny4xMTkgOTIuODQ3IDg3LjExOSA5Mi44NDUgODYuMDU5IDkyLjA5OSA4NS4zMTMgMTAyLjg4MiA3NC41MjUgMTA0LjM3OSA3Ni4wMjEgOTMuMjg2IDg3LjExOSIvPjxwYXRoIGNsYXNzPSJjbHMtNCIgZD0iTTkxLjE4Miw5MC43MjFhMywzLDAsMSwxLDMtMywzLDMsMCwwLDEtMywzIi8+PHBhdGggY2xhc3M9ImNscy00IiBkPSJNMTA1LjI5MSw3Ni42MTJhMywzLDAsMSwxLDMtMywzLDMsMCwwLDEtMywzIi8+PHBhdGggY2xhc3M9ImNscy00IiBkPSJNMTE0LjcsODYuMDE4YTMsMywwLDEsMSwzLTMsMywzLDAsMCwxLTMsMyIvPjxwYXRoIGNsYXNzPSJjbHMtNCIgZD0iTTEyOC44MDYsNzEuOTFhMywzLDAsMSwxLDMtMywzLDMsMCwwLDEtMywzIi8+PHBhdGggY2xhc3M9ImNscy00IiBkPSJNMTM4LjIxMSw4MS4zMTVhMywzLDAsMSwxLDMtMywzLDMsMCwwLDEtMywzIi8+PHBhdGggY2xhc3M9ImNscy0zIiBkPSJNMTUyLjMyLDY3LjIwN2EzLDMsMCwxLDEsMy0zLDMsMywwLDAsMS0zLDMiLz48L2c+PC9zdmc+;" parent="1" vertex="1">
          <mxGeometry x="1578" y="1711" width="274" height="274" as="geometry" />
        </mxCell>
        <mxCell id="941" value="" style="shape=image;verticalLabelPosition=bottom;labelBackgroundColor=#ffffff;verticalAlign=top;aspect=fixed;imageAspect=0;image=data:image/svg+xml,PHN2ZyB4bWxucz0iaHR0cDovL3d3dy53My5vcmcvMjAwMC9zdmciIHZpZXdCb3g9IjAgMCAyMDAgMjAwIj48ZGVmcz48c3R5bGU+LmNscy0xe2ZpbGw6IzQ0NDt9LmNscy0ye2ZpbGw6IzkwOTA5MDt9LmNscy0ze2ZpbGw6I2NjYzt9LmNscy00e2ZpbGw6I2YwODcwNTt9PC9zdHlsZT48L2RlZnM+PHRpdGxlPlplaWNoZW5mbMODwqRjaGUgMyBLb3BpZSA5PC90aXRsZT48ZyBpZD0iRWJlbmVfMiIgZGF0YS1uYW1lPSJFYmVuZSAyIj48cGF0aCBjbGFzcz0iY2xzLTEiIGQ9Ik0xMjEuNjcxLDEyMi4zNDZINTQuOTM0YTEsMSwwLDAsMS0xLTFWNzAuOTI0YTEsMSwwLDAsMSwxLTFoNjYuNzM3YTEsMSwwLDAsMSwxLDF2NTAuNDIyQTEsMSwwLDAsMSwxMjEuNjcxLDEyMi4zNDZaIi8+PHBhdGggY2xhc3M9ImNscy0yIiBkPSJNMTEzLjk0LDEzMC4wNzZINDcuMmExLDEsMCwwLDEtMS0xVjc4LjY1NGExLDEsMCwwLDEsMS0xSDExMy45NGExLDEsMCwwLDEsMSwxdjUwLjQyMkExLDEsMCwwLDEsMTEzLjk0LDEzMC4wNzZaIi8+PHJlY3QgY2xhc3M9ImNscy0xIiB4PSI0OC44NiIgeT0iODAuMjk5IiB3aWR0aD0iNjMuNDIyIiBoZWlnaHQ9IjQ3LjEzMiIvPjxwYXRoIGNsYXNzPSJjbHMtMiIgZD0iTTY0Ljk3Nyw5OS41MjRhNi41NTYsNi41NTYsMCwxLDEsNi41ODctNi41NTUsNi41NzksNi41NzksMCwwLDEtNi41ODcsNi41NTUiLz48cGF0aCBjbGFzcz0iY2xzLTIiIGQ9Ik05OC4zMTYsOTIuMjEzLDc3LjcwNywxMTIuNzI1bC03LjAzNS03TDQ4Ljg2LDEyNy40MzFoNjMuNDIyVjEwNi4xMDlaIi8+PHJlY3QgY2xhc3M9ImNscy0zIiB4PSIxMTkuODczIiB5PSI5OS4yNjUiIHdpZHRoPSI2LjU4IiBoZWlnaHQ9IjIuOTE5Ii8+PHJlY3QgY2xhc3M9ImNscy0zIiB4PSIxMjYuMzkiIHk9Ijk3LjExNiIgd2lkdGg9IjI3LjQwNyIgaGVpZ2h0PSI3LjIxMSIvPjxwYXRoIGNsYXNzPSJjbHMtMyIgZD0iTTg1LjkwNiwxMDAuMTE0QTE3LjM2MSwxNy4zNjEsMCwxLDAsMTAzLjI2OSw4Mi43NWExNy4zNjEsMTcuMzYxLDAsMCwwLTE3LjM2MywxNy4zNjMiLz48cGF0aCBjbGFzcz0iY2xzLTEiIGQ9Ik04OS41NjUsMTAwLjExNGExMy43LDEzLjcsMCwxLDAsMTMuNy0xMy43MDYsMTMuNywxMy43LDAsMCwwLTEzLjcsMTMuNzA2Ii8+PHBhdGggY2xhc3M9ImNscy00IiBkPSJNMTAzLjI3LDEwNS4zN2ExMS4zNSwxMS4zNSwwLDAsMS05LjQ3NS01LjA4OGgwYS4zMDcuMzA3LDAsMCwxLDAtLjM0aDBhMTEuMzY1LDExLjM2NSwwLDAsMSwxOC45NDksMGgwYS4zMDcuMzA3LDAsMCwxLDAsLjM0aDBBMTEuMzUsMTEuMzUsMCwwLDEsMTAzLjI3LDEwNS4zN1oiLz48cGF0aCBjbGFzcz0iY2xzLTEiIGQ9Ik0xMDMuMjcsOTYuMDYzYTQuMDQ5LDQuMDQ5LDAsMSwwLDQuMDQ5LDQuMDQ5QTQuMDUzLDQuMDUzLDAsMCwwLDEwMy4yNyw5Ni4wNjNaIi8+PHBhdGggY2xhc3M9ImNscy00IiBkPSJNMTAzLjI3LDEwMS42N2ExLjU1OCwxLjU1OCwwLDEsMSwxLjU1OC0xLjU1OEExLjU2LDEuNTYsMCwwLDEsMTAzLjI3LDEwMS42N1oiLz48L2c+PC9zdmc+;" parent="1" vertex="1">
          <mxGeometry x="1260" y="1702" width="280" height="280" as="geometry" />
        </mxCell>
        <mxCell id="942" value="" style="shape=image;verticalLabelPosition=bottom;labelBackgroundColor=#ffffff;verticalAlign=top;aspect=fixed;imageAspect=0;image=data:image/svg+xml,PHN2ZyB4bWxucz0iaHR0cDovL3d3dy53My5vcmcvMjAwMC9zdmciIHZpZXdCb3g9IjAgMCAyMDAgMjAwIj48ZGVmcz48c3R5bGU+LmNscy0xe2ZpbGw6IzMzMzt9LmNscy0ye2ZpbGw6IzQ0NDt9LmNscy0ze2ZpbGw6Izc3Nzt9LmNscy00e2ZpbGw6I2FhYTt9LmNscy01e2ZpbGw6I2NjYzt9LmNscy02e2ZpbGw6I2YwODcwNTt9LmNscy03e2ZpbGw6IzkwOTA5MDt9PC9zdHlsZT48L2RlZnM+PHRpdGxlPlplaWNoZW5mbMODwqRjaGUgMyBLb3BpZSAxMzwvdGl0bGU+PGcgaWQ9IkViZW5lXzIiIGRhdGEtbmFtZT0iRWJlbmUgMiI+PHJlY3QgY2xhc3M9ImNscy0xIiB4PSIyNC4xNzIiIHk9IjMzLjE1MyIgd2lkdGg9IjE3MC41NzQiIGhlaWdodD0iMTE3LjAyNSIgcng9IjEuNzkiIHJ5PSIxLjc5Ii8+PHJlY3QgY2xhc3M9ImNscy0yIiB4PSIxMy4wNjYiIHk9IjUzLjAzMiIgd2lkdGg9IjEwNy4zNSIgaGVpZ2h0PSI3Mi40MDEiLz48cGF0aCBjbGFzcz0iY2xzLTMiIGQ9Ik0xMTguNDI4LDU1LjAydjY4LjQyNkgxNS4wNTNWNTUuMDJIMTE4LjQyOG0yLjgwNy0zLjk3NUgxMi4yNDdhMS4xNjgsMS4xNjgsMCwwLDAtMS4xNjgsMS4xNjh2NzQuMDM5YTEuMTY4LDEuMTY4LDAsMCwwLDEuMTY4LDEuMTY4SDEyMS4yMzVhMS4xNjgsMS4xNjgsMCwwLDAsMS4xNjgtMS4xNjhWNTIuMjEzYTEuMTY4LDEuMTY4LDAsMCwwLTEuMTY4LTEuMTY4WiIvPjxwYXRoIGNsYXNzPSJjbHMtMyIgZD0iTTEyOC4yMjYsMTM3LjEzNUg1LjI1NFYxMjQuMDU0YTEuMTY4LDEuMTY4LDAsMCwxLDEuMTY4LTEuMTY4SDEyNy4wNThhMS4xNjgsMS4xNjgsMCwwLDEsMS4xNjgsMS4xNjhaIi8+PHBhdGggY2xhc3M9ImNscy0zIiBkPSJNODMuNTc0LDYwLjQ0NEg0OS45MDhWNDcuMzY1QTEuMTY4LDEuMTY4LDAsMCwxLDUxLjA3Niw0Ni4ySDgyLjQwNWExLjE2OCwxLjE2OCwwLDAsMSwxLjE2OCwxLjE2OFoiLz48cmVjdCBjbGFzcz0iY2xzLTMiIHg9IjY0LjQ3IiB5PSIxMzYuODA1IiB3aWR0aD0iNC41NDEiIGhlaWdodD0iMjYuOTEyIi8+PHBhdGggY2xhc3M9ImNscy0zIiBkPSJNNjkuMDExLDQ4LjQ2N0g2NC40N3YtOC42QTIuMjY2LDIuMjY2LDAsMCwxLDY2LjczNywzNy42aC4wMDhhMi4yNjYsMi4yNjYsMCwwLDEsMi4yNjYsMi4yNjZaIi8+PHJlY3QgY2xhc3M9ImNscy0zIiB4PSI5MC4zNTEiIHk9IjEzMi42MjkiIHdpZHRoPSI0LjU0IiBoZWlnaHQ9IjMzLjMyMiIgdHJhbnNmb3JtPSJ0cmFuc2xhdGUoLTYyLjIyMiA2Ni4yODYpIHJvdGF0ZSgtMjkuOTkpIi8+PHJlY3QgY2xhc3M9ImNscy0zIiB4PSIyNC4xOTkiIHk9IjE0Ny4wMTkiIHdpZHRoPSIzMy4zMjMiIGhlaWdodD0iNC41NCIgdHJhbnNmb3JtPSJ0cmFuc2xhdGUoLTEwOC44NiAxMTAuMDM3KSByb3RhdGUoLTYwLjAwMikiLz48cmVjdCBjbGFzcz0iY2xzLTQiIHg9IjI2Ljk0NyIgeT0iNzEuMjMzIiB3aWR0aD0iMzAuMjU3IiBoZWlnaHQ9IjQuNTQxIi8+PHJlY3QgY2xhc3M9ImNscy00IiB4PSIyNi45NDciIHk9IjgwLjMxNCIgd2lkdGg9IjMwLjI1NyIgaGVpZ2h0PSI0LjU0Ii8+PHJlY3QgY2xhc3M9ImNscy00IiB4PSIyNi45NDciIHk9Ijg5LjM5NSIgd2lkdGg9IjMwLjI1NyIgaGVpZ2h0PSI0LjU0Ii8+PHJlY3QgY2xhc3M9ImNscy00IiB4PSIyNi45NDciIHk9Ijk4LjQ3NSIgd2lkdGg9IjMwLjI1NyIgaGVpZ2h0PSI0LjU0Ii8+PHJlY3QgY2xhc3M9ImNscy00IiB4PSIyNi45NDciIHk9IjEwNy41NTYiIHdpZHRoPSIxNS4xMjkiIGhlaWdodD0iNC41NCIvPjxwYXRoIGNsYXNzPSJjbHMtNSIgZD0iTTEwMS42NTYsOTUuNTIzSDk5LjQzMlY5Mi4zOTJhMS44ODcsMS44ODcsMCwwLDAtMS44ODQtMS44ODVINzQuNjkzYTEuODg3LDEuODg3LDAsMCwwLTEuODg2LDEuODg1djMuMTMxSDcwLjU4M1Y5Mi4zOTJhNC4xMDgsNC4xMDgsMCwwLDEsNC4xMDktNC4xMDhIOTcuNTQ4YTQuMTEsNC4xMSwwLDAsMSw0LjEwNyw0LjEwOFoiLz48cmVjdCBjbGFzcz0iY2xzLTUiIHg9Ijg1LjAwOCIgeT0iODMuMjY4IiB3aWR0aD0iMi4yMjQiIGhlaWdodD0iMTIuMjU2Ii8+PHBhdGggY2xhc3M9ImNscy01IiBkPSJNOTEuMjI2LDEwNy41NTZIODEuMDEyVjk3LjM0M0g5MS4yMjZaIi8+PHBhdGggY2xhc3M9ImNscy02IiBkPSJNOTUuMjIyLDgxLjQ0N2gtMTguMlY3MS4yMzNoMTguMloiLz48cGF0aCBjbGFzcz0iY2xzLTUiIGQ9Ik0xMDUuNjUxLDEwNy41NTZIOTUuNDM4Vjk3LjM0M2gxMC4yMTNaIi8+PHBhdGggY2xhc3M9ImNscy01IiBkPSJNNzYuOCwxMDcuNTU2SDY2LjU4OFY5Ny4zNDNINzYuOFoiLz48cGF0aCBjbGFzcz0iY2xzLTciIGQ9Ik0xMTUuMjE1LDEwNC4xMjNjLTEuNDI3LDAtMi41OTItMS45MTItMi41OTItMy4zMzlzMS4xNjUtMy4zMzcsMi41OTItMy4zMzdIMTU5LjY1YzYuNjYyLDAsOC45NDUsMy40NzYsOC45NDUsOC45NDV2MjEuMDMzYzAsMS40MjctMS45MTIsMi41OTItMy4zMzcsMi41OTJzLTMuMzM1LTEuMTY1LTMuMzM1LTIuNTkyVjEwOS40NThjMC0xLjMzNC0yLjY3MS0xLjMzNC0yLjY3MSwwdjUzLjc1NGEzLjYzNiwzLjYzNiwwLDAsMS0zLjYzNiwzLjYzNmgwYTQuMzgzLDQuMzgzLDAsMCwxLTQuMzctNC4zN1YxMzYuMTUyYzAtMi42Ny0xLjMzNC0yLjY3LTEuMzM0LDB2MjYuMzk0YTQuMzE0LDQuMzE0LDAsMCwxLTQuMyw0LjNoLS4zNkEzLjM0NiwzLjM0NiwwLDAsMSwxNDEuOSwxNjMuNXYtNTguMjFhMS4xNjgsMS4xNjgsMCwwLDAtMS4xNjgtMS4xNjhaIi8+PGNpcmNsZSBjbGFzcz0iY2xzLTciIGN4PSIxNTAuNTc3IiBjeT0iODQuNjc2IiByPSI4LjkwMiIvPjwvZz48L3N2Zz4=;" parent="1" vertex="1">
          <mxGeometry x="1315" y="2267" width="272" height="272" as="geometry" />
        </mxCell>
        <mxCell id="943" value="" style="shape=image;verticalLabelPosition=bottom;labelBackgroundColor=#ffffff;verticalAlign=top;aspect=fixed;imageAspect=0;image=data:image/svg+xml,PHN2ZyB4bWxucz0iaHR0cDovL3d3dy53My5vcmcvMjAwMC9zdmciIHZpZXdCb3g9IjAgMCA2NTAgMjAwIj48ZGVmcz48c3R5bGU+LmNscy0xe2ZpbGw6I2NjYzt9LmNscy0ye2ZpbGw6I2RkZDt9LmNscy0ze2ZpbGw6I2ZmZjt9LmNscy00e2ZpbGw6I2FhYTt9LmNscy01e2ZpbGw6IzkwOTA5MDt9LmNscy02e2ZpbGw6I2YwODcwNTt9PC9zdHlsZT48L2RlZnM+PHRpdGxlPlplaWNoZW5mbMODwqRjaGUgMyBLb3BpZSAxNDwvdGl0bGU+PGcgaWQ9IkViZW5lXzIiIGRhdGEtbmFtZT0iRWJlbmUgMiI+PHBhdGggY2xhc3M9ImNscy0xIiBkPSJNMjQuMTQ1LDQ2LjY5MWE5LjI2Nyw5LjI2NywwLDEsMSw5LjI2My05LjI2Nyw5LjI3Nyw5LjI3NywwLDAsMS05LjI2Myw5LjI2NyIvPjxwYXRoIGNsYXNzPSJjbHMtMSIgZD0iTTM3LjA1NSw1MC40NTlhOS43MTcsOS43MTcsMCwwLDAtNi4wMDctMS45M0gxNy4yODhhOS44MTEsOS44MTEsMCwwLDAtNi4wMjQsMS45MTEsOS4yMzEsOS4yMzEsMCwwLDAtMy42MzQsNy4zNTR2OS4wNEgxMy41OFY1OS43NzlhMS40LDEuNCwwLDAsMSwxLjQtMS40aDBhMS40LDEuNCwwLDAsMSwxLjQsMS40djcuMDU2SDMxLjkxVjU5Ljc3OWExLjQsMS40LDAsMCwxLDEuNC0xLjRoMGExLjQsMS40LDAsMCwxLDEuNCwxLjR2Ny4wNTZoNS45NTJ2LTkuMDRBOS4yNDMsOS4yNDMsMCwwLDAsMzcuMDU1LDUwLjQ1OVoiLz48cGF0aCBjbGFzcz0iY2xzLTIiIGQ9Ik03NC4yODgsNDYuNjkxYTkuMjY3LDkuMjY3LDAsMSwxLDkuMjYzLTkuMjY3LDkuMjc3LDkuMjc3LDAsMCwxLTkuMjYzLDkuMjY3Ii8+PHBhdGggY2xhc3M9ImNscy0yIiBkPSJNODcuMiw1MC40NTlhOS43MTcsOS43MTcsMCwwLDAtNi4wMDctMS45M0g2Ny40MzFhOS44MTEsOS44MTEsMCwwLDAtNi4wMjQsMS45MTEsOS4yMzEsOS4yMzEsMCwwLDAtMy42MzQsNy4zNTR2OS4wNGg1Ljk0OVY1OS43NzlhMS40LDEuNCwwLDAsMSwxLjQtMS40aDBhMS40LDEuNCwwLDAsMSwxLjQsMS40djcuMDU2SDgyLjA1MlY1OS43NzlhMS40LDEuNCwwLDAsMSwxLjQtMS40aDBhMS40LDEuNCwwLDAsMSwxLjQsMS40djcuMDU2SDkwLjh2LTkuMDRBOS4yNDMsOS4yNDMsMCwwLDAsODcuMiw1MC40NTlaIi8+PHBhdGggY2xhc3M9ImNscy0yIiBkPSJNMTI0LjQzMSw0Ni42OTFhOS4yNjcsOS4yNjcsMCwxLDEsOS4yNjMtOS4yNjcsOS4yNzcsOS4yNzcsMCwwLDEtOS4yNjMsOS4yNjciLz48cGF0aCBjbGFzcz0iY2xzLTIiIGQ9Ik0xMzcuMzQsNTAuNDU5YTkuNzE3LDkuNzE3LDAsMCwwLTYuMDA3LTEuOTNoLTEzLjc2YTkuODExLDkuODExLDAsMCwwLTYuMDI0LDEuOTExLDkuMjMxLDkuMjMxLDAsMCwwLTMuNjM0LDcuMzU0djkuMDRoNS45NDlWNTkuNzc5YTEuNCwxLjQsMCwwLDEsMS40LTEuNGgwYTEuNCwxLjQsMCwwLDEsMS40LDEuNHY3LjA1NkgxMzIuMlY1OS43NzlhMS40LDEuNCwwLDAsMSwxLjQtMS40aDBhMS40LDEuNCwwLDAsMSwxLjQsMS40djcuMDU2aDUuOTUydi05LjA0QTkuMjQzLDkuMjQzLDAsMCwwLDEzNy4zNCw1MC40NTlaIi8+PHBhdGggY2xhc3M9ImNscy0yIiBkPSJNMTc0LjU3Myw0Ni42OTFhOS4yNjcsOS4yNjcsMCwxLDEsOS4yNjMtOS4yNjcsOS4yNzcsOS4yNzcsMCwwLDEtOS4yNjMsOS4yNjciLz48cGF0aCBjbGFzcz0iY2xzLTIiIGQ9Ik0xODcuNDgzLDUwLjQ1OWE5LjcxNyw5LjcxNywwLDAsMC02LjAwNy0xLjkzaC0xMy43NmE5LjgxMSw5LjgxMSwwLDAsMC02LjAyNCwxLjkxMSw5LjIzMSw5LjIzMSwwLDAsMC0zLjYzNCw3LjM1NHY5LjA0aDUuOTQ5VjU5Ljc3OWExLjQsMS40LDAsMCwxLDEuNC0xLjRoMGExLjQsMS40LDAsMCwxLDEuNCwxLjR2Ny4wNTZoMTUuNTM0VjU5Ljc3OWExLjQsMS40LDAsMCwxLDEuNC0xLjRoMGExLjQsMS40LDAsMCwxLDEuNCwxLjR2Ny4wNTZoNS45NTJ2LTkuMDRBOS4yNDMsOS4yNDMsMCwwLDAsMTg3LjQ4Myw1MC40NTlaIi8+PHBhdGggY2xhc3M9ImNscy0yIiBkPSJNMjI0LjcxNiw0Ni42OTFhOS4yNjcsOS4yNjcsMCwxLDEsOS4yNjMtOS4yNjcsOS4yNzcsOS4yNzcsMCwwLDEtOS4yNjMsOS4yNjciLz48cGF0aCBjbGFzcz0iY2xzLTIiIGQ9Ik0yMzcuNjI2LDUwLjQ1OWE5LjcxNyw5LjcxNywwLDAsMC02LjAwNy0xLjkzaC0xMy43NmE5LjgxMSw5LjgxMSwwLDAsMC02LjAyNCwxLjkxMSw5LjIzMSw5LjIzMSwwLDAsMC0zLjYzNCw3LjM1NHY5LjA0aDUuOTQ5VjU5Ljc3OWExLjQsMS40LDAsMCwxLDEuNC0xLjRoMGExLjQsMS40LDAsMCwxLDEuNCwxLjR2Ny4wNTZIMjMyLjQ4VjU5Ljc3OWExLjQsMS40LDAsMCwxLDEuNC0xLjRoMGExLjQsMS40LDAsMCwxLDEuNCwxLjR2Ny4wNTZoNS45NTJ2LTkuMDRBOS4yNDMsOS4yNDMsMCwwLDAsMjM3LjYyNiw1MC40NTlaIi8+PHBhdGggY2xhc3M9ImNscy0yIiBkPSJNMjc0Ljg1OCw0Ni42OTFhOS4yNjcsOS4yNjcsMCwxLDEsOS4yNjMtOS4yNjcsOS4yNzcsOS4yNzcsMCwwLDEtOS4yNjMsOS4yNjciLz48cGF0aCBjbGFzcz0iY2xzLTIiIGQ9Ik0yODcuNzY4LDUwLjQ1OWE5LjcxNyw5LjcxNywwLDAsMC02LjAwNy0xLjkzSDI2OGE5LjgxMSw5LjgxMSwwLDAsMC02LjAyNCwxLjkxMSw5LjIzMSw5LjIzMSwwLDAsMC0zLjYzNCw3LjM1NHY5LjA0aDUuOTQ5VjU5Ljc3OWExLjQsMS40LDAsMCwxLDEuNC0xLjRoMGExLjQsMS40LDAsMCwxLDEuNCwxLjR2Ny4wNTZoMTUuNTM0VjU5Ljc3OWExLjQsMS40LDAsMCwxLDEuNC0xLjRoMGExLjQsMS40LDAsMCwxLDEuNCwxLjR2Ny4wNTZoNS45NTJ2LTkuMDRBOS4yNDMsOS4yNDMsMCwwLDAsMjg3Ljc2OCw1MC40NTlaIi8+PHBhdGggY2xhc3M9ImNscy0yIiBkPSJNMzI1LDQ2LjY5MWE5LjI2Nyw5LjI2NywwLDEsMSw5LjI2My05LjI2N0E5LjI3Nyw5LjI3NywwLDAsMSwzMjUsNDYuNjkxIi8+PHBhdGggY2xhc3M9ImNscy0yIiBkPSJNMzM3LjkxMSw1MC40NTlhOS43MTcsOS43MTcsMCwwLDAtNi4wMDctMS45M2gtMTMuNzZhOS44MTEsOS44MTEsMCwwLDAtNi4wMjQsMS45MTEsOS4yMzEsOS4yMzEsMCwwLDAtMy42MzQsNy4zNTR2OS4wNGg1Ljk0OVY1OS43NzlhMS40LDEuNCwwLDAsMSwxLjQtMS40aDBhMS40LDEuNCwwLDAsMSwxLjQsMS40djcuMDU2aDE1LjUzNFY1OS43NzlhMS40LDEuNCwwLDAsMSwxLjQtMS40aDBhMS40LDEuNCwwLDAsMSwxLjQsMS40djcuMDU2aDUuOTUydi05LjA0QTkuMjQzLDkuMjQzLDAsMCwwLDMzNy45MTEsNTAuNDU5WiIvPjxwYXRoIGNsYXNzPSJjbHMtMiIgZD0iTTM3NS4xNDQsNDYuNjkxYTkuMjY3LDkuMjY3LDAsMSwxLDkuMjYzLTkuMjY3LDkuMjc3LDkuMjc3LDAsMCwxLTkuMjYzLDkuMjY3Ii8+PHBhdGggY2xhc3M9ImNscy0yIiBkPSJNMzg4LjA1NCw1MC40NTlhOS43MTcsOS43MTcsMCwwLDAtNi4wMDctMS45M2gtMTMuNzZhOS44MTEsOS44MTEsMCwwLDAtNi4wMjQsMS45MTEsOS4yMzEsOS4yMzEsMCwwLDAtMy42MzQsNy4zNTR2OS4wNGg1Ljk0OVY1OS43NzlhMS40LDEuNCwwLDAsMSwxLjQtMS40aDBhMS40LDEuNCwwLDAsMSwxLjQsMS40djcuMDU2aDE1LjUzNFY1OS43NzlhMS40LDEuNCwwLDAsMSwxLjQtMS40aDBhMS40LDEuNCwwLDAsMSwxLjQsMS40djcuMDU2aDUuOTUydi05LjA0QTkuMjQzLDkuMjQzLDAsMCwwLDM4OC4wNTQsNTAuNDU5WiIvPjxwYXRoIGNsYXNzPSJjbHMtMiIgZD0iTTI0LjE0NSw5OS4yYTkuMjY3LDkuMjY3LDAsMSwxLDkuMjYzLTkuMjY3QTkuMjc3LDkuMjc3LDAsMCwxLDI0LjE0NSw5OS4yIi8+PHBhdGggY2xhc3M9ImNscy0yIiBkPSJNMzcuMDU1LDEwMi45NjNhOS43MTcsOS43MTcsMCwwLDAtNi4wMDctMS45M0gxNy4yODhhOS44MTEsOS44MTEsMCwwLDAtNi4wMjQsMS45MTFBOS4yMzEsOS4yMzEsMCwwLDAsNy42MzEsMTEwLjN2OS4wNEgxMy41OHYtNy4wNTZhMS40LDEuNCwwLDAsMSwxLjQtMS40aDBhMS40LDEuNCwwLDAsMSwxLjQsMS40djcuMDU2SDMxLjkxdi03LjA1NmExLjQsMS40LDAsMCwxLDEuNC0xLjRoMGExLjQsMS40LDAsMCwxLDEuNCwxLjR2Ny4wNTZoNS45NTJWMTEwLjNBOS4yNDMsOS4yNDMsMCwwLDAsMzcuMDU1LDEwMi45NjNaIi8+PHBhdGggY2xhc3M9ImNscy0yIiBkPSJNNzQuMjg4LDk5LjJhOS4yNjcsOS4yNjcsMCwxLDEsOS4yNjMtOS4yNjdBOS4yNzcsOS4yNzcsMCwwLDEsNzQuMjg4LDk5LjIiLz48cGF0aCBjbGFzcz0iY2xzLTIiIGQ9Ik04Ny4yLDEwMi45NjNhOS43MTcsOS43MTcsMCwwLDAtNi4wMDctMS45M0g2Ny40MzFhOS44MTEsOS44MTEsMCwwLDAtNi4wMjQsMS45MTEsOS4yMzEsOS4yMzEsMCwwLDAtMy42MzQsNy4zNTR2OS4wNGg1Ljk0OXYtNy4wNTZhMS40LDEuNCwwLDAsMSwxLjQtMS40aDBhMS40LDEuNCwwLDAsMSwxLjQsMS40djcuMDU2SDgyLjA1MnYtNy4wNTZhMS40LDEuNCwwLDAsMSwxLjQtMS40aDBhMS40LDEuNCwwLDAsMSwxLjQsMS40djcuMDU2SDkwLjhWMTEwLjNBOS4yNDMsOS4yNDMsMCwwLDAsODcuMiwxMDIuOTYzWiIvPjxwYXRoIGNsYXNzPSJjbHMtMiIgZD0iTTEyNC40MzEsOTkuMmE5LjI2Nyw5LjI2NywwLDEsMSw5LjI2My05LjI2Nyw5LjI3Nyw5LjI3NywwLDAsMS05LjI2Myw5LjI2NyIvPjxwYXRoIGNsYXNzPSJjbHMtMiIgZD0iTTEzNy4zNCwxMDIuOTYzYTkuNzE3LDkuNzE3LDAsMCwwLTYuMDA3LTEuOTNoLTEzLjc2YTkuODExLDkuODExLDAsMCwwLTYuMDI0LDEuOTExLDkuMjMxLDkuMjMxLDAsMCwwLTMuNjM0LDcuMzU0djkuMDRoNS45NDl2LTcuMDU2YTEuNCwxLjQsMCwwLDEsMS40LTEuNGgwYTEuNCwxLjQsMCwwLDEsMS40LDEuNHY3LjA1NkgxMzIuMnYtNy4wNTZhMS40LDEuNCwwLDAsMSwxLjQtMS40aDBhMS40LDEuNCwwLDAsMSwxLjQsMS40djcuMDU2aDUuOTUyVjExMC4zQTkuMjQzLDkuMjQzLDAsMCwwLDEzNy4zNCwxMDIuOTYzWiIvPjxwYXRoIGNsYXNzPSJjbHMtMSIgZD0iTTE3NC41NzMsOTkuMmE5LjI2Nyw5LjI2NywwLDEsMSw5LjI2My05LjI2Nyw5LjI3Nyw5LjI3NywwLDAsMS05LjI2Myw5LjI2NyIvPjxwYXRoIGNsYXNzPSJjbHMtMSIgZD0iTTE4Ny40ODMsMTAyLjk2M2E5LjcxNyw5LjcxNywwLDAsMC02LjAwNy0xLjkzaC0xMy43NmE5LjgxMSw5LjgxMSwwLDAsMC02LjAyNCwxLjkxMSw5LjIzMSw5LjIzMSwwLDAsMC0zLjYzNCw3LjM1NHY5LjA0aDUuOTQ5di03LjA1NmExLjQsMS40LDAsMCwxLDEuNC0xLjRoMGExLjQsMS40LDAsMCwxLDEuNCwxLjR2Ny4wNTZoMTUuNTM0di03LjA1NmExLjQsMS40LDAsMCwxLDEuNC0xLjRoMGExLjQsMS40LDAsMCwxLDEuNCwxLjR2Ny4wNTZoNS45NTJWMTEwLjNBOS4yNDMsOS4yNDMsMCwwLDAsMTg3LjQ4MywxMDIuOTYzWiIvPjxwYXRoIGNsYXNzPSJjbHMtMiIgZD0iTTIyNC43MTYsOTkuMmE5LjI2Nyw5LjI2NywwLDEsMSw5LjI2My05LjI2Nyw5LjI3Nyw5LjI3NywwLDAsMS05LjI2Myw5LjI2NyIvPjxwYXRoIGNsYXNzPSJjbHMtMiIgZD0iTTIzNy42MjYsMTAyLjk2M2E5LjcxNyw5LjcxNywwLDAsMC02LjAwNy0xLjkzaC0xMy43NmE5LjgxMSw5LjgxMSwwLDAsMC02LjAyNCwxLjkxMUE5LjIzMSw5LjIzMSwwLDAsMCwyMDguMiwxMTAuM3Y5LjA0aDUuOTQ5di03LjA1NmExLjQsMS40LDAsMCwxLDEuNC0xLjRoMGExLjQsMS40LDAsMCwxLDEuNCwxLjR2Ny4wNTZIMjMyLjQ4di03LjA1NmExLjQsMS40LDAsMCwxLDEuNC0xLjRoMGExLjQsMS40LDAsMCwxLDEuNCwxLjR2Ny4wNTZoNS45NTJWMTEwLjNBOS4yNDMsOS4yNDMsMCwwLDAsMjM3LjYyNiwxMDIuOTYzWiIvPjxwYXRoIGNsYXNzPSJjbHMtMiIgZD0iTTI3NC44NTgsOTkuMmE5LjI2Nyw5LjI2NywwLDEsMSw5LjI2My05LjI2Nyw5LjI3Nyw5LjI3NywwLDAsMS05LjI2Myw5LjI2NyIvPjxwYXRoIGNsYXNzPSJjbHMtMiIgZD0iTTI4Ny43NjgsMTAyLjk2M2E5LjcxNyw5LjcxNywwLDAsMC02LjAwNy0xLjkzSDI2OGE5LjgxMSw5LjgxMSwwLDAsMC02LjAyNCwxLjkxMSw5LjIzMSw5LjIzMSwwLDAsMC0zLjYzNCw3LjM1NHY5LjA0aDUuOTQ5di03LjA1NmExLjQsMS40LDAsMCwxLDEuNC0xLjRoMGExLjQsMS40LDAsMCwxLDEuNCwxLjR2Ny4wNTZoMTUuNTM0di03LjA1NmExLjQsMS40LDAsMCwxLDEuNC0xLjRoMGExLjQsMS40LDAsMCwxLDEuNCwxLjR2Ny4wNTZoNS45NTJWMTEwLjNBOS4yNDMsOS4yNDMsMCwwLDAsMjg3Ljc2OCwxMDIuOTYzWiIvPjxwYXRoIGNsYXNzPSJjbHMtMiIgZD0iTTMyNSw5OS4yYTkuMjY3LDkuMjY3LDAsMSwxLDkuMjYzLTkuMjY3QTkuMjc3LDkuMjc3LDAsMCwxLDMyNSw5OS4yIi8+PHBhdGggY2xhc3M9ImNscy0yIiBkPSJNMzM3LjkxMSwxMDIuOTYzYTkuNzE3LDkuNzE3LDAsMCwwLTYuMDA3LTEuOTNoLTEzLjc2YTkuODExLDkuODExLDAsMCwwLTYuMDI0LDEuOTExLDkuMjMxLDkuMjMxLDAsMCwwLTMuNjM0LDcuMzU0djkuMDRoNS45NDl2LTcuMDU2YTEuNCwxLjQsMCwwLDEsMS40LTEuNGgwYTEuNCwxLjQsMCwwLDEsMS40LDEuNHY3LjA1NmgxNS41MzR2LTcuMDU2YTEuNCwxLjQsMCwwLDEsMS40LTEuNGgwYTEuNCwxLjQsMCwwLDEsMS40LDEuNHY3LjA1Nmg1Ljk1MlYxMTAuM0E5LjI0Myw5LjI0MywwLDAsMCwzMzcuOTExLDEwMi45NjNaIi8+PHBhdGggY2xhc3M9ImNscy0yIiBkPSJNMzc1LjE0NCw5OS4yYTkuMjY3LDkuMjY3LDAsMSwxLDkuMjYzLTkuMjY3LDkuMjc3LDkuMjc3LDAsMCwxLTkuMjYzLDkuMjY3Ii8+PHBhdGggY2xhc3M9ImNscy0yIiBkPSJNMzg4LjA1NCwxMDIuOTYzYTkuNzE3LDkuNzE3LDAsMCwwLTYuMDA3LTEuOTNoLTEzLjc2YTkuODExLDkuODExLDAsMCwwLTYuMDI0LDEuOTExLDkuMjMxLDkuMjMxLDAsMCwwLTMuNjM0LDcuMzU0djkuMDRoNS45NDl2LTcuMDU2YTEuNCwxLjQsMCwwLDEsMS40LTEuNGgwYTEuNCwxLjQsMCwwLDEsMS40LDEuNHY3LjA1NmgxNS41MzR2LTcuMDU2YTEuNCwxLjQsMCwwLDEsMS40LTEuNGgwYTEuNCwxLjQsMCwwLDEsMS40LDEuNHY3LjA1Nmg1Ljk1MlYxMTAuM0E5LjI0Myw5LjI0MywwLDAsMCwzODguMDU0LDEwMi45NjNaIi8+PHBhdGggY2xhc3M9ImNscy0xIiBkPSJNMjQuMTQ1LDE1MS43YTkuMjY3LDkuMjY3LDAsMSwxLDkuMjYzLTkuMjY3LDkuMjc3LDkuMjc3LDAsMCwxLTkuMjYzLDkuMjY3Ii8+PHBhdGggY2xhc3M9ImNscy0xIiBkPSJNMzcuMDU1LDE1NS40NjdhOS43MTcsOS43MTcsMCwwLDAtNi4wMDctMS45M0gxNy4yODhhOS44MTEsOS44MTEsMCwwLDAtNi4wMjQsMS45MTFBOS4yMzEsOS4yMzEsMCwwLDAsNy42MzEsMTYyLjh2OS4wNEgxMy41OHYtNy4wNTZhMS40LDEuNCwwLDAsMSwxLjQtMS40aDBhMS40LDEuNCwwLDAsMSwxLjQsMS40djcuMDU2SDMxLjkxdi03LjA1NmExLjQsMS40LDAsMCwxLDEuNC0xLjRoMGExLjQsMS40LDAsMCwxLDEuNCwxLjR2Ny4wNTZoNS45NTJWMTYyLjhBOS4yNDMsOS4yNDMsMCwwLDAsMzcuMDU1LDE1NS40NjdaIi8+PHBhdGggY2xhc3M9ImNscy0yIiBkPSJNNzQuMjg4LDE1MS43YTkuMjY3LDkuMjY3LDAsMSwxLDkuMjYzLTkuMjY3LDkuMjc3LDkuMjc3LDAsMCwxLTkuMjYzLDkuMjY3Ii8+PHBhdGggY2xhc3M9ImNscy0yIiBkPSJNODcuMiwxNTUuNDY3YTkuNzE3LDkuNzE3LDAsMCwwLTYuMDA3LTEuOTNINjcuNDMxYTkuODExLDkuODExLDAsMCwwLTYuMDI0LDEuOTExLDkuMjMxLDkuMjMxLDAsMCwwLTMuNjM0LDcuMzU0djkuMDRoNS45NDl2LTcuMDU2YTEuNCwxLjQsMCwwLDEsMS40LTEuNGgwYTEuNCwxLjQsMCwwLDEsMS40LDEuNHY3LjA1Nkg4Mi4wNTJ2LTcuMDU2YTEuNCwxLjQsMCwwLDEsMS40LTEuNGgwYTEuNCwxLjQsMCwwLDEsMS40LDEuNHY3LjA1Nkg5MC44VjE2Mi44QTkuMjQzLDkuMjQzLDAsMCwwLDg3LjIsMTU1LjQ2N1oiLz48cGF0aCBjbGFzcz0iY2xzLTIiIGQ9Ik0xMjQuNDMxLDE1MS43YTkuMjY3LDkuMjY3LDAsMSwxLDkuMjYzLTkuMjY3LDkuMjc3LDkuMjc3LDAsMCwxLTkuMjYzLDkuMjY3Ii8+PHBhdGggY2xhc3M9ImNscy0yIiBkPSJNMTM3LjM0LDE1NS40NjdhOS43MTcsOS43MTcsMCwwLDAtNi4wMDctMS45M2gtMTMuNzZhOS44MTEsOS44MTEsMCwwLDAtNi4wMjQsMS45MTEsOS4yMzEsOS4yMzEsMCwwLDAtMy42MzQsNy4zNTR2OS4wNGg1Ljk0OXYtNy4wNTZhMS40LDEuNCwwLDAsMSwxLjQtMS40aDBhMS40LDEuNCwwLDAsMSwxLjQsMS40djcuMDU2SDEzMi4ydi03LjA1NmExLjQsMS40LDAsMCwxLDEuNC0xLjRoMGExLjQsMS40LDAsMCwxLDEuNCwxLjR2Ny4wNTZoNS45NTJWMTYyLjhBOS4yNDMsOS4yNDMsMCwwLDAsMTM3LjM0LDE1NS40NjdaIi8+PHBhdGggY2xhc3M9ImNscy0yIiBkPSJNMTc0LjU3MywxNTEuN2E5LjI2Nyw5LjI2NywwLDEsMSw5LjI2My05LjI2Nyw5LjI3Nyw5LjI3NywwLDAsMS05LjI2Myw5LjI2NyIvPjxwYXRoIGNsYXNzPSJjbHMtMiIgZD0iTTE4Ny40ODMsMTU1LjQ2N2E5LjcxNyw5LjcxNywwLDAsMC02LjAwNy0xLjkzaC0xMy43NmE5LjgxMSw5LjgxMSwwLDAsMC02LjAyNCwxLjkxMSw5LjIzMSw5LjIzMSwwLDAsMC0zLjYzNCw3LjM1NHY5LjA0aDUuOTQ5di03LjA1NmExLjQsMS40LDAsMCwxLDEuNC0xLjRoMGExLjQsMS40LDAsMCwxLDEuNCwxLjR2Ny4wNTZoMTUuNTM0di03LjA1NmExLjQsMS40LDAsMCwxLDEuNC0xLjRoMGExLjQsMS40LDAsMCwxLDEuNCwxLjR2Ny4wNTZoNS45NTJWMTYyLjhBOS4yNDMsOS4yNDMsMCwwLDAsMTg3LjQ4MywxNTUuNDY3WiIvPjxwYXRoIGNsYXNzPSJjbHMtMiIgZD0iTTIyNC43MTYsMTUxLjdhOS4yNjcsOS4yNjcsMCwxLDEsOS4yNjMtOS4yNjcsOS4yNzcsOS4yNzcsMCwwLDEtOS4yNjMsOS4yNjciLz48cGF0aCBjbGFzcz0iY2xzLTIiIGQ9Ik0yMzcuNjI2LDE1NS40NjdhOS43MTcsOS43MTcsMCwwLDAtNi4wMDctMS45M2gtMTMuNzZhOS44MTEsOS44MTEsMCwwLDAtNi4wMjQsMS45MTFBOS4yMzEsOS4yMzEsMCwwLDAsMjA4LjIsMTYyLjh2OS4wNGg1Ljk0OXYtNy4wNTZhMS40LDEuNCwwLDAsMSwxLjQtMS40aDBhMS40LDEuNCwwLDAsMSwxLjQsMS40djcuMDU2SDIzMi40OHYtNy4wNTZhMS40LDEuNCwwLDAsMSwxLjQtMS40aDBhMS40LDEuNCwwLDAsMSwxLjQsMS40djcuMDU2aDUuOTUyVjE2Mi44QTkuMjQzLDkuMjQzLDAsMCwwLDIzNy42MjYsMTU1LjQ2N1oiLz48cGF0aCBjbGFzcz0iY2xzLTIiIGQ9Ik0yNzQuODU4LDE1MS43YTkuMjY3LDkuMjY3LDAsMSwxLDkuMjYzLTkuMjY3LDkuMjc3LDkuMjc3LDAsMCwxLTkuMjYzLDkuMjY3Ii8+PHBhdGggY2xhc3M9ImNscy0yIiBkPSJNMjg3Ljc2OCwxNTUuNDY3YTkuNzE3LDkuNzE3LDAsMCwwLTYuMDA3LTEuOTNIMjY4YTkuODExLDkuODExLDAsMCwwLTYuMDI0LDEuOTExLDkuMjMxLDkuMjMxLDAsMCwwLTMuNjM0LDcuMzU0djkuMDRoNS45NDl2LTcuMDU2YTEuNCwxLjQsMCwwLDEsMS40LTEuNGgwYTEuNCwxLjQsMCwwLDEsMS40LDEuNHY3LjA1NmgxNS41MzR2LTcuMDU2YTEuNCwxLjQsMCwwLDEsMS40LTEuNGgwYTEuNCwxLjQsMCwwLDEsMS40LDEuNHY3LjA1Nmg1Ljk1MlYxNjIuOEE5LjI0Myw5LjI0MywwLDAsMCwyODcuNzY4LDE1NS40NjdaIi8+PHBhdGggY2xhc3M9ImNscy0yIiBkPSJNMzI1LDE1MS43YTkuMjY3LDkuMjY3LDAsMSwxLDkuMjYzLTkuMjY3QTkuMjc3LDkuMjc3LDAsMCwxLDMyNSwxNTEuNyIvPjxwYXRoIGNsYXNzPSJjbHMtMiIgZD0iTTMzNy45MTEsMTU1LjQ2N2E5LjcxNyw5LjcxNywwLDAsMC02LjAwNy0xLjkzaC0xMy43NmE5LjgxMSw5LjgxMSwwLDAsMC02LjAyNCwxLjkxMSw5LjIzMSw5LjIzMSwwLDAsMC0zLjYzNCw3LjM1NHY5LjA0aDUuOTQ5di03LjA1NmExLjQsMS40LDAsMCwxLDEuNC0xLjRoMGExLjQsMS40LDAsMCwxLDEuNCwxLjR2Ny4wNTZoMTUuNTM0di03LjA1NmExLjQsMS40LDAsMCwxLDEuNC0xLjRoMGExLjQsMS40LDAsMCwxLDEuNCwxLjR2Ny4wNTZoNS45NTJWMTYyLjhBOS4yNDMsOS4yNDMsMCwwLDAsMzM3LjkxMSwxNTUuNDY3WiIvPjxwYXRoIGNsYXNzPSJjbHMtMiIgZD0iTTM3NS4xNDQsMTUxLjdhOS4yNjcsOS4yNjcsMCwxLDEsOS4yNjMtOS4yNjcsOS4yNzcsOS4yNzcsMCwwLDEtOS4yNjMsOS4yNjciLz48cGF0aCBjbGFzcz0iY2xzLTIiIGQ9Ik0zODguMDU0LDE1NS40NjdhOS43MTcsOS43MTcsMCwwLDAtNi4wMDctMS45M2gtMTMuNzZhOS44MTEsOS44MTEsMCwwLDAtNi4wMjQsMS45MTEsOS4yMzEsOS4yMzEsMCwwLDAtMy42MzQsNy4zNTR2OS4wNGg1Ljk0OXYtNy4wNTZhMS40LDEuNCwwLDAsMSwxLjQtMS40aDBhMS40LDEuNCwwLDAsMSwxLjQsMS40djcuMDU2aDE1LjUzNHYtNy4wNTZhMS40LDEuNCwwLDAsMSwxLjQtMS40aDBhMS40LDEuNCwwLDAsMSwxLjQsMS40djcuMDU2aDUuOTUyVjE2Mi44QTkuMjQzLDkuMjQzLDAsMCwwLDM4OC4wNTQsMTU1LjQ2N1oiLz48cGF0aCBjbGFzcz0iY2xzLTIiIGQ9Ik00MjUuMjg2LDQ2LjY5MWE5LjI2Nyw5LjI2NywwLDEsMSw5LjI2My05LjI2Nyw5LjI3Nyw5LjI3NywwLDAsMS05LjI2Myw5LjI2NyIvPjxwYXRoIGNsYXNzPSJjbHMtMiIgZD0iTTQzOC4yLDUwLjQ1OWE5LjcxNyw5LjcxNywwLDAsMC02LjAwNy0xLjkzaC0xMy43NmE5LjgxMSw5LjgxMSwwLDAsMC02LjAyNCwxLjkxMSw5LjIzMSw5LjIzMSwwLDAsMC0zLjYzNCw3LjM1NHY5LjA0aDUuOTQ5VjU5Ljc3OWExLjQsMS40LDAsMCwxLDEuNC0xLjRoMGExLjQsMS40LDAsMCwxLDEuNCwxLjR2Ny4wNTZoMTUuNTM0VjU5Ljc3OWExLjQsMS40LDAsMCwxLDEuNC0xLjRoMGExLjQsMS40LDAsMCwxLDEuNCwxLjR2Ny4wNTZINDQxLjh2LTkuMDRBOS4yNDMsOS4yNDMsMCwwLDAsNDM4LjIsNTAuNDU5WiIvPjxwYXRoIGNsYXNzPSJjbHMtMiIgZD0iTTQ3NS40MjksNDYuNjkxYTkuMjY3LDkuMjY3LDAsMSwxLDkuMjYzLTkuMjY3LDkuMjc3LDkuMjc3LDAsMCwxLTkuMjYzLDkuMjY3Ii8+PHBhdGggY2xhc3M9ImNscy0yIiBkPSJNNDg4LjMzOSw1MC40NTlhOS43MTcsOS43MTcsMCwwLDAtNi4wMDctMS45M2gtMTMuNzZhOS44MTEsOS44MTEsMCwwLDAtNi4wMjQsMS45MTEsOS4yMzEsOS4yMzEsMCwwLDAtMy42MzQsNy4zNTR2OS4wNGg1Ljk0OVY1OS43NzlhMS40LDEuNCwwLDAsMSwxLjQtMS40aDBhMS40LDEuNCwwLDAsMSwxLjQsMS40djcuMDU2aDE1LjUzNFY1OS43NzlhMS40LDEuNCwwLDAsMSwxLjQtMS40aDBhMS40LDEuNCwwLDAsMSwxLjQsMS40djcuMDU2aDUuOTUydi05LjA0QTkuMjQzLDkuMjQzLDAsMCwwLDQ4OC4zMzksNTAuNDU5WiIvPjxwYXRoIGNsYXNzPSJjbHMtMiIgZD0iTTUyNS41NzIsNDYuNjkxYTkuMjY3LDkuMjY3LDAsMSwxLDkuMjYzLTkuMjY3LDkuMjc3LDkuMjc3LDAsMCwxLTkuMjYzLDkuMjY3Ii8+PHBhdGggY2xhc3M9ImNscy0yIiBkPSJNNTM4LjQ4Miw1MC40NTlhOS43MTcsOS43MTcsMCwwLDAtNi4wMDctMS45M2gtMTMuNzZhOS44MTEsOS44MTEsMCwwLDAtNi4wMjQsMS45MTEsOS4yMzEsOS4yMzEsMCwwLDAtMy42MzQsNy4zNTR2OS4wNGg1Ljk0OVY1OS43NzlhMS40LDEuNCwwLDAsMSwxLjQtMS40aDBhMS40LDEuNCwwLDAsMSwxLjQsMS40djcuMDU2aDE1LjUzNFY1OS43NzlhMS40LDEuNCwwLDAsMSwxLjQtMS40aDBhMS40LDEuNCwwLDAsMSwxLjQsMS40djcuMDU2aDUuOTUydi05LjA0QTkuMjQzLDkuMjQzLDAsMCwwLDUzOC40ODIsNTAuNDU5WiIvPjxwYXRoIGNsYXNzPSJjbHMtMiIgZD0iTTQyNS4yODYsOTkuMmE5LjI2Nyw5LjI2NywwLDEsMSw5LjI2My05LjI2Nyw5LjI3Nyw5LjI3NywwLDAsMS05LjI2Myw5LjI2NyIvPjxwYXRoIGNsYXNzPSJjbHMtMiIgZD0iTTQzOC4yLDEwMi45NjNhOS43MTcsOS43MTcsMCwwLDAtNi4wMDctMS45M2gtMTMuNzZhOS44MTEsOS44MTEsMCwwLDAtNi4wMjQsMS45MTEsOS4yMzEsOS4yMzEsMCwwLDAtMy42MzQsNy4zNTR2OS4wNGg1Ljk0OXYtNy4wNTZhMS40LDEuNCwwLDAsMSwxLjQtMS40aDBhMS40LDEuNCwwLDAsMSwxLjQsMS40djcuMDU2aDE1LjUzNHYtNy4wNTZhMS40LDEuNCwwLDAsMSwxLjQtMS40aDBhMS40LDEuNCwwLDAsMSwxLjQsMS40djcuMDU2SDQ0MS44VjExMC4zQTkuMjQzLDkuMjQzLDAsMCwwLDQzOC4yLDEwMi45NjNaIi8+PHBhdGggY2xhc3M9ImNscy0xIiBkPSJNNDc1LjQyOSw5OS4yYTkuMjY3LDkuMjY3LDAsMSwxLDkuMjYzLTkuMjY3LDkuMjc3LDkuMjc3LDAsMCwxLTkuMjYzLDkuMjY3Ii8+PHBhdGggY2xhc3M9ImNscy0xIiBkPSJNNDg4LjMzOSwxMDIuOTYzYTkuNzE3LDkuNzE3LDAsMCwwLTYuMDA3LTEuOTNoLTEzLjc2YTkuODExLDkuODExLDAsMCwwLTYuMDI0LDEuOTExLDkuMjMxLDkuMjMxLDAsMCwwLTMuNjM0LDcuMzU0djkuMDRoNS45NDl2LTcuMDU2YTEuNCwxLjQsMCwwLDEsMS40LTEuNGgwYTEuNCwxLjQsMCwwLDEsMS40LDEuNHY3LjA1NmgxNS41MzR2LTcuMDU2YTEuNCwxLjQsMCwwLDEsMS40LTEuNGgwYTEuNCwxLjQsMCwwLDEsMS40LDEuNHY3LjA1Nmg1Ljk1MlYxMTAuM0E5LjI0Myw5LjI0MywwLDAsMCw0ODguMzM5LDEwMi45NjNaIi8+PHBhdGggY2xhc3M9ImNscy0yIiBkPSJNNTI1LjU3Miw5OS4yYTkuMjY3LDkuMjY3LDAsMSwxLDkuMjYzLTkuMjY3LDkuMjc3LDkuMjc3LDAsMCwxLTkuMjYzLDkuMjY3Ii8+PHBhdGggY2xhc3M9ImNscy0yIiBkPSJNNTM4LjQ4MiwxMDIuOTYzYTkuNzE3LDkuNzE3LDAsMCwwLTYuMDA3LTEuOTNoLTEzLjc2YTkuODExLDkuODExLDAsMCwwLTYuMDI0LDEuOTExLDkuMjMxLDkuMjMxLDAsMCwwLTMuNjM0LDcuMzU0djkuMDRoNS45NDl2LTcuMDU2YTEuNCwxLjQsMCwwLDEsMS40LTEuNGgwYTEuNCwxLjQsMCwwLDEsMS40LDEuNHY3LjA1NmgxNS41MzR2LTcuMDU2YTEuNCwxLjQsMCwwLDEsMS40LTEuNGgwYTEuNCwxLjQsMCwwLDEsMS40LDEuNHY3LjA1Nmg1Ljk1MlYxMTAuM0E5LjI0Myw5LjI0MywwLDAsMCw1MzguNDgyLDEwMi45NjNaIi8+PHBhdGggY2xhc3M9ImNscy0yIiBkPSJNNDI1LjI4NiwxNTEuN2E5LjI2Nyw5LjI2NywwLDEsMSw5LjI2My05LjI2Nyw5LjI3Nyw5LjI3NywwLDAsMS05LjI2Myw5LjI2NyIvPjxwYXRoIGNsYXNzPSJjbHMtMiIgZD0iTTQzOC4yLDE1NS40NjdhOS43MTcsOS43MTcsMCwwLDAtNi4wMDctMS45M2gtMTMuNzZhOS44MTEsOS44MTEsMCwwLDAtNi4wMjQsMS45MTEsOS4yMzEsOS4yMzEsMCwwLDAtMy42MzQsNy4zNTR2OS4wNGg1Ljk0OXYtNy4wNTZhMS40LDEuNCwwLDAsMSwxLjQtMS40aDBhMS40LDEuNCwwLDAsMSwxLjQsMS40djcuMDU2aDE1LjUzNHYtNy4wNTZhMS40LDEuNCwwLDAsMSwxLjQtMS40aDBhMS40LDEuNCwwLDAsMSwxLjQsMS40djcuMDU2SDQ0MS44VjE2Mi44QTkuMjQzLDkuMjQzLDAsMCwwLDQzOC4yLDE1NS40NjdaIi8+PHBhdGggY2xhc3M9ImNscy0yIiBkPSJNNDc1LjQyOSwxNTEuN2E5LjI2Nyw5LjI2NywwLDEsMSw5LjI2My05LjI2Nyw5LjI3Nyw5LjI3NywwLDAsMS05LjI2Myw5LjI2NyIvPjxwYXRoIGNsYXNzPSJjbHMtMiIgZD0iTTQ4OC4zMzksMTU1LjQ2N2E5LjcxNyw5LjcxNywwLDAsMC02LjAwNy0xLjkzaC0xMy43NmE5LjgxMSw5LjgxMSwwLDAsMC02LjAyNCwxLjkxMSw5LjIzMSw5LjIzMSwwLDAsMC0zLjYzNCw3LjM1NHY5LjA0aDUuOTQ5di03LjA1NmExLjQsMS40LDAsMCwxLDEuNC0xLjRoMGExLjQsMS40LDAsMCwxLDEuNCwxLjR2Ny4wNTZoMTUuNTM0di03LjA1NmExLjQsMS40LDAsMCwxLDEuNC0xLjRoMGExLjQsMS40LDAsMCwxLDEuNCwxLjR2Ny4wNTZoNS45NTJWMTYyLjhBOS4yNDMsOS4yNDMsMCwwLDAsNDg4LjMzOSwxNTUuNDY3WiIvPjxwYXRoIGNsYXNzPSJjbHMtMSIgZD0iTTUyNS41NzIsMTUxLjdhOS4yNjcsOS4yNjcsMCwxLDEsOS4yNjMtOS4yNjcsOS4yNzcsOS4yNzcsMCwwLDEtOS4yNjMsOS4yNjciLz48cGF0aCBjbGFzcz0iY2xzLTEiIGQ9Ik01MzguNDgyLDE1NS40NjdhOS43MTcsOS43MTcsMCwwLDAtNi4wMDctMS45M2gtMTMuNzZhOS44MTEsOS44MTEsMCwwLDAtNi4wMjQsMS45MTEsOS4yMzEsOS4yMzEsMCwwLDAtMy42MzQsNy4zNTR2OS4wNGg1Ljk0OXYtNy4wNTZhMS40LDEuNCwwLDAsMSwxLjQtMS40aDBhMS40LDEuNCwwLDAsMSwxLjQsMS40djcuMDU2aDE1LjUzNHYtNy4wNTZhMS40LDEuNCwwLDAsMSwxLjQtMS40aDBhMS40LDEuNCwwLDAsMSwxLjQsMS40djcuMDU2aDUuOTUyVjE2Mi44QTkuMjQzLDkuMjQzLDAsMCwwLDUzOC40ODIsMTU1LjQ2N1oiLz48cGF0aCBjbGFzcz0iY2xzLTIiIGQ9Ik01NzUuNzE0LDQ2LjY5MWE5LjI2Nyw5LjI2NywwLDEsMSw5LjI2My05LjI2Nyw5LjI3Nyw5LjI3NywwLDAsMS05LjI2Myw5LjI2NyIvPjxwYXRoIGNsYXNzPSJjbHMtMiIgZD0iTTU4OC42MjQsNTAuNDU5YTkuNzE3LDkuNzE3LDAsMCwwLTYuMDA3LTEuOTNoLTEzLjc2YTkuODExLDkuODExLDAsMCwwLTYuMDI0LDEuOTExLDkuMjMxLDkuMjMxLDAsMCwwLTMuNjM0LDcuMzU0djkuMDRoNS45NDlWNTkuNzc5YTEuNCwxLjQsMCwwLDEsMS40LTEuNGgwYTEuNCwxLjQsMCwwLDEsMS40LDEuNHY3LjA1NmgxNS41MzRWNTkuNzc5YTEuNCwxLjQsMCwwLDEsMS40LTEuNGgwYTEuNCwxLjQsMCwwLDEsMS40LDEuNHY3LjA1Nmg1Ljk1MnYtOS4wNEE5LjI0Myw5LjI0MywwLDAsMCw1ODguNjI0LDUwLjQ1OVoiLz48cGF0aCBjbGFzcz0iY2xzLTEiIGQ9Ik02MjUuODU3LDQ2LjY5MWE5LjI2Nyw5LjI2NywwLDEsMSw5LjI2My05LjI2Nyw5LjI3Nyw5LjI3NywwLDAsMS05LjI2Myw5LjI2NyIvPjxwYXRoIGNsYXNzPSJjbHMtMSIgZD0iTTYzOC43NjcsNTAuNDU5YTkuNzE3LDkuNzE3LDAsMCwwLTYuMDA3LTEuOTNINjE5YTkuODExLDkuODExLDAsMCwwLTYuMDI0LDEuOTExLDkuMjMxLDkuMjMxLDAsMCwwLTMuNjM0LDcuMzU0djkuMDRoNS45NDlWNTkuNzc5YTEuNCwxLjQsMCwwLDEsMS40LTEuNGgwYTEuNCwxLjQsMCwwLDEsMS40LDEuNHY3LjA1NmgxNS41MzRWNTkuNzc5YTEuNCwxLjQsMCwwLDEsMS40LTEuNGgwYTEuNCwxLjQsMCwwLDEsMS40LDEuNHY3LjA1Nmg1Ljk1MnYtOS4wNEE5LjI0Myw5LjI0MywwLDAsMCw2MzguNzY3LDUwLjQ1OVoiLz48cGF0aCBjbGFzcz0iY2xzLTIiIGQ9Ik01NzUuNzE0LDk5LjJhOS4yNjcsOS4yNjcsMCwxLDEsOS4yNjMtOS4yNjcsOS4yNzcsOS4yNzcsMCwwLDEtOS4yNjMsOS4yNjciLz48cGF0aCBjbGFzcz0iY2xzLTIiIGQ9Ik01ODguNjI0LDEwMi45NjNhOS43MTcsOS43MTcsMCwwLDAtNi4wMDctMS45M2gtMTMuNzZhOS44MTEsOS44MTEsMCwwLDAtNi4wMjQsMS45MTFBOS4yMzEsOS4yMzEsMCwwLDAsNTU5LjIsMTEwLjN2OS4wNGg1Ljk0OXYtNy4wNTZhMS40LDEuNCwwLDAsMSwxLjQtMS40aDBhMS40LDEuNCwwLDAsMSwxLjQsMS40djcuMDU2aDE1LjUzNHYtNy4wNTZhMS40LDEuNCwwLDAsMSwxLjQtMS40aDBhMS40LDEuNCwwLDAsMSwxLjQsMS40djcuMDU2aDUuOTUyVjExMC4zQTkuMjQzLDkuMjQzLDAsMCwwLDU4OC42MjQsMTAyLjk2M1oiLz48cGF0aCBjbGFzcz0iY2xzLTIiIGQ9Ik02MjUuODU3LDk5LjJhOS4yNjcsOS4yNjcsMCwxLDEsOS4yNjMtOS4yNjcsOS4yNzcsOS4yNzcsMCwwLDEtOS4yNjMsOS4yNjciLz48cGF0aCBjbGFzcz0iY2xzLTIiIGQ9Ik02MzguNzY3LDEwMi45NjNhOS43MTcsOS43MTcsMCwwLDAtNi4wMDctMS45M0g2MTlhOS44MTEsOS44MTEsMCwwLDAtNi4wMjQsMS45MTEsOS4yMzEsOS4yMzEsMCwwLDAtMy42MzQsNy4zNTR2OS4wNGg1Ljk0OXYtNy4wNTZhMS40LDEuNCwwLDAsMSwxLjQtMS40aDBhMS40LDEuNCwwLDAsMSwxLjQsMS40djcuMDU2aDE1LjUzNHYtNy4wNTZhMS40LDEuNCwwLDAsMSwxLjQtMS40aDBhMS40LDEuNCwwLDAsMSwxLjQsMS40djcuMDU2aDUuOTUyVjExMC4zQTkuMjQzLDkuMjQzLDAsMCwwLDYzOC43NjcsMTAyLjk2M1oiLz48cGF0aCBjbGFzcz0iY2xzLTIiIGQ9Ik01NzUuNzE0LDE1MS43YTkuMjY3LDkuMjY3LDAsMSwxLDkuMjYzLTkuMjY3LDkuMjc3LDkuMjc3LDAsMCwxLTkuMjYzLDkuMjY3Ii8+PHBhdGggY2xhc3M9ImNscy0yIiBkPSJNNTg4LjYyNCwxNTUuNDY3YTkuNzE3LDkuNzE3LDAsMCwwLTYuMDA3LTEuOTNoLTEzLjc2YTkuODExLDkuODExLDAsMCwwLTYuMDI0LDEuOTExQTkuMjMxLDkuMjMxLDAsMCwwLDU1OS4yLDE2Mi44djkuMDRoNS45NDl2LTcuMDU2YTEuNCwxLjQsMCwwLDEsMS40LTEuNGgwYTEuNCwxLjQsMCwwLDEsMS40LDEuNHY3LjA1NmgxNS41MzR2LTcuMDU2YTEuNCwxLjQsMCwwLDEsMS40LTEuNGgwYTEuNCwxLjQsMCwwLDEsMS40LDEuNHY3LjA1Nmg1Ljk1MlYxNjIuOEE5LjI0Myw5LjI0MywwLDAsMCw1ODguNjI0LDE1NS40NjdaIi8+PHBhdGggY2xhc3M9ImNscy0yIiBkPSJNNjI1Ljg1NywxNTEuN2E5LjI2Nyw5LjI2NywwLDEsMSw5LjI2My05LjI2Nyw5LjI3Nyw5LjI3NywwLDAsMS05LjI2Myw5LjI2NyIvPjxwYXRoIGNsYXNzPSJjbHMtMiIgZD0iTTYzOC43NjcsMTU1LjQ2N2E5LjcxNyw5LjcxNywwLDAsMC02LjAwNy0xLjkzSDYxOWE5LjgxMSw5LjgxMSwwLDAsMC02LjAyNCwxLjkxMSw5LjIzMSw5LjIzMSwwLDAsMC0zLjYzNCw3LjM1NHY5LjA0aDUuOTQ5di03LjA1NmExLjQsMS40LDAsMCwxLDEuNC0xLjRoMGExLjQsMS40LDAsMCwxLDEuNCwxLjR2Ny4wNTZoMTUuNTM0di03LjA1NmExLjQsMS40LDAsMCwxLDEuNC0xLjRoMGExLjQsMS40LDAsMCwxLDEuNCwxLjR2Ny4wNTZoNS45NTJWMTYyLjhBOS4yNDMsOS4yNDMsMCwwLDAsNjM4Ljc2NywxNTUuNDY3WiIvPjxwYXRoIGNsYXNzPSJjbHMtMSIgZD0iTTM3NC4wNTUsMzcuMzYzSDI5NC43NjJhMS44NDMsMS44NDMsMCwwLDAtMS45NjksMS42ODNWMTQzLjAyYTEuODQzLDEuODQzLDAsMCwwLDEuOTY5LDEuNjgzSDM5NS4yMzlhMS44NDMsMS44NDMsMCwwLDAsMS45NjktMS42ODNWNjAuNTlaIi8+PHBhdGggY2xhc3M9ImNscy0zIiBkPSJNMjc0LjkyNywxNTMuNTI4Yy0uNDU0LDAtLjc5My0uMjY4LS43OTMtLjUwOFY0OS4wNDZjMC0uMjM5LjMzOS0uNTA3Ljc5My0uNTA3aDc4LjhMMzc2LjIsNzEuMDc3VjE1My4wMmMwLC4yNC0uMzM5LjUwOC0uNzkzLjUwOFoiLz48cGF0aCBjbGFzcz0iY2xzLTQiIGQ9Ik0zNTMuMjQ0LDQ5LjcxNGwyMS43NzcsMjEuODQ4djgwLjc5SDI3NS4zMVY0OS43MTRoNzcuOTM0bS45NzYtMi4zNTFIMjc0LjkyOGExLjg0MiwxLjg0MiwwLDAsMC0xLjk2OSwxLjY4M1YxNTMuMDJhMS44NDMsMS44NDMsMCwwLDAsMS45NjksMS42ODNIMzc1LjRhMS44NDMsMS44NDMsMCwwLDAsMS45NjktMS42ODNWNzAuNTkxTDM1NC4yMjEsNDcuMzYzWiIvPjxwYXRoIGNsYXNzPSJjbHMtMSIgZD0iTTM1My4wOTIsMTExLjY4OGgtNFYxMDYuMDZhMy4zOTIsMy4zOTIsMCwwLDAtMy4zODYtMy4zODhIMzA0LjYyOGEzLjM5MiwzLjM5MiwwLDAsMC0zLjM5LDMuMzg4djUuNjI4aC00VjEwNi4wNmE3LjM4NCw3LjM4NCwwLDAsMSw3LjM4Ni03LjM4NGg0MS4wODFhNy4zODcsNy4zODcsMCwwLDEsNy4zODIsNy4zODRaIi8+PHJlY3QgY2xhc3M9ImNscy0xIiB4PSIzMjMuMTY4IiB5PSI4OS42NiIgd2lkdGg9IjMuOTk3IiBoZWlnaHQ9IjIyLjAyOCIvPjxwYXRoIGNsYXNzPSJjbHMtNSIgZD0iTTMzNC4zNDUsMTMzLjMxNkgzMTUuOTg2VjExNC45NTloMTguMzU5WiIvPjxwYXRoIGNsYXNzPSJjbHMtNiIgZD0iTTM0MS41MjcsODYuMzg4SDMwOC44MDZWNjguMDI5aDMyLjcyMVoiLz48cGF0aCBjbGFzcz0iY2xzLTUiIGQ9Ik0zNjAuMjc0LDEzMy4zMTZIMzQxLjkxN1YxMTQuOTU5aDE4LjM1N1oiLz48cGF0aCBjbGFzcz0iY2xzLTUiIGQ9Ik0zMDguNDIsMTMzLjMxNkgyOTAuMDYyVjExNC45NTlIMzA4LjQyWiIvPjxwYXRoIGNsYXNzPSJjbHMtNCIgZD0iTTM3Ni4zNjUsNzEuNjA3SDM1NC45YTEuNjgzLDEuNjgzLDAsMCwxLTEuNjgzLTEuNjgzVjQ4LjM3MVoiLz48L2c+PC9zdmc+;" parent="1" vertex="1">
          <mxGeometry x="1316" y="2717" width="892" height="274" as="geometry" />
        </mxCell>
        <mxCell id="944" value="" style="shape=image;verticalLabelPosition=bottom;labelBackgroundColor=#ffffff;verticalAlign=top;aspect=fixed;imageAspect=0;image=data:image/svg+xml,PHN2ZyB4bWxucz0iaHR0cDovL3d3dy53My5vcmcvMjAwMC9zdmciIHZpZXdCb3g9IjAgMCAyMDAgMjAwIj48ZGVmcz48c3R5bGU+LmNscy0xe2ZpbGw6I2NjYzt9LmNscy0ye2ZpbGw6I2FhYTt9LmNscy0ze2ZpbGw6I2ZmZjt9LmNscy00e2ZpbGw6bm9uZTtzdHJva2U6I2NjYztzdHJva2UtbGluZWNhcDpzcXVhcmU7c3Ryb2tlLW1pdGVybGltaXQ6MTA7c3Ryb2tlLXdpZHRoOjEuNjAycHg7fS5jbHMtNXtmaWxsOiM5MDkwOTA7fS5jbHMtNntmaWxsOiNmMDg3MDU7fTwvc3R5bGU+PC9kZWZzPjx0aXRsZT5aZWljaGVuZmzDg8KkY2hlIDM8L3RpdGxlPjxnIGlkPSJFYmVuZV8yIiBkYXRhLW5hbWU9IkViZW5lIDIiPjxwYXRoIGNsYXNzPSJjbHMtMSIgZD0iTTExOS4xODYsMTI3LjdINjguMTVhMSwxLDAsMCwxLTEtMXYtNjEuOGExLDEsMCwwLDEsMS0xaDUxLjAzNmExLDEsMCwwLDEsMSwxdjYxLjhBMSwxLDAsMCwxLDExOS4xODYsMTI3LjdaIi8+PHBhdGggY2xhc3M9ImNscy0yIiBkPSJNMTEwLjc5MywxMzYuMDk0SDU5Ljc1N2ExLDEsMCwwLDEtMS0xVjczLjNhMSwxLDAsMCwxLDEtMWg1MS4wMzZhMSwxLDAsMCwxLDEsMXY2MS44QTEsMSwwLDAsMSwxMTAuNzkzLDEzNi4wOTRaIi8+PHJlY3QgY2xhc3M9ImNscy0zIiB4PSI2MS42MTUiIHk9Ijc0LjY5NyIgd2lkdGg9IjQ3Ljc4MSIgaGVpZ2h0PSI1OC45OTkiLz48cGF0aCBjbGFzcz0iY2xzLTQiIGQ9Ik0xMDIuMzYsMTIwLjUyOUg2OC42NW0zMy43MSw1Ljg2NUg2OC42NW0zMy43MS0xMi4zSDY4LjY1bTMzLjcxLTYuNDMySDY4LjY1bTMzLjcxLTYuNDMySDY4LjY1bTMzLjcxLTYuNDI1SDY4LjY1bTMzLjcxLTYuNDMySDY4LjY1bTMzLjcxLTYuNDNINjguNjUiLz48cmVjdCBjbGFzcz0iY2xzLTUiIHg9IjEwNy4zMTgiIHk9IjEwMC41MzciIHdpZHRoPSI2LjU4IiBoZWlnaHQ9IjIuOTE5Ii8+PHJlY3QgY2xhc3M9ImNscy01IiB4PSIxMTMuODM1IiB5PSI5OC4zODgiIHdpZHRoPSIyNy40MDciIGhlaWdodD0iNy4yMTEiLz48cGF0aCBjbGFzcz0iY2xzLTUiIGQ9Ik03My4zNTEsMTAxLjM4NUExNy4zNjEsMTcuMzYxLDAsMSwwLDkwLjcxNSw4NC4wMjJhMTcuMzYxLDE3LjM2MSwwLDAsMC0xNy4zNjMsMTcuMzYzIi8+PHBhdGggY2xhc3M9ImNscy0zIiBkPSJNNzcuMDE0LDEwMS4zODVhMTMuNywxMy43LDAsMSwwLDEzLjctMTMuNzA2LDEzLjcsMTMuNywwLDAsMC0xMy43LDEzLjcwNiIvPjxwb2x5Z29uIGNsYXNzPSJjbHMtNiIgcG9pbnRzPSI4OS4zMTMgMTA2LjM0OSA5Mi4xMTcgMTA2LjM0OSA5My4xNjEgOTIuMzY3IDg4LjI2OSA5Mi4zNjcgODkuMzEzIDEwNi4zNDkiLz48cmVjdCBjbGFzcz0iY2xzLTYiIHg9Ijg5LjMxMyIgeT0iMTA3LjYwMSIgd2lkdGg9IjIuODA0IiBoZWlnaHQ9IjIuNzk0Ii8+PC9nPjwvc3ZnPg==;" parent="1" vertex="1">
          <mxGeometry x="1238" y="480" width="292" height="292" as="geometry" />
        </mxCell>
        <mxCell id="945" value="" style="shape=image;verticalLabelPosition=bottom;labelBackgroundColor=#ffffff;verticalAlign=top;aspect=fixed;imageAspect=0;image=data:image/svg+xml,PHN2ZyB4bWxucz0iaHR0cDovL3d3dy53My5vcmcvMjAwMC9zdmciIHZpZXdCb3g9IjAgMCAyMDAgMjAwIj48ZGVmcz48c3R5bGU+LmNscy0xe2ZpbGw6I2NjYzt9LmNscy0ye2ZpbGw6I2FhYTt9LmNscy0ze2ZpbGw6I2ZmZjt9LmNscy00e2ZpbGw6I2YwODcwNTt9LmNscy01e2ZpbGw6IzkwOTA5MDt9PC9zdHlsZT48L2RlZnM+PHRpdGxlPlplaWNoZW5mbMODwqRjaGUgMyBLb3BpZTwvdGl0bGU+PGcgaWQ9IkViZW5lXzIiIGRhdGEtbmFtZT0iRWJlbmUgMiI+PHBhdGggY2xhc3M9ImNscy0xIiBkPSJNMTM3LjIzNCwxMjIuMzQ2SDcwLjVhMSwxLDAsMCwxLTEtMVY3MC45MjRhMSwxLDAsMCwxLDEtMWg2Ni43MzdhMSwxLDAsMCwxLDEsMXY1MC40MjJBMSwxLDAsMCwxLDEzNy4yMzQsMTIyLjM0NloiLz48cGF0aCBjbGFzcz0iY2xzLTIiIGQ9Ik0xMjkuNSwxMzAuMDc2SDYyLjc2NmExLDEsMCwwLDEtMS0xVjc4LjY1NGExLDEsMCwwLDEsMS0xSDEyOS41YTEsMSwwLDAsMSwxLDF2NTAuNDIyQTEsMSwwLDAsMSwxMjkuNSwxMzAuMDc2WiIvPjxyZWN0IGNsYXNzPSJjbHMtMyIgeD0iNjQuNDI0IiB5PSI4MC4yOTkiIHdpZHRoPSI2My40MjIiIGhlaWdodD0iNDcuMTMyIi8+PHBhdGggY2xhc3M9ImNscy00IiBkPSJNODAuNTQsOTkuNTI0YTYuNTU2LDYuNTU2LDAsMSwxLDYuNTg3LTYuNTU1LDYuNTc5LDYuNTc5LDAsMCwxLTYuNTg3LDYuNTU1Ii8+PHBhdGggY2xhc3M9ImNscy01IiBkPSJNMTEzLjg3OSw5Mi4yMTMsOTMuMjcsMTEyLjcyNWwtNy4wMzUtN0w2NC40MjQsMTI3LjQzMWg2My40MjJWMTA2LjEwOVoiLz48L2c+PC9zdmc+;" parent="1" vertex="1">
          <mxGeometry x="1551" y="495" width="276" height="276" as="geometry" />
        </mxCell>
        <mxCell id="946" value="" style="shape=image;verticalLabelPosition=bottom;labelBackgroundColor=#ffffff;verticalAlign=top;aspect=fixed;imageAspect=0;image=data:image/svg+xml,PHN2ZyB4bWxucz0iaHR0cDovL3d3dy53My5vcmcvMjAwMC9zdmciIHZpZXdCb3g9IjAgMCAyMDAgMjAwIj48ZGVmcz48c3R5bGU+LmNscy0xe2ZpbGw6I2NjYzt9LmNscy0ye2ZpbGw6I2ZmZjt9LmNscy0ze2ZpbGw6I2YwODcwNTt9LmNscy00e2ZpbGw6IzkwOTA5MDt9PC9zdHlsZT48L2RlZnM+PHRpdGxlPlplaWNoZW5mbMODwqRjaGUgMyBLb3BpZSAyPC90aXRsZT48ZyBpZD0iRWJlbmVfMiIgZGF0YS1uYW1lPSJFYmVuZSAyIj48cGF0aCBjbGFzcz0iY2xzLTEiIGQ9Ik0xMDAuMzc1LDEzNy42NjZsMS40LTExLjM0NywxMS40NjQsMS4xNTEsMS4yNTctMTUuODI3aDcuMDMzbC01Ljk4NC0xNy41MDZWOTAuMTY5aC0uMDRhMjYuMDE4LDI2LjAxOCwwLDEsMC01MC42MSw5LjYxbDUuNDM5LDE3Ljg2My0zLjI0NiwyMC4wMjVaIi8+PHBhdGggY2xhc3M9ImNscy0yIiBkPSJNOTYuMzcxLDExMi4wNUg4Mi42MTN2LTEuMTgzYTEwLjE5NCwxMC4xOTQsMCwwLDAtMy4zMi03LjUxMWMtLjExOS0uMS0uMjQ5LS4yMTgtLjM3OC0uMzI2bC0uMDQxLS4wMzdhMTUuNzU0LDE1Ljc1NCwwLDEsMSwyMS4yMzksMGwtLjA0NS4wMzljLS4xMjUuMS0uMjUxLjIxMy0uMzc2LjMyN2ExMC4xNjksMTAuMTY5LDAsMCwwLTMuMzIxLDcuNTA4WiIvPjxwb2x5Z29uIGNsYXNzPSJjbHMtMyIgcG9pbnRzPSI5MC41ODcgMTAyLjQxMiA4OC4zNDggMTAxLjY0NSA5MC45NjUgOTQuMDA3IDg0LjY1NCA5NC4wMDcgODguMzQ4IDgzLjIzNiA5MC41ODcgODQuMDA0IDg3Ljk2OCA5MS42NCA5NC4yNzkgOTEuNjQgOTAuNTg3IDEwMi40MTIiLz48cmVjdCBjbGFzcz0iY2xzLTQiIHg9IjgyLjYwNCIgeT0iMTEzLjkyMyIgd2lkdGg9IjEzLjc3NyIgaGVpZ2h0PSIyLjM2NiIvPjxyZWN0IGNsYXNzPSJjbHMtNCIgeD0iODYuMzE0IiB5PSIxMTguMTYyIiB3aWR0aD0iNi4zNTgiIGhlaWdodD0iMi4zNjYiLz48cmVjdCBjbGFzcz0iY2xzLTQiIHg9Ijg4LjMxIiB5PSIxMjIuMjY5IiB3aWR0aD0iMi4zNjYiIGhlaWdodD0iMTUuMjUzIi8+PHBhdGggY2xhc3M9ImNscy0yIiBkPSJNODguMDIxLDcwLjUxNmMuNDc3LS4wMzIuOTYzLS4wNDksMS40NDItLjA0OS4zNiwwLC43MTguMDA4LDEuMDc4LjAyN2wtLjExOSwyLjM2M2MtLjMxNy0uMDE2LS42MzQtLjAyNC0uOTQ4LS4wMjQtLjQxNCwwLS44NjIuMDE1LTEuMjg4LjA0NVptNi44LDMuMWExOC4zODksMTguMzg5LDAsMCwwLTIuMTc2LS41MDlsLjQtMi4zMzNhMjAuNTg1LDIwLjU4NSwwLDAsMSwyLjQ1Ni41NzVsLS42NzksMi4yNjdNODMuMDc4LDcxLjQ3YTIwLjY0LDIwLjY0LDAsMCwxLDIuNDQ0LS42MjhsLjQ0OCwyLjMyNGExOC41MzMsMTguNTMzLDAsMCwwLTIuMTY0LjU1NlpNOTguOTExLDc1LjRhMTguNzM0LDE4LjczNCwwLDAsMC0xLjk5LTEuMDJsLjk0OS0yLjE2OGEyMS4wMTIsMjEuMDEyLDAsMCwxLDIuMjQ1LDEuMTUxbC0xLjIsMi4wMzdtLTIwLjQtMS44MTlhMjAuNzczLDIwLjc3MywwLDAsMSwyLjIyLTEuMTk0bC45OTMsMi4xNDhBMTguNDY3LDE4LjQ2NywwLDAsMCw3OS43NTksNzUuNlptMjMuOTM5LDQuNTM4YTE4LjYwNywxOC42MDcsMCwwLDAtMS42ODktMS40NjZsMS40NDItMS44NzdhMjEuMDUzLDIxLjA1MywwLDAsMSwxLjksMS42NTNsLTEuNjU3LDEuNjltLTI3Ljg2OC0xLjRhMjEuMDUxLDIxLjA1MSwwLDAsMSwxLjg3MS0xLjY4OWwxLjQ3OSwxLjg0OGExOC44MTUsMTguODE1LDAsMCwwLTEuNjYsMS41Wm0zMC42NTksNC44ODFhMTguMzksMTguMzksMCwwLDAtMS4yOTEtMS44MjZMMTA1LjgsNzguM2EyMC44LDIwLjgsMCwwLDEsMS40NTUsMi4wNTdsLTIuMDEyLDEuMjQ4bS0zMy43MjgtLjg5MWEyMC45NTgsMjAuOTU4LDAsMCwxLDEuNDE0LTIuMDg4TDc0LjgsODAuMDdhMTguNTQyLDE4LjU0MiwwLDAsMC0xLjI1NSwxLjg1MVptMzUuNjA2LDQuOTM1YTE4LjQzOCwxOC40MzgsMCwwLDAtLjgxNi0yLjA3OWwyLjE0OC0xYTIwLjkzMSwyMC45MzEsMCwwLDEsLjkyLDIuMzQ2bC0yLjI1Mi43MjltLTM3LjYzLS4zMjJhMjAuNjg2LDIwLjY4NiwwLDAsMSwuODcxLTIuMzY5bDIuMTY4Ljk1MWExOC4zOSwxOC4zOSwwLDAsMC0uNzcyLDIuMVptMzguNDgsNC43YTE4LjM2OCwxOC4zNjgsMCwwLDAtLjI5MS0yLjIxNUwxMTAsODcuMzYyYTIwLjc5LDIwLjc5LDAsMCwxLC4zMjgsMi41bC0yLjM2MS4xNjZtLTM5LjMzNC4yMTVhMjEuMDMsMjEuMDMsMCwwLDEsLjI3Ni0yLjQ2M2wyLjMzMi40QTE4LjYsMTguNiwwLDAsMCw3MSw5MC4zNTJsMCwuMDY1Wm0zOS4xLDQuMzE5YTE4LjU4OCwxOC41ODgsMCwwLDAsLjI1Mi0yLjIzbDAtLjA2NiwyLjM2My4xMTYsMCwuMDgzYTIxLjI2NSwyMS4yNjUsMCwwLDEtLjI4NCwyLjVabS0zOC43NTkuNzQ0YTIwLjg2LDIwLjg2LDAsMCwxLS4zMjQtMi41bDIuMzYxLS4xNjFBMTguNDA2LDE4LjQwNiwwLDAsMCw3MS4zLDk0Ljg2bC0yLjMyNC40NDdtMzcuNDY2LDMuNTI2YTE4LjUzMiwxOC41MzIsMCwwLDAsLjc3Ny0yLjFsMi4yNjYuNjg2YTIwLjkwNiwyMC45MDYsMCwwLDEtLjg3OCwyLjM2NlpNNzAuNTE4LDEwMC4xYTIwLjkxNywyMC45MTcsMCwwLDEtLjkxNi0yLjM0N2wyLjI1My0uNzI0YTE4LjIxNywxOC4yMTcsMCwwLDAsLjgxMiwyLjA4bC0yLjE0OS45OTJtMzMuNjQyLDIuNTcxYTE4LjY1LDE4LjY1LDAsMCwwLDEuMjU4LTEuODQ4bDIuMDMzLDEuMjExYTIwLjcyMywyMC43MjMsMCwwLDEtMS40MTksMi4wODVabS0zMSwxLjcxYTIxLjAyNCwyMS4wMjQsMCwwLDEtMS40NTEtMi4wNjJsMi4wMTUtMS4yNDNhMTguNTI5LDE4LjUyOSwwLDAsMCwxLjI4NiwxLjgyOGwtMS44NSwxLjQ3Nm0yNy44NjUsMS40N2ExOC42NTEsMTguNjUxLDAsMCwwLDEuNjYyLTEuNWwxLjY4NiwxLjY2MUEyMC45MTUsMjAuOTE1LDAsMCwxLDEwMi41LDEwNy43Wm0tMjQuMjc3LDIuMDU5YTIxLjE4OSwyMS4xODksMCwwLDEtMS45LTEuNjU3bDEuNjYtMS42ODhhMTguNDYyLDE4LjQ2MiwwLDAsMCwxLjY4NiwxLjQ3MWwtMS40NDYsMS44NzQiLz48cGF0aCBjbGFzcz0iY2xzLTEiIGQ9Ik0xMTUuNzUsMTM0LjY2NmwxLjQtMTEuMzQ3LDEwLjQ0OCwxLjA0OWExLDEsMCwwLDAsMS4xLS45MTZsMS4xNzYtMTQuODA5SDEzNS41YTEsMSwwLDAsMCwuOTQ2LTEuMzIzbC01LjUzMi0xNi4xODNWODcuMTY4aC0uMDRhMjYuMDIxLDI2LjAyMSwwLDEsMC01MC42MSw5LjYxbDUuNDM5LDE3Ljg2My0zLjI0NiwyMC4wMjVaIi8+PHBhdGggY2xhc3M9ImNscy00IiBkPSJNMTAwLjc0OSwxMzcuNjY2bDEuNC0xMS4zNDcsMTAuNDQ4LDEuMDQ5YTEsMSwwLDAsMCwxLjEtLjkxNmwxLjE3Ni0xNC44MDlIMTIwLjVhMSwxLDAsMCwwLC45NDYtMS4zMjNsLTUuNTMyLTE2LjE4M1Y5MC4xNjloLS4wNGEyNi4wMjEsMjYuMDIxLDAsMSwwLTUwLjYxLDkuNjFsNS40MzksMTcuODYzLTMuMjQ2LDIwLjAyNVoiLz48cGF0aCBjbGFzcz0iY2xzLTIiIGQ9Ik05Ni43NDQsMTEyLjA1SDgyLjk4N3YtMS4xODNhMTAuMTk0LDEwLjE5NCwwLDAsMC0zLjMyLTcuNTExYy0uMTE5LS4xLS4yNDktLjIxOC0uMzc4LS4zMjZsLS4wNDEtLjAzN2ExNS43NTQsMTUuNzU0LDAsMSwxLDIxLjIzOSwwbC0uMDQ1LjAzOWMtLjEyNS4xLS4yNTEuMjEzLS4zNzYuMzI3YTEwLjE2OSwxMC4xNjksMCwwLDAtMy4zMjEsNy41MDhaIi8+PHBvbHlnb24gY2xhc3M9ImNscy0zIiBwb2ludHM9IjkwLjk2MSAxMDIuNDEyIDg4LjcyMiAxMDEuNjQ1IDkxLjMzOSA5NC4wMDcgODUuMDI4IDk0LjAwNyA4OC43MjIgODMuMjM2IDkwLjk2MSA4NC4wMDQgODguMzQxIDkxLjY0IDk0LjY1MiA5MS42NCA5MC45NjEgMTAyLjQxMiIvPjxyZWN0IGNsYXNzPSJjbHMtMSIgeD0iODIuOTc4IiB5PSIxMTMuOTIzIiB3aWR0aD0iMTMuNzc3IiBoZWlnaHQ9IjIuMzY2Ii8+PHJlY3QgY2xhc3M9ImNscy0xIiB4PSI4Ni42ODciIHk9IjExOC4xNjIiIHdpZHRoPSI2LjM1OCIgaGVpZ2h0PSIyLjM2NiIvPjxyZWN0IGNsYXNzPSJjbHMtMSIgeD0iODguNjgzIiB5PSIxMjIuMjY5IiB3aWR0aD0iMi4zNjYiIGhlaWdodD0iMTUuMjUzIi8+PHBhdGggY2xhc3M9ImNscy0yIiBkPSJNODguNCw3MC41MTZjLjQ3Ny0uMDMyLjk2My0uMDQ5LDEuNDQyLS4wNDkuMzYsMCwuNzE4LjAwOCwxLjA3OC4wMjdMOTAuOCw3Mi44NTZjLS4zMTctLjAxNi0uNjM0LS4wMjQtLjk0OC0uMDI0LS40MTQsMC0uODYyLjAxNS0xLjI4OC4wNDVabTYuOCwzLjFhMTguMzg5LDE4LjM4OSwwLDAsMC0yLjE3Ni0uNTA5bC40LTIuMzMzYTIwLjU4NSwyMC41ODUsMCwwLDEsMi40NTYuNTc1TDk1LjIsNzMuNjEyTTgzLjQ1Miw3MS40N2EyMC42NCwyMC42NCwwLDAsMSwyLjQ0NC0uNjI4bC40NDgsMi4zMjRhMTguNTMzLDE4LjUzMywwLDAsMC0yLjE2NC41NTZaTTk5LjI4NCw3NS40YTE4LjczNCwxOC43MzQsMCwwLDAtMS45OS0xLjAybC45NDktMi4xNjhhMjEuMDEyLDIxLjAxMiwwLDAsMSwyLjI0NSwxLjE1MWwtMS4yLDIuMDM3bS0yMC40LTEuODE5YTIwLjc3MywyMC43NzMsMCwwLDEsMi4yMi0xLjE5NGwuOTkzLDIuMTQ4QTE4LjQ2NywxOC40NjcsMCwwLDAsODAuMTMzLDc1LjZabTIzLjkzOSw0LjUzOGExOC42MDcsMTguNjA3LDAsMCwwLTEuNjg5LTEuNDY2bDEuNDQyLTEuODc3YTIxLjA1MywyMS4wNTMsMCwwLDEsMS45LDEuNjUzbC0xLjY1NywxLjY5bS0yNy44NjgtMS40YTIxLjA1MSwyMS4wNTEsMCwwLDEsMS44NzEtMS42ODlsMS40NzksMS44NDhhMTguODE1LDE4LjgxNSwwLDAsMC0xLjY2LDEuNVptMzAuNjU5LDQuODgxYTE4LjM5LDE4LjM5LDAsMCwwLTEuMjkxLTEuODI2bDEuODQ3LTEuNDhhMjAuOCwyMC44LDAsMCwxLDEuNDU1LDIuMDU3bC0yLjAxMiwxLjI0OG0tMzMuNzI4LS44OTFBMjAuOTU4LDIwLjk1OCwwLDAsMSw3My4zLDc4LjYyN2wxLjg3NiwxLjQ0M2ExOC41NDIsMTguNTQyLDAsMCwwLTEuMjU1LDEuODUxWm0zNS42MDYsNC45MzVhMTguNDM4LDE4LjQzOCwwLDAsMC0uODE2LTIuMDc5bDIuMTQ4LTFhMjAuOTMxLDIwLjkzMSwwLDAsMSwuOTIsMi4zNDZsLTIuMjUyLjcyOW0tMzcuNjMtLjMyMmEyMC42ODYsMjAuNjg2LDAsMCwxLC44NzEtMi4zNjlsMi4xNjguOTUxYTE4LjM5LDE4LjM5LDAsMCwwLS43NzIsMi4xWm0zOC40OCw0LjdhMTguMzY4LDE4LjM2OCwwLDAsMC0uMjkxLTIuMjE1bDIuMzI0LS40NTFhMjAuNzksMjAuNzksMCwwLDEsLjMyOCwyLjVsLTIuMzYxLjE2Nm0tMzkuMzM0LjIxNWEyMS4wMywyMS4wMywwLDAsMSwuMjc2LTIuNDYzbDIuMzMyLjRhMTguNiwxOC42LDAsMCwwLS4yNDQsMi4xNjhsMCwuMDY1Wm0zOS4xLDQuMzE5YTE4LjU4OCwxOC41ODgsMCwwLDAsLjI1Mi0yLjIzbDAtLjA2NiwyLjM2My4xMTYsMCwuMDgzYTIxLjI2NSwyMS4yNjUsMCwwLDEtLjI4NCwyLjVabS0zOC43NTkuNzQ0YTIwLjg2LDIwLjg2LDAsMCwxLS4zMjQtMi41bDIuMzYxLS4xNjFhMTguNDA2LDE4LjQwNiwwLDAsMCwuMjg3LDIuMjE2bC0yLjMyNC40NDdtMzcuNDY2LDMuNTI2YTE4LjUzMiwxOC41MzIsMCwwLDAsLjc3Ny0yLjFsMi4yNjYuNjg2YTIwLjkwNiwyMC45MDYsMCwwLDEtLjg3OCwyLjM2NlpNNzAuODkxLDEwMC4xYTIwLjkxNywyMC45MTcsMCwwLDEtLjkxNi0yLjM0N2wyLjI1My0uNzI0YTE4LjIxNywxOC4yMTcsMCwwLDAsLjgxMiwyLjA4bC0yLjE0OS45OTJtMzMuNjQyLDIuNTcxYTE4LjY1LDE4LjY1LDAsMCwwLDEuMjU4LTEuODQ4bDIuMDMzLDEuMjExYTIwLjcyMywyMC43MjMsMCwwLDEtMS40MTksMi4wODVabS0zMSwxLjcxYTIxLjAyNCwyMS4wMjQsMCwwLDEtMS40NTEtMi4wNjJsMi4wMTUtMS4yNDNhMTguNTI5LDE4LjUyOSwwLDAsMCwxLjI4NiwxLjgyOGwtMS44NSwxLjQ3Nm0yNy44NjUsMS40N2ExOC42NTEsMTguNjUxLDAsMCwwLDEuNjYyLTEuNWwxLjY4NiwxLjY2MWEyMC45MTUsMjAuOTE1LDAsMCwxLTEuODc0LDEuNjg2Wm0tMjQuMjc3LDIuMDU5YTIxLjE4OSwyMS4xODksMCwwLDEtMS45LTEuNjU3bDEuNjYtMS42ODhhMTguNDYyLDE4LjQ2MiwwLDAsMCwxLjY4NiwxLjQ3MWwtMS40NDYsMS44NzQiLz48L2c+PC9zdmc+;" parent="1" vertex="1">
          <mxGeometry x="1851" y="488" width="280" height="280" as="geometry" />
        </mxCell>
        <mxCell id="947" value="" style="shape=image;verticalLabelPosition=bottom;labelBackgroundColor=#ffffff;verticalAlign=top;aspect=fixed;imageAspect=0;image=data:image/svg+xml,PHN2ZyB4bWxucz0iaHR0cDovL3d3dy53My5vcmcvMjAwMC9zdmciIHhtbG5zOnhsaW5rPSJodHRwOi8vd3d3LnczLm9yZy8xOTk5L3hsaW5rIiB2ZXJzaW9uPSIxLjEiIGlkPSJFYmVuZV8xIiB4PSIwcHgiIHk9IjBweCIgdmlld0JveD0iMCAwIDIwMCAyMDAiIHN0eWxlPSJlbmFibGUtYmFja2dyb3VuZDpuZXcgMCAwIDIwMCAyMDA7IiB4bWw6c3BhY2U9InByZXNlcnZlIj4mI3hhOzxzdHlsZSB0eXBlPSJ0ZXh0L2NzcyI+JiN4YTsJLnN0MHtmaWxsOiNERjZDMEM7fSYjeGE7CS5zdDF7ZmlsbDojRjhDMzgyO30mI3hhOwkuc3Qye2ZpbGw6I0Y1QUI1MDt9JiN4YTsJLnN0M3tmaWxsOm5vbmU7c3Ryb2tlOiNGOEMzODI7c3Ryb2tlLXdpZHRoOjAuODQ2O3N0cm9rZS1taXRlcmxpbWl0OjEwO30mI3hhOwkuc3Q0e2ZpbGw6bm9uZTtzdHJva2U6I0Y1QUI1MDtzdHJva2Utd2lkdGg6MC44NDY7c3Ryb2tlLW1pdGVybGltaXQ6MTA7fSYjeGE7CS5zdDV7ZmlsbDpub25lO3N0cm9rZTojRjhDMzgyO3N0cm9rZS13aWR0aDoxLjA1ODtzdHJva2UtbWl0ZXJsaW1pdDoxMDt9JiN4YTsJLnN0NntmaWxsOiNGMDg3MDU7fSYjeGE7PC9zdHlsZT4mI3hhOzx0aXRsZT5aZWljaGVuZmzDg8KkY2hlIDMgS29waWUgMTY8L3RpdGxlPiYjeGE7PGcgaWQ9IkViZW5lXzIiPiYjeGE7CTxwYXRoIGNsYXNzPSJzdDAiIGQ9Ik04LjcsNzAuMWg1OWMwLjYsMCwxLDAuNCwxLDF2MTAwLjdjMCwwLjYtMC40LDEtMSwxaC01OWMtMC42LDAtMS0wLjQtMS0xVjcxLjFDNy43LDcwLjUsOC4yLDcwLjEsOC43LDcwLjF6Ii8+JiN4YTsJPHBhdGggY2xhc3M9InN0MCIgZD0iTTEzMi4yLDcwLjFoNTljMC42LDAsMSwwLjQsMSwxdjEwMC43YzAsMC42LTAuNCwxLTEsMWgtNTljLTAuNiwwLTEtMC40LTEtMVY3MS4xICAgQzEzMS4yLDcwLjUsMTMxLjcsNzAuMSwxMzIuMiw3MC4xeiIvPiYjeGE7CTxwYXRoIGNsYXNzPSJzdDEiIGQ9Ik03NS42LDI3LjNoNDguOGMwLjYsMCwxLDAuNCwxLDF2MjAuNWMwLDAuNi0wLjQsMS0xLDFINzUuNmMtMC42LDAtMS0wLjQtMS0xVjI4LjMgICBDNzQuNiwyNy43LDc1LDI3LjMsNzUuNiwyNy4zeiIvPiYjeGE7CTxwYXRoIGNsYXNzPSJzdDEiIGQ9Ik0xMDQuNSwxMDkuNWgyMC43YzAuNiwwLDEsMC40LDEsMXY4LjZjMCwwLjYtMC40LDEtMSwxaC0yMC43Yy0wLjYsMC0xLTAuNC0xLTF2LTguNiAgIEMxMDMuNSwxMDkuOSwxMDMuOSwxMDkuNSwxMDQuNSwxMDkuNXoiLz4mI3hhOwk8cGF0aCBjbGFzcz0ic3QyIiBkPSJNMTY2LjMsMTA5LjVIMTg3YzAuNiwwLDEsMC40LDEsMXY4LjZjMCwwLjYtMC40LDEtMSwxaC0yMC43Yy0wLjYsMC0xLTAuNC0xLTF2LTguNiAgIEMxNjUuMywxMDkuOSwxNjUuNywxMDkuNSwxNjYuMywxMDkuNXoiLz4mI3hhOwk8cGF0aCBjbGFzcz0ic3QyIiBkPSJNNDIuNywxMDkuNWgyMC43YzAuNiwwLDEsMC40LDEsMXY4LjZjMCwwLjYtMC40LDEtMSwxSDQyLjdjLTAuNiwwLTEtMC40LTEtMXYtOC42ICAgQzQxLjcsMTA5LjksNDIuMSwxMDkuNSw0Mi43LDEwOS41eiIvPiYjeGE7CTxwYXRoIGNsYXNzPSJzdDEiIGQ9Ik03NC43LDEwOS41aDIwLjdjMC42LDAsMSwwLjQsMSwxdjguNmMwLDAuNi0wLjQsMS0xLDFINzQuN2MtMC42LDAtMS0wLjQtMS0xdi04LjYgICBDNzMuNywxMDkuOSw3NC4yLDEwOS41LDc0LjcsMTA5LjV6Ii8+JiN4YTsJPHBhdGggY2xhc3M9InN0MiIgZD0iTTEzNi42LDEwOS41aDIwLjdjMC42LDAsMSwwLjQsMSwxdjguNmMwLDAuNi0wLjQsMS0xLDFoLTIwLjdjLTAuNiwwLTEtMC40LTEtMXYtOC42ICAgQzEzNS42LDEwOS45LDEzNiwxMDkuNSwxMzYuNiwxMDkuNXoiLz4mI3hhOwk8cGF0aCBjbGFzcz0ic3QyIiBkPSJNMTIuOSwxMDkuNWgyMC43YzAuNiwwLDEsMC40LDEsMXY4LjZjMCwwLjYtMC40LDEtMSwxSDEyLjljLTAuNiwwLTEtMC40LTEtMXYtOC42ICAgQzExLjksMTA5LjksMTIuNCwxMDkuNSwxMi45LDEwOS41eiIvPiYjeGE7CTxwYXRoIGNsYXNzPSJzdDEiIGQ9Ik0xMDQuNSwxMzMuNGgyMC43YzAuNiwwLDEsMC40LDEsMXY4LjZjMCwwLjYtMC40LDEtMSwxaC0yMC43Yy0wLjYsMC0xLTAuNC0xLTF2LTguNiAgIEMxMDMuNSwxMzMuOCwxMDMuOSwxMzMuNCwxMDQuNSwxMzMuNHoiLz4mI3hhOwk8cGF0aCBjbGFzcz0ic3QyIiBkPSJNMTM2LjYsMTMzLjRoMjAuN2MwLjYsMCwxLDAuNCwxLDF2OC42YzAsMC42LTAuNCwxLTEsMWgtMjAuN2MtMC42LDAtMS0wLjQtMS0xdi04LjYgICBDMTM1LjYsMTMzLjgsMTM2LDEzMy40LDEzNi42LDEzMy40eiIvPiYjeGE7CTxwYXRoIGNsYXNzPSJzdDIiIGQ9Ik0xMi45LDEzMy40aDIwLjdjMC42LDAsMSwwLjQsMSwxdjguNmMwLDAuNi0wLjQsMS0xLDFIMTIuOWMtMC42LDAtMS0wLjQtMS0xdi04LjYgICBDMTEuOSwxMzMuOCwxMi40LDEzMy40LDEyLjksMTMzLjR6Ii8+JiN4YTsJPHBvbHlsaW5lIGNsYXNzPSJzdDMiIHBvaW50cz0iNTAuNiwxMDAuNSAzOC4xLDEwMC41IDM4LjEsOTAuNCAgIi8+JiN4YTsJPHBhdGggY2xhc3M9InN0NCIgZD0iTTUzLDEwNi41di01YzAtMC41LTAuNC0wLjktMC45LTAuOWwwLDBoLTE0Vjg5LjciLz4mI3hhOwk8cG9seWdvbiBjbGFzcz0ic3QyIiBwb2ludHM9IjU1LjEsMTA1LjggNTMsMTA5LjUgNTAuOSwxMDUuOCAgIi8+JiN4YTsJPHBvbHlsaW5lIGNsYXNzPSJzdDMiIHBvaW50cz0iMjUuNywxMDAuNSAzOC4xLDEwMC41IDM4LjEsOTAuNCAgIi8+JiN4YTsJPHBhdGggY2xhc3M9InN0NCIgZD0iTTIzLjMsMTA2LjV2LTVjMC0wLjUsMC40LTAuOSwwLjktMC45bDAsMGgxNFY4OS43Ii8+JiN4YTsJPHBvbHlnb24gY2xhc3M9InN0MiIgcG9pbnRzPSIyNS40LDEwNS44IDIzLjMsMTA5LjUgMjEuMiwxMDUuOCAgIi8+JiN4YTsJPHBvbHlsaW5lIGNsYXNzPSJzdDMiIHBvaW50cz0iMTEyLjQsMTAwLjUgOTkuOSwxMDAuNSA5OS45LDkwLjQgICIvPiYjeGE7CTxwYXRoIGNsYXNzPSJzdDMiIGQ9Ik0xMTQuOCwxMDYuNXYtNWMwLTAuNS0wLjQtMC45LTAuOS0wLjlsMCwwaC0xNFY4OS43Ii8+JiN4YTsJPHBvbHlnb24gY2xhc3M9InN0MSIgcG9pbnRzPSIxMTYuOSwxMDUuOCAxMTQuOCwxMDkuNSAxMTIuNywxMDUuOCAgIi8+JiN4YTsJPHBvbHlsaW5lIGNsYXNzPSJzdDMiIHBvaW50cz0iODcuNSwxMDAuNSA5OS45LDEwMC41IDk5LjksOTAuNCAgIi8+JiN4YTsJPHBhdGggY2xhc3M9InN0MyIgZD0iTTg1LjEsMTA2LjV2LTVjMC0wLjUsMC40LTAuOSwwLjktMC45bDAsMGgxNFY4OS43Ii8+JiN4YTsJPHBvbHlnb24gY2xhc3M9InN0MSIgcG9pbnRzPSI4Ny4yLDEwNS44IDg1LjEsMTA5LjUgODMsMTA1LjggICIvPiYjeGE7CTxwb2x5bGluZSBjbGFzcz0ic3Q0IiBwb2ludHM9IjE3NC4yLDEwMC41IDE2MS44LDEwMC41IDE2MS44LDkwLjQgICIvPiYjeGE7CTxwYXRoIGNsYXNzPSJzdDQiIGQ9Ik0xNzYuNiwxMDYuNXYtNWMwLTAuNS0wLjQtMC45LTAuOS0wLjloLTE0Vjg5LjciLz4mI3hhOwk8cG9seWdvbiBjbGFzcz0ic3QyIiBwb2ludHM9IjE3OC43LDEwNS44IDE3Ni42LDEwOS41IDE3NC41LDEwNS44ICAiLz4mI3hhOwk8cG9seWxpbmUgY2xhc3M9InN0NCIgcG9pbnRzPSIxNDkuMywxMDAuNSAxNjEuOCwxMDAuNSAxNjEuOCw5MC40ICAiLz4mI3hhOwk8cGF0aCBjbGFzcz0ic3Q0IiBkPSJNMTQ2LjksMTA2LjV2LTVjMC0wLjUsMC40LTAuOSwwLjktMC45aDE0Vjg5LjciLz4mI3hhOwk8cG9seWdvbiBjbGFzcz0ic3QyIiBwb2ludHM9IjE0OSwxMDUuOCAxNDYuOSwxMDkuNSAxNDQuOCwxMDUuOCAgIi8+JiN4YTsJPGxpbmUgY2xhc3M9InN0NSIgeDE9Ijk5LjkiIHkxPSI2My40IiB4Mj0iOTkuOSIgeTI9Ijc0LjUiLz4mI3hhOwk8cG9seWdvbiBjbGFzcz0ic3QxIiBwb2ludHM9Ijk3LjMsNzMuNyA5OS45LDc4LjMgMTAyLjYsNzMuNyAgIi8+JiN4YTsJPHBhdGggY2xhc3M9InN0NSIgZD0iTTM4LjEsNzQuNVY2NC4yYzAtMC41LDAuNC0wLjksMC45LTAuOWwwLDBoNjAuOVY0OC40Ii8+JiN4YTsJPHBvbHlnb24gY2xhc3M9InN0MSIgcG9pbnRzPSI0MC44LDczLjcgMzguMSw3OC4zIDM1LjUsNzMuNyAgIi8+JiN4YTsJPHBhdGggY2xhc3M9InN0NSIgZD0iTTE2MS44LDc0LjVWNjQuMmMwLTAuNS0wLjQtMC45LTAuOS0wLjloLTYxVjQ4LjQiLz4mI3hhOwk8cG9seWdvbiBjbGFzcz0ic3QxIiBwb2ludHM9IjE2NC40LDczLjcgMTYxLjgsNzguMyAxNTkuMSw3My43ICAiLz4mI3hhOwk8bGluZSBjbGFzcz0ic3Q0IiB4MT0iMjMuMyIgeTE9IjEyMC4xIiB4Mj0iMjMuMyIgeTI9IjEzMC4zIi8+JiN4YTsJPHBvbHlnb24gY2xhc3M9InN0MiIgcG9pbnRzPSIyMS4yLDEyOS43IDIzLjMsMTMzLjQgMjUuNCwxMjkuNyAgIi8+JiN4YTsJPHBhdGggY2xhc3M9InN0MSIgZD0iTTc0LjcsMTMzLjRoMjAuN2MwLjYsMCwxLDAuNCwxLDF2OC42YzAsMC42LTAuNCwxLTEsMUg3NC43Yy0wLjYsMC0xLTAuNC0xLTF2LTguNiAgIEM3My43LDEzMy44LDc0LjIsMTMzLjQsNzQuNywxMzMuNHoiLz4mI3hhOwk8bGluZSBjbGFzcz0ic3QzIiB4MT0iODUuMSIgeTE9IjEyMC4xIiB4Mj0iODUuMSIgeTI9IjEzMC40Ii8+JiN4YTsJPHBvbHlnb24gY2xhc3M9InN0MSIgcG9pbnRzPSI4MywxMjkuNyA4NS4xLDEzMy40IDg3LjIsMTI5LjcgICIvPiYjeGE7CTxsaW5lIGNsYXNzPSJzdDMiIHgxPSIxMTQuOCIgeTE9IjEyMC4xIiB4Mj0iMTE0LjgiIHkyPSIxMzAuNCIvPiYjeGE7CTxwb2x5Z29uIGNsYXNzPSJzdDEiIHBvaW50cz0iMTEyLjcsMTI5LjcgMTE0LjgsMTMzLjQgMTE2LjksMTI5LjcgICIvPiYjeGE7CTxsaW5lIGNsYXNzPSJzdDQiIHgxPSIxNDYuOSIgeTE9IjEyMC4xIiB4Mj0iMTQ2LjkiIHkyPSIxMzAuNCIvPiYjeGE7CTxwb2x5Z29uIGNsYXNzPSJzdDIiIHBvaW50cz0iMTQ0LjgsMTI5LjcgMTQ2LjksMTMzLjQgMTQ5LDEyOS43ICAiLz4mI3hhOwk8bGluZSBjbGFzcz0ic3Q0IiB4MT0iMTc2LjYiIHkxPSIxMjAuMSIgeDI9IjE3Ni42IiB5Mj0iMTMwLjQiLz4mI3hhOwk8cG9seWdvbiBjbGFzcz0ic3QyIiBwb2ludHM9IjE3NC41LDEyOS43IDE3Ni42LDEzMy40IDE3OC43LDEyOS43ICAiLz4mI3hhOwk8cGF0aCBjbGFzcz0ic3QxIiBkPSJNODUuMSw3OC4zaDI5LjdjMC42LDAsMSwwLjQsMSwxdjEyLjhjMCwwLjYtMC40LDEtMSwxSDg1LjFjLTAuNiwwLTEtMC40LTEtMVY3OS4zICAgQzg0LjEsNzguNyw4NC41LDc4LjMsODUuMSw3OC4zeiIvPiYjeGE7CTxwYXRoIGNsYXNzPSJzdDIiIGQ9Ik0xNDYuOSw3OC4zaDI5LjdjMC42LDAsMSwwLjQsMSwxdjEyLjhjMCwwLjYtMC40LDEtMSwxaC0yOS43Yy0wLjYsMC0xLTAuNC0xLTFWNzkuMyAgIEMxNDUuOSw3OC43LDE0Ni4zLDc4LjMsMTQ2LjksNzguM3oiLz4mI3hhOwk8cGF0aCBjbGFzcz0ic3QyIiBkPSJNMjMuMyw3OC4zSDUzYzAuNiwwLDEsMC40LDEsMXYxMi44YzAsMC42LTAuNCwxLTEsMUgyMy4zYy0wLjYsMC0xLTAuNC0xLTFWNzkuMyAgIEMyMi4zLDc4LjcsMjIuNyw3OC4zLDIzLjMsNzguM3oiLz4mI3hhOwk8cGF0aCBjbGFzcz0ic3Q2IiBkPSJNODUuMSwzNy41Yy0yLDAtMy41LTEuNi0zLjUtMy41czEuNi0zLjUsMy41LTMuNWMyLDAsMy41LDEuNiwzLjUsMy41bDAsMEM4OC42LDM2LDg3LDM3LjUsODUuMSwzNy41Ii8+JiN4YTsJPHBhdGggY2xhc3M9InN0NiIgZD0iTTkwLDM5Yy0wLjctMC41LTEuNS0wLjgtMi4zLTAuN2gtNS4yYy0wLjgsMC0xLjYsMC4yLTIuMywwLjdjLTAuOSwwLjctMS40LDEuNy0xLjQsMi44djMuNEg4MXYtMi43ICAgYzAtMC4zLDAuMi0wLjUsMC41LTAuNWwwLDBsMCwwYzAuMywwLDAuNSwwLjIsMC41LDAuNXYyLjdoNnYtMi43YzAtMC4zLDAuMi0wLjUsMC41LTAuNWwwLDBjMC4zLDAsMC41LDAuMiwwLjUsMC41djIuN2gyLjN2LTMuNCAgIEM5MS40LDQwLjcsOTAuOSwzOS42LDkwLDM5eiIvPiYjeGE7CTxyZWN0IHg9Ijk2LjQiIHk9IjMyLjIiIGNsYXNzPSJzdDYiIHdpZHRoPSIyMi42IiBoZWlnaHQ9IjIuNiIvPiYjeGE7CTxyZWN0IHg9Ijk2LjQiIHk9IjQyLjYiIGNsYXNzPSJzdDYiIHdpZHRoPSIyMi42IiBoZWlnaHQ9IjIuNiIvPiYjeGE7CTxyZWN0IHg9Ijk2LjQiIHk9IjM3LjQiIGNsYXNzPSJzdDYiIHdpZHRoPSIyMi42IiBoZWlnaHQ9IjIuNiIvPiYjeGE7CTxwYXRoIGNsYXNzPSJzdDYiIGQ9Ik05MSw4NWMtMS4zLDAtMi4zLTEtMi4zLTIuM3MxLTIuMywyLjMtMi4zczIuMywxLDIuMywyLjNsMCwwQzkzLjMsODQsOTIuMiw4NSw5MSw4NSIvPiYjeGE7CTxwYXRoIGNsYXNzPSJzdDYiIGQ9Ik05NC4yLDg1LjljLTAuNC0wLjMtMS0wLjUtMS41LTAuNWgtMy40Yy0wLjUsMC0xLjEsMC4yLTEuNSwwLjVjLTAuNiwwLjQtMC45LDEuMS0wLjksMS44VjkwaDEuNXYtMS43ICAgYzAtMC4yLDAuMi0wLjMsMC4zLTAuM2wwLDBsMCwwYzAuMiwwLDAuMywwLjIsMC4zLDAuM2wwLDBWOTBoMy44di0xLjdjMC0wLjIsMC4yLTAuMywwLjMtMC4zbDAsMGwwLDBjMC4yLDAsMC4zLDAuMiwwLjMsMC4zbDAsMCAgIFY5MGgxLjV2LTIuMkM5NS4xLDg3LDk0LjcsODYuNCw5NC4yLDg1Ljl6Ii8+JiN4YTsJPHJlY3QgeD0iOTguMyIgeT0iODEuNSIgY2xhc3M9InN0NiIgd2lkdGg9IjE0LjciIGhlaWdodD0iMS43Ii8+JiN4YTsJPHJlY3QgeD0iOTguMyIgeT0iODguMyIgY2xhc3M9InN0NiIgd2lkdGg9IjE0LjciIGhlaWdodD0iMS43Ii8+JiN4YTsJPHJlY3QgeD0iOTguMyIgeT0iODQuOSIgY2xhc3M9InN0NiIgd2lkdGg9IjE0LjciIGhlaWdodD0iMS43Ii8+JiN4YTsJPHBhdGggY2xhc3M9InN0MCIgZD0iTTI5LjIsODVjLTEuMywwLTIuMy0xLTIuMy0yLjNzMS0yLjMsMi4zLTIuM3MyLjMsMSwyLjMsMi4zbDAsMEMzMS41LDg0LDMwLjQsODUsMjkuMiw4NSIvPiYjeGE7CTxwYXRoIGNsYXNzPSJzdDAiIGQ9Ik0zMi40LDg1LjljLTAuNC0wLjMtMS0wLjUtMS41LTAuNWgtMy40Yy0wLjUsMC0xLjEsMC4yLTEuNSwwLjVjLTAuNiwwLjQtMC45LDEuMS0wLjksMS44VjkwaDEuNXYtMS43ICAgYzAtMC4yLDAuMi0wLjMsMC4zLTAuM2wwLDBsMCwwYzAuMiwwLDAuMywwLjIsMC4zLDAuM2wwLDBWOTBIMzF2LTEuN2MwLTAuMiwwLjItMC4zLDAuMy0wLjNsMCwwbDAsMGMwLjIsMCwwLjMsMC4yLDAuMywwLjNsMCwwVjkwICAgaDEuNXYtMi4yQzMzLjMsODcsMzIuOSw4Ni40LDMyLjQsODUuOXoiLz4mI3hhOwk8cmVjdCB4PSIzNi41IiB5PSI4MS41IiBjbGFzcz0ic3QwIiB3aWR0aD0iMTQuNyIgaGVpZ2h0PSIxLjciLz4mI3hhOwk8cmVjdCB4PSIzNi41IiB5PSI4OC4zIiBjbGFzcz0ic3QwIiB3aWR0aD0iMTQuNyIgaGVpZ2h0PSIxLjciLz4mI3hhOwk8cmVjdCB4PSIzNi41IiB5PSI4NC45IiBjbGFzcz0ic3QwIiB3aWR0aD0iMTQuNyIgaGVpZ2h0PSIxLjciLz4mI3hhOwk8cGF0aCBjbGFzcz0ic3QwIiBkPSJNMTcuMywxMTQuN2MtMC44LDAtMS41LTAuNy0xLjUtMS41czAuNy0xLjUsMS41LTEuNXMxLjUsMC43LDEuNSwxLjVsMCwwQzE4LjgsMTE0LDE4LjEsMTE0LjcsMTcuMywxMTQuNyIvPiYjeGE7CTxwYXRoIGNsYXNzPSJzdDAiIGQ9Ik0xOS40LDExNS4zYy0wLjMtMC4yLTAuNi0wLjMtMS0wLjNoLTIuM2MtMC40LDAtMC43LDAuMS0xLDAuM2MtMC40LDAuMy0wLjYsMC43LTAuNiwxLjJ2MS41aDF2LTEuMiAgIGMwLTAuMSwwLjEtMC4yLDAuMi0wLjJsMCwwbDAsMGMwLjEsMCwwLjIsMC4xLDAuMiwwLjJsMCwwdjEuMmgyLjZ2LTEuMmMwLTAuMSwwLjEtMC4yLDAuMi0wLjJsMCwwbDAsMGMwLjEsMCwwLjIsMC4xLDAuMiwwLjJsMCwwICAgdjEuMmgxdi0xLjVDMjAsMTE2LDE5LjgsMTE1LjYsMTkuNCwxMTUuM3oiLz4mI3hhOwk8cmVjdCB4PSIyMi4yIiB5PSIxMTIuMyIgY2xhc3M9InN0MCIgd2lkdGg9IjkuOCIgaGVpZ2h0PSIxLjEiLz4mI3hhOwk8cmVjdCB4PSIyMi4yIiB5PSIxMTYuOSIgY2xhc3M9InN0MCIgd2lkdGg9IjkuOCIgaGVpZ2h0PSIxLjEiLz4mI3hhOwk8cmVjdCB4PSIyMi4yIiB5PSIxMTQuNiIgY2xhc3M9InN0MCIgd2lkdGg9IjkuOCIgaGVpZ2h0PSIxLjEiLz4mI3hhOwk8cGF0aCBjbGFzcz0ic3QwIiBkPSJNMTcuMywxMzguNWMtMC44LDAtMS41LTAuNy0xLjUtMS41czAuNy0xLjUsMS41LTEuNXMxLjUsMC43LDEuNSwxLjVTMTguMSwxMzguNSwxNy4zLDEzOC41Ii8+JiN4YTsJPHBhdGggY2xhc3M9InN0MCIgZD0iTTE5LjQsMTM5LjJjLTAuMy0wLjItMC42LTAuMy0xLTAuM2gtMi4zYy0wLjQsMC0wLjcsMC4xLTEsMC4zYy0wLjQsMC4zLTAuNiwwLjctMC42LDEuMnYxLjVoMXYtMS4yICAgYzAtMC4xLDAuMS0wLjIsMC4yLTAuMmwwLDBsMCwwYzAuMSwwLDAuMiwwLjEsMC4yLDAuMmwwLDB2MS4yaDIuNnYtMS4yYzAtMC4xLDAuMS0wLjIsMC4yLTAuMmwwLDBsMCwwYzAuMSwwLDAuMiwwLjEsMC4yLDAuMmwwLDAgICB2MS4yaDF2LTEuNUMyMCwxMzkuOSwxOS44LDEzOS40LDE5LjQsMTM5LjJ6Ii8+JiN4YTsJPHJlY3QgeD0iMjIuMiIgeT0iMTM2LjIiIGNsYXNzPSJzdDAiIHdpZHRoPSI5LjgiIGhlaWdodD0iMS4xIi8+JiN4YTsJPHJlY3QgeD0iMjIuMiIgeT0iMTQwLjciIGNsYXNzPSJzdDAiIHdpZHRoPSI5LjgiIGhlaWdodD0iMS4xIi8+JiN4YTsJPHJlY3QgeD0iMjIuMiIgeT0iMTM4LjUiIGNsYXNzPSJzdDAiIHdpZHRoPSI5LjgiIGhlaWdodD0iMS4xIi8+JiN4YTsJPHBhdGggY2xhc3M9InN0MiIgZD0iTTEyLjksMTU3LjNoMjAuN2MwLjYsMCwxLDAuNCwxLDF2OC42YzAsMC42LTAuNCwxLTEsMUgxMi45Yy0wLjYsMC0xLTAuNC0xLTF2LTguNiAgIEMxMS45LDE1Ny43LDEyLjQsMTU3LjMsMTIuOSwxNTcuM3oiLz4mI3hhOwk8bGluZSBjbGFzcz0ic3Q0IiB4MT0iMjMuMyIgeTE9IjE0NCIgeDI9IjIzLjMiIHkyPSIxNTQuMiIvPiYjeGE7CTxwb2x5Z29uIGNsYXNzPSJzdDIiIHBvaW50cz0iMjEuMiwxNTMuNiAyMy4zLDE1Ny4zIDI1LjQsMTUzLjYgICIvPiYjeGE7CTxwYXRoIGNsYXNzPSJzdDAiIGQ9Ik0xNy4zLDE2Mi40Yy0wLjgsMC0xLjUtMC43LTEuNS0xLjVzMC43LTEuNSwxLjUtMS41czEuNSwwLjcsMS41LDEuNVMxOC4xLDE2Mi40LDE3LjMsMTYyLjQiLz4mI3hhOwk8cGF0aCBjbGFzcz0ic3QwIiBkPSJNMTkuNCwxNjNjLTAuMy0wLjItMC42LTAuMy0xLTAuM2gtMi4zYy0wLjQsMC0wLjcsMC4xLTEsMC4zYy0wLjQsMC4zLTAuNiwwLjctMC42LDEuMnYxLjVoMXYtMS4yICAgYzAtMC4xLDAuMS0wLjIsMC4yLTAuMmwwLDBsMCwwYzAuMSwwLDAuMiwwLjEsMC4yLDAuMmwwLDB2MS4yaDIuNnYtMS4yYzAtMC4xLDAuMS0wLjIsMC4yLTAuMmwwLDBsMCwwYzAuMSwwLDAuMiwwLjEsMC4yLDAuMmwwLDAgICB2MS4yaDF2LTEuNUMyMCwxNjMuOCwxOS44LDE2My4zLDE5LjQsMTYzeiIvPiYjeGE7CTxyZWN0IHg9IjIyLjIiIHk9IjE2MC4xIiBjbGFzcz0ic3QwIiB3aWR0aD0iOS44IiBoZWlnaHQ9IjEuMSIvPiYjeGE7CTxyZWN0IHg9IjIyLjIiIHk9IjE2NC42IiBjbGFzcz0ic3QwIiB3aWR0aD0iOS44IiBoZWlnaHQ9IjEuMSIvPiYjeGE7CTxyZWN0IHg9IjIyLjIiIHk9IjE2Mi40IiBjbGFzcz0ic3QwIiB3aWR0aD0iOS44IiBoZWlnaHQ9IjEuMSIvPiYjeGE7CTxwYXRoIGNsYXNzPSJzdDYiIGQ9Ik03OS4xLDEzOC41Yy0wLjgsMC0xLjUtMC43LTEuNS0xLjVzMC43LTEuNSwxLjUtMS41czEuNSwwLjcsMS41LDEuNVM3OS45LDEzOC41LDc5LjEsMTM4LjUiLz4mI3hhOwk8cGF0aCBjbGFzcz0ic3Q2IiBkPSJNODEuMiwxMzkuMmMtMC4zLTAuMi0wLjYtMC4zLTEtMC4zaC0yLjNjLTAuNCwwLTAuNywwLjEtMSwwLjNjLTAuNCwwLjMtMC42LDAuNy0wLjYsMS4ydjEuNWgxdi0xLjIgICBjMC0wLjEsMC4xLTAuMiwwLjItMC4ybDAsMGwwLDBjMC4xLDAsMC4yLDAuMSwwLjIsMC4ybDAsMHYxLjJoMi42di0xLjJjMC0wLjEsMC4xLTAuMiwwLjItMC4ybDAsMGwwLDBjMC4xLDAsMC4yLDAuMSwwLjIsMC4ybDAsMCAgIHYxLjJoMXYtMS41QzgxLjgsMTM5LjksODEuNiwxMzkuNCw4MS4yLDEzOS4yeiIvPiYjeGE7CTxyZWN0IHg9Ijg0IiB5PSIxMzYuMiIgY2xhc3M9InN0NiIgd2lkdGg9IjkuOCIgaGVpZ2h0PSIxLjEiLz4mI3hhOwk8cmVjdCB4PSI4NCIgeT0iMTQwLjciIGNsYXNzPSJzdDYiIHdpZHRoPSI5LjgiIGhlaWdodD0iMS4xIi8+JiN4YTsJPHJlY3QgeD0iODQiIHk9IjEzOC41IiBjbGFzcz0ic3Q2IiB3aWR0aD0iOS44IiBoZWlnaHQ9IjEuMSIvPiYjeGE7CTxwYXRoIGNsYXNzPSJzdDYiIGQ9Ik0xMDguOCwxMzguNWMtMC44LDAtMS41LTAuNy0xLjUtMS41czAuNy0xLjUsMS41LTEuNXMxLjUsMC43LDEuNSwxLjVTMTA5LjYsMTM4LjUsMTA4LjgsMTM4LjUiLz4mI3hhOwk8cGF0aCBjbGFzcz0ic3Q2IiBkPSJNMTEwLjksMTM5LjJjLTAuMy0wLjItMC42LTAuMy0xLTAuM2gtMi4zYy0wLjQsMC0wLjcsMC4xLTEsMC4zYy0wLjQsMC4zLTAuNiwwLjctMC42LDEuMnYxLjVoMXYtMS4yICAgYzAtMC4xLDAuMS0wLjIsMC4yLTAuMmwwLDBsMCwwYzAuMSwwLDAuMiwwLjEsMC4yLDAuMmwwLDB2MS4yaDIuNnYtMS4yYzAtMC4xLDAuMS0wLjIsMC4yLTAuMmwwLDBsMCwwYzAuMSwwLDAuMiwwLjEsMC4yLDAuMmwwLDAgICB2MS4yaDF2LTEuNUMxMTEuNSwxMzkuOSwxMTEuMywxMzkuNCwxMTAuOSwxMzkuMnoiLz4mI3hhOwk8cmVjdCB4PSIxMTMuNyIgeT0iMTM2LjIiIGNsYXNzPSJzdDYiIHdpZHRoPSI5LjgiIGhlaWdodD0iMS4xIi8+JiN4YTsJPHJlY3QgeD0iMTEzLjciIHk9IjE0MC43IiBjbGFzcz0ic3Q2IiB3aWR0aD0iOS44IiBoZWlnaHQ9IjEuMSIvPiYjeGE7CTxyZWN0IHg9IjExMy43IiB5PSIxMzguNSIgY2xhc3M9InN0NiIgd2lkdGg9IjkuOCIgaGVpZ2h0PSIxLjEiLz4mI3hhOwk8cGF0aCBjbGFzcz0ic3QxIiBkPSJNMTA0LjUsMTU3LjJoMjAuN2MwLjYsMCwxLDAuNCwxLDF2OC42YzAsMC42LTAuNCwxLTEsMWgtMjAuN2MtMC42LDAtMS0wLjQtMS0xdi04LjYgICBDMTAzLjUsMTU3LjcsMTAzLjksMTU3LjIsMTA0LjUsMTU3LjJ6Ii8+JiN4YTsJPGxpbmUgY2xhc3M9InN0MyIgeDE9IjExNC44IiB5MT0iMTQzLjkiIHgyPSIxMTQuOCIgeTI9IjE1NC4yIi8+JiN4YTsJPHBvbHlnb24gY2xhc3M9InN0MSIgcG9pbnRzPSIxMTIuNywxNTMuNiAxMTQuOCwxNTcuMiAxMTYuOSwxNTMuNiAgIi8+JiN4YTsJPHBhdGggY2xhc3M9InN0NiIgZD0iTTEwOC44LDE2Mi40Yy0wLjgsMC0xLjUtMC43LTEuNS0xLjVzMC43LTEuNSwxLjUtMS41czEuNSwwLjcsMS41LDEuNVMxMDkuNiwxNjIuNCwxMDguOCwxNjIuNCIvPiYjeGE7CTxwYXRoIGNsYXNzPSJzdDYiIGQ9Ik0xMTAuOSwxNjNjLTAuMy0wLjItMC42LTAuMy0xLTAuM2gtMi4zYy0wLjQsMC0wLjcsMC4xLTEsMC4zYy0wLjQsMC4zLTAuNiwwLjctMC42LDEuMnYxLjVoMXYtMS4yICAgYzAtMC4xLDAuMS0wLjIsMC4yLTAuMmwwLDBsMCwwYzAuMSwwLDAuMiwwLjEsMC4yLDAuMmwwLDB2MS4yaDIuNnYtMS4yYzAtMC4xLDAuMS0wLjIsMC4yLTAuMmwwLDBsMCwwYzAuMSwwLDAuMiwwLjEsMC4yLDAuMmwwLDAgICB2MS4yaDF2LTEuNUMxMTEuNSwxNjMuNywxMTEuMywxNjMuMywxMTAuOSwxNjN6Ii8+JiN4YTsJPHJlY3QgeD0iMTEzLjciIHk9IjE2MC4xIiBjbGFzcz0ic3Q2IiB3aWR0aD0iOS44IiBoZWlnaHQ9IjEuMSIvPiYjeGE7CTxyZWN0IHg9IjExMy43IiB5PSIxNjQuNiIgY2xhc3M9InN0NiIgd2lkdGg9IjkuOCIgaGVpZ2h0PSIxLjEiLz4mI3hhOwk8cmVjdCB4PSIxMTMuNyIgeT0iMTYyLjMiIGNsYXNzPSJzdDYiIHdpZHRoPSI5LjgiIGhlaWdodD0iMS4xIi8+JiN4YTsJPHBhdGggY2xhc3M9InN0MCIgZD0iTTE0MC45LDEzOC41Yy0wLjgsMC0xLjUtMC43LTEuNS0xLjVzMC43LTEuNSwxLjUtMS41czEuNSwwLjcsMS41LDEuNVMxNDEuNywxMzguNSwxNDAuOSwxMzguNSIvPiYjeGE7CTxwYXRoIGNsYXNzPSJzdDAiIGQ9Ik0xNDMsMTM5LjJjLTAuMy0wLjItMC42LTAuMy0xLTAuM2gtMi4zYy0wLjQsMC0wLjcsMC4xLTEsMC4zYy0wLjQsMC4zLTAuNiwwLjctMC42LDEuMnYxLjVoMXYtMS4yICAgYzAtMC4xLDAuMS0wLjIsMC4yLTAuMmwwLDBsMCwwYzAuMSwwLDAuMiwwLjEsMC4yLDAuMmwwLDB2MS4yaDIuNnYtMS4yYzAtMC4xLDAuMS0wLjIsMC4yLTAuMmwwLDBsMCwwYzAuMSwwLDAuMiwwLjEsMC4yLDAuMmwwLDAgICB2MS4yaDF2LTEuNUMxNDMuNiwxMzkuOSwxNDMuNCwxMzkuNCwxNDMsMTM5LjJ6Ii8+JiN4YTsJPHJlY3QgeD0iMTQ1LjgiIHk9IjEzNi4yIiBjbGFzcz0ic3QwIiB3aWR0aD0iOS44IiBoZWlnaHQ9IjEuMSIvPiYjeGE7CTxyZWN0IHg9IjE0NS44IiB5PSIxNDAuNyIgY2xhc3M9InN0MCIgd2lkdGg9IjkuOCIgaGVpZ2h0PSIxLjEiLz4mI3hhOwk8cmVjdCB4PSIxNDUuOCIgeT0iMTM4LjUiIGNsYXNzPSJzdDAiIHdpZHRoPSI5LjgiIGhlaWdodD0iMS4xIi8+JiN4YTsJPHBhdGggY2xhc3M9InN0MCIgZD0iTTQ3LDExNC43Yy0wLjgsMC0xLjUtMC43LTEuNS0xLjVzMC43LTEuNSwxLjUtMS41czEuNSwwLjcsMS41LDEuNWwwLDBDNDguNSwxMTQsNDcuOCwxMTQuNyw0NywxMTQuNyIvPiYjeGE7CTxwYXRoIGNsYXNzPSJzdDAiIGQ9Ik00OS4xLDExNS4zYy0wLjMtMC4yLTAuNi0wLjMtMS0wLjNoLTIuM2MtMC40LDAtMC43LDAuMS0xLDAuM2MtMC40LDAuMy0wLjYsMC43LTAuNiwxLjJ2MS41aDF2LTEuMiAgIGMwLTAuMSwwLjEtMC4yLDAuMi0wLjJsMCwwbDAsMGMwLjEsMCwwLjIsMC4xLDAuMiwwLjJsMCwwdjEuMmgyLjZ2LTEuMmMwLTAuMSwwLjEtMC4yLDAuMi0wLjJsMCwwbDAsMGMwLjEsMCwwLjIsMC4xLDAuMiwwLjJsMCwwICAgdjEuMmgxdi0xLjVDNDkuNywxMTYsNDkuNSwxMTUuNiw0OS4xLDExNS4zeiIvPiYjeGE7CTxyZWN0IHg9IjUxLjkiIHk9IjExMi4zIiBjbGFzcz0ic3QwIiB3aWR0aD0iOS44IiBoZWlnaHQ9IjEuMSIvPiYjeGE7CTxyZWN0IHg9IjUxLjkiIHk9IjExNi45IiBjbGFzcz0ic3QwIiB3aWR0aD0iOS44IiBoZWlnaHQ9IjEuMSIvPiYjeGE7CTxyZWN0IHg9IjUxLjkiIHk9IjExNC42IiBjbGFzcz0ic3QwIiB3aWR0aD0iOS44IiBoZWlnaHQ9IjEuMSIvPiYjeGE7CTxwYXRoIGNsYXNzPSJzdDYiIGQ9Ik03OS4xLDExNC43Yy0wLjgsMC0xLjUtMC43LTEuNS0xLjVzMC43LTEuNSwxLjUtMS41czEuNSwwLjcsMS41LDEuNWwwLDBDODAuNiwxMTQsNzkuOSwxMTQuNyw3OS4xLDExNC43Ii8+JiN4YTsJPHBhdGggY2xhc3M9InN0NiIgZD0iTTgxLjIsMTE1LjNjLTAuMy0wLjItMC42LTAuMy0xLTAuM2gtMi4zYy0wLjQsMC0wLjcsMC4xLTEsMC4zYy0wLjQsMC4zLTAuNiwwLjctMC42LDEuMnYxLjVoMXYtMS4yICAgYzAtMC4xLDAuMS0wLjIsMC4yLTAuMmwwLDBsMCwwYzAuMSwwLDAuMiwwLjEsMC4yLDAuMmwwLDB2MS4yaDIuNnYtMS4yYzAtMC4xLDAuMS0wLjIsMC4yLTAuMmwwLDBsMCwwYzAuMSwwLDAuMiwwLjEsMC4yLDAuMmwwLDAgICB2MS4yaDF2LTEuNUM4MS44LDExNiw4MS42LDExNS42LDgxLjIsMTE1LjN6Ii8+JiN4YTsJPHJlY3QgeD0iODQiIHk9IjExMi4zIiBjbGFzcz0ic3Q2IiB3aWR0aD0iOS44IiBoZWlnaHQ9IjEuMSIvPiYjeGE7CTxyZWN0IHg9Ijg0IiB5PSIxMTYuOSIgY2xhc3M9InN0NiIgd2lkdGg9IjkuOCIgaGVpZ2h0PSIxLjEiLz4mI3hhOwk8cmVjdCB4PSI4NCIgeT0iMTE0LjYiIGNsYXNzPSJzdDYiIHdpZHRoPSI5LjgiIGhlaWdodD0iMS4xIi8+JiN4YTsJPHBhdGggY2xhc3M9InN0NiIgZD0iTTEwOC44LDExNC43Yy0wLjgsMC0xLjUtMC43LTEuNS0xLjVzMC43LTEuNSwxLjUtMS41czEuNSwwLjcsMS41LDEuNWwwLDBDMTEwLjMsMTE0LDEwOS42LDExNC43LDEwOC44LDExNC43Ii8+JiN4YTsJPHBhdGggY2xhc3M9InN0NiIgZD0iTTExMC45LDExNS4zYy0wLjMtMC4yLTAuNi0wLjMtMS0wLjNoLTIuM2MtMC40LDAtMC43LDAuMS0xLDAuM2MtMC40LDAuMy0wLjYsMC43LTAuNiwxLjJ2MS41aDF2LTEuMiAgIGMwLTAuMSwwLjEtMC4yLDAuMi0wLjJsMCwwbDAsMGMwLjEsMCwwLjIsMC4xLDAuMiwwLjJsMCwwdjEuMmgyLjZ2LTEuMmMwLTAuMSwwLjEtMC4yLDAuMi0wLjJsMCwwbDAsMGMwLjEsMCwwLjIsMC4xLDAuMiwwLjJsMCwwICAgdjEuMmgxdi0xLjVDMTExLjUsMTE2LDExMS4zLDExNS42LDExMC45LDExNS4zeiIvPiYjeGE7CTxyZWN0IHg9IjExMy43IiB5PSIxMTIuMyIgY2xhc3M9InN0NiIgd2lkdGg9IjkuOCIgaGVpZ2h0PSIxLjEiLz4mI3hhOwk8cmVjdCB4PSIxMTMuNyIgeT0iMTE2LjkiIGNsYXNzPSJzdDYiIHdpZHRoPSI5LjgiIGhlaWdodD0iMS4xIi8+JiN4YTsJPHJlY3QgeD0iMTEzLjciIHk9IjExNC42IiBjbGFzcz0ic3Q2IiB3aWR0aD0iOS44IiBoZWlnaHQ9IjEuMSIvPiYjeGE7CTxwYXRoIGNsYXNzPSJzdDAiIGQ9Ik0xNDAuOSwxMTQuN2MtMC44LDAtMS41LTAuNy0xLjUtMS41czAuNy0xLjUsMS41LTEuNXMxLjUsMC43LDEuNSwxLjVTMTQxLjcsMTE0LjcsMTQwLjksMTE0LjciLz4mI3hhOwk8cGF0aCBjbGFzcz0ic3QwIiBkPSJNMTQzLDExNS4zYy0wLjMtMC4yLTAuNi0wLjMtMS0wLjNoLTIuM2MtMC40LDAtMC43LDAuMS0xLDAuM2MtMC40LDAuMy0wLjYsMC43LTAuNiwxLjJ2MS41aDF2LTEuMiAgIGMwLTAuMSwwLjEtMC4yLDAuMi0wLjJsMCwwbDAsMGMwLjEsMCwwLjIsMC4xLDAuMiwwLjJsMCwwdjEuMmgyLjZ2LTEuMmMwLTAuMSwwLjEtMC4yLDAuMi0wLjJsMCwwbDAsMGMwLjEsMCwwLjIsMC4xLDAuMiwwLjJsMCwwICAgdjEuMmgxdi0xLjVDMTQzLjYsMTE2LDE0My40LDExNS42LDE0MywxMTUuM3oiLz4mI3hhOwk8cmVjdCB4PSIxNDUuOCIgeT0iMTEyLjMiIGNsYXNzPSJzdDAiIHdpZHRoPSI5LjgiIGhlaWdodD0iMS4xIi8+JiN4YTsJPHJlY3QgeD0iMTQ1LjgiIHk9IjExNi45IiBjbGFzcz0ic3QwIiB3aWR0aD0iOS44IiBoZWlnaHQ9IjEuMSIvPiYjeGE7CTxyZWN0IHg9IjE0NS44IiB5PSIxMTQuNiIgY2xhc3M9InN0MCIgd2lkdGg9IjkuOCIgaGVpZ2h0PSIxLjEiLz4mI3hhOwk8cGF0aCBjbGFzcz0ic3QwIiBkPSJNMTcwLjcsMTE0LjdjLTAuOCwwLTEuNS0wLjctMS41LTEuNXMwLjctMS41LDEuNS0xLjVzMS41LDAuNywxLjUsMS41UzE3MS41LDExNC43LDE3MC43LDExNC43Ii8+JiN4YTsJPHBhdGggY2xhc3M9InN0MCIgZD0iTTE3Mi44LDExNS4zYy0wLjMtMC4yLTAuNi0wLjMtMS0wLjNoLTIuM2MtMC40LDAtMC43LDAuMS0xLDAuM2MtMC40LDAuMy0wLjYsMC43LTAuNiwxLjJ2MS41aDF2LTEuMiAgIGMwLTAuMSwwLjEtMC4yLDAuMi0wLjJsMCwwbDAsMGMwLjEsMCwwLjIsMC4xLDAuMiwwLjJsMCwwdjEuMmgyLjZ2LTEuMmMwLTAuMSwwLjEtMC4yLDAuMi0wLjJsMCwwbDAsMGMwLjEsMCwwLjIsMC4xLDAuMiwwLjJsMCwwICAgdjEuMmgxdi0xLjVDMTczLjQsMTE2LDE3My4yLDExNS42LDE3Mi44LDExNS4zeiIvPiYjeGE7CTxyZWN0IHg9IjE3NS42IiB5PSIxMTIuMyIgY2xhc3M9InN0MCIgd2lkdGg9IjkuOCIgaGVpZ2h0PSIxLjEiLz4mI3hhOwk8cmVjdCB4PSIxNzUuNiIgeT0iMTE2LjkiIGNsYXNzPSJzdDAiIHdpZHRoPSI5LjgiIGhlaWdodD0iMS4xIi8+JiN4YTsJPHJlY3QgeD0iMTc1LjYiIHk9IjExNC42IiBjbGFzcz0ic3QwIiB3aWR0aD0iOS44IiBoZWlnaHQ9IjEuMSIvPiYjeGE7CTxwYXRoIGNsYXNzPSJzdDIiIGQ9Ik0xNjYuMywxMzMuNEgxODdjMC42LDAsMSwwLjQsMSwxdjguNmMwLDAuNi0wLjQsMS0xLDFoLTIwLjdjLTAuNiwwLTEtMC40LTEtMXYtOC42ICAgQzE2NS4zLDEzMy45LDE2NS43LDEzMy40LDE2Ni4zLDEzMy40eiIvPiYjeGE7CTxwYXRoIGNsYXNzPSJzdDIiIGQ9Ik0xMzYuNiwxNTcuM2gyMC43YzAuNiwwLDEsMC40LDEsMXY4LjZjMCwwLjYtMC40LDEtMSwxaC0yMC43Yy0wLjYsMC0xLTAuNC0xLTF2LTguNiAgIEMxMzUuNiwxNTcuNywxMzYsMTU3LjMsMTM2LjYsMTU3LjN6Ii8+JiN4YTsJPGxpbmUgY2xhc3M9InN0NCIgeDE9IjE0Ni45IiB5MT0iMTQ0IiB4Mj0iMTQ2LjkiIHkyPSIxNTQuMyIvPiYjeGE7CTxwb2x5Z29uIGNsYXNzPSJzdDIiIHBvaW50cz0iMTQ0LjgsMTUzLjcgMTQ2LjksMTU3LjMgMTQ5LDE1My43ICAiLz4mI3hhOwk8cGF0aCBjbGFzcz0ic3QwIiBkPSJNMTQwLjksMTYyLjRjLTAuOCwwLTEuNS0wLjctMS41LTEuNXMwLjctMS41LDEuNS0xLjVzMS41LDAuNywxLjUsMS41QzE0Mi40LDE2MS44LDE0MS43LDE2Mi40LDE0MC45LDE2Mi40Ii8+JiN4YTsJPHBhdGggY2xhc3M9InN0MCIgZD0iTTE0MywxNjMuMWMtMC4zLTAuMi0wLjYtMC4zLTEtMC4zaC0yLjNjLTAuNCwwLTAuNywwLjEtMSwwLjNjLTAuNCwwLjMtMC42LDAuNy0wLjYsMS4ydjEuNWgxdi0xLjIgICBjMC0wLjEsMC4xLTAuMiwwLjItMC4ybDAsMGwwLDBjMC4xLDAsMC4yLDAuMSwwLjIsMC4ybDAsMHYxLjJoMi42di0xLjJjMC0wLjEsMC4xLTAuMiwwLjItMC4ybDAsMGwwLDBjMC4xLDAsMC4yLDAuMSwwLjIsMC4ybDAsMCAgIHYxLjJoMXYtMS41QzE0My42LDE2My44LDE0My40LDE2My40LDE0MywxNjMuMXoiLz4mI3hhOwk8cmVjdCB4PSIxNDUuOCIgeT0iMTYwLjEiIGNsYXNzPSJzdDAiIHdpZHRoPSI5LjgiIGhlaWdodD0iMS4xIi8+JiN4YTsJPHJlY3QgeD0iMTQ1LjgiIHk9IjE2NC42IiBjbGFzcz0ic3QwIiB3aWR0aD0iOS44IiBoZWlnaHQ9IjEuMSIvPiYjeGE7CTxyZWN0IHg9IjE0NS44IiB5PSIxNjIuNCIgY2xhc3M9InN0MCIgd2lkdGg9IjkuOCIgaGVpZ2h0PSIxLjEiLz4mI3hhOwk8cGF0aCBjbGFzcz0ic3QwIiBkPSJNMTUyLjgsODVjLTEuMywwLTIuMy0xLTIuMy0yLjNzMS0yLjMsMi4zLTIuM3MyLjMsMSwyLjMsMi4zbDAsMEMxNTUuMSw4NCwxNTQsODUsMTUyLjgsODUiLz4mI3hhOwk8cGF0aCBjbGFzcz0ic3QwIiBkPSJNMTU2LDg1LjljLTAuNC0wLjMtMS0wLjUtMS41LTAuNWgtMy40Yy0wLjUsMC0xLjEsMC4yLTEuNSwwLjVjLTAuNiwwLjQtMC45LDEuMS0wLjksMS44VjkwaDEuNXYtMS43ICAgYzAtMC4yLDAuMi0wLjMsMC4zLTAuM2wwLDBsMCwwYzAuMiwwLDAuMywwLjIsMC4zLDAuM2wwLDBWOTBoMy44di0xLjdjMC0wLjIsMC4yLTAuMywwLjMtMC4zbDAsMGwwLDBjMC4yLDAsMC4zLDAuMiwwLjMsMC4zbDAsMCAgIFY5MGgxLjV2LTIuMkMxNTYuOSw4NywxNTYuNSw4Ni40LDE1Niw4NS45eiIvPiYjeGE7CTxyZWN0IHg9IjE2MC4xIiB5PSI4MS41IiBjbGFzcz0ic3QwIiB3aWR0aD0iMTQuNyIgaGVpZ2h0PSIxLjciLz4mI3hhOwk8cmVjdCB4PSIxNjAuMSIgeT0iODguMyIgY2xhc3M9InN0MCIgd2lkdGg9IjE0LjciIGhlaWdodD0iMS43Ii8+JiN4YTsJPHJlY3QgeD0iMTYwLjEiIHk9Ijg0LjkiIGNsYXNzPSJzdDAiIHdpZHRoPSIxNC43IiBoZWlnaHQ9IjEuNyIvPiYjeGE7CTxwYXRoIGNsYXNzPSJzdDAiIGQ9Ik0xNzAuNywxMzguOWMtMC44LDAtMS41LTAuNy0xLjUtMS41czAuNy0xLjUsMS41LTEuNXMxLjUsMC43LDEuNSwxLjVTMTcxLjUsMTM4LjksMTcwLjcsMTM4LjkiLz4mI3hhOwk8cGF0aCBjbGFzcz0ic3QwIiBkPSJNMTcyLjgsMTM5LjVjLTAuMy0wLjItMC42LTAuMy0xLTAuM2gtMi4zYy0wLjQsMC0wLjcsMC4xLTEsMC4zYy0wLjQsMC4zLTAuNiwwLjctMC42LDEuMnYxLjVoMVYxNDEgICBjMC0wLjEsMC4xLTAuMiwwLjItMC4ybDAsMGwwLDBjMC4xLDAsMC4yLDAuMSwwLjIsMC4ybDAsMHYxLjJoMi42VjE0MWMwLTAuMSwwLjEtMC4yLDAuMi0wLjJsMCwwbDAsMGMwLjEsMCwwLjIsMC4xLDAuMiwwLjJsMCwwICAgdjEuMmgxdi0xLjVDMTczLjQsMTQwLjIsMTczLjIsMTM5LjgsMTcyLjgsMTM5LjV6Ii8+JiN4YTsJPHJlY3QgeD0iMTc1LjYiIHk9IjEzNi41IiBjbGFzcz0ic3QwIiB3aWR0aD0iOS44IiBoZWlnaHQ9IjEuMSIvPiYjeGE7CTxyZWN0IHg9IjE3NS42IiB5PSIxNDEuMSIgY2xhc3M9InN0MCIgd2lkdGg9IjkuOCIgaGVpZ2h0PSIxLjEiLz4mI3hhOwk8cmVjdCB4PSIxNzUuNiIgeT0iMTM4LjgiIGNsYXNzPSJzdDAiIHdpZHRoPSI5LjgiIGhlaWdodD0iMS4xIi8+JiN4YTs8L2c+JiN4YTs8L3N2Zz4=;" parent="1" vertex="1">
          <mxGeometry x="1316" y="1151" width="276" height="276" as="geometry" />
        </mxCell>
        <mxCell id="948" value="&lt;p style=&quot;line-height: 160%&quot;&gt;&lt;font style=&quot;font-size: 15px ; line-height: 170%&quot; color=&quot;#444444&quot;&gt;The world is becoming more visual&lt;br&gt;and time poor. We are bombarded&lt;br&gt;with an ever increasing mountain&lt;br&gt;of information, and we are pressu-&lt;br&gt;red to spend less attention and&lt;br&gt;time on taking everything in. We&lt;br&gt;skim and scan our way through&lt;br&gt;documentation, missing a lot of&lt;br&gt;detail in the process.&lt;/font&gt;&lt;/p&gt;" style="text;resizable=0;points=[];autosize=1;align=left;verticalAlign=top;spacingTop=-4;fontSize=15;fontFamily=Verdana;html=1;fontColor=#444444;" parent="1" vertex="1">
          <mxGeometry x="1324" y="779" width="280" height="260" as="geometry" />
        </mxCell>
        <mxCell id="949" value="&lt;font color=&quot;#444444&quot; style=&quot;font-size: 25px ; line-height: 130%&quot;&gt;WE DON&#39;T HAVE&lt;br&gt;TIME TO READ&lt;/font&gt;" style="text;html=1;resizable=0;points=[];autosize=1;align=left;verticalAlign=top;spacingTop=-4;fontSize=14;fontFamily=Verdana;" parent="1" vertex="1">
          <mxGeometry x="1324" y="710" width="220" height="70" as="geometry" />
        </mxCell>
        <mxCell id="950" value="&lt;p style=&quot;line-height: 170%&quot;&gt;&lt;font color=&quot;#444444&quot;&gt;Approximately 60% of us think&lt;br&gt;visually&amp;nbsp;- we see a series of pictu-&lt;br&gt;res instead of words in our minds.&lt;br&gt;The human brain perceives diffe-&lt;br&gt;rences between images more&lt;br&gt;quickly, and ensures&amp;nbsp;we&lt;br&gt;remember graphics more easily&lt;br&gt;and thoroughly than written text.&lt;br&gt;&lt;/font&gt;&lt;br&gt;&lt;/p&gt;" style="text;resizable=0;points=[];autosize=1;align=left;verticalAlign=top;spacingTop=-4;fontSize=15;fontFamily=Verdana;html=1;" parent="1" vertex="1">
          <mxGeometry x="1634" y="780" width="270" height="260" as="geometry" />
        </mxCell>
        <mxCell id="951" value="&lt;font style=&quot;font-size: 25px&quot;&gt;MOST PEOPLE&amp;nbsp;&lt;br&gt;LEARN VISUALLY&lt;/font&gt;" style="text;html=1;resizable=0;points=[];autosize=1;align=left;verticalAlign=top;spacingTop=-4;fontSize=14;fontFamily=Verdana;fontColor=#444444;" parent="1" vertex="1">
          <mxGeometry x="1634" y="713" width="230" height="40" as="geometry" />
        </mxCell>
        <mxCell id="952" value="&lt;font style=&quot;font-size: 25px&quot;&gt;VISUAL IQ IS&lt;br&gt;INCREASING&lt;/font&gt;" style="text;html=1;resizable=0;points=[];autosize=1;align=left;verticalAlign=top;spacingTop=-4;fontSize=14;fontFamily=Verdana;fontColor=#444444;" parent="1" vertex="1">
          <mxGeometry x="1942" y="712" width="180" height="40" as="geometry" />
        </mxCell>
        <mxCell id="953" value="&lt;p style=&quot;line-height: 170%&quot;&gt;&lt;font color=&quot;#444444&quot;&gt;Our visual IQ is increasing&amp;nbsp;more&lt;br&gt;rapidly than our general IQ - we&lt;br&gt;are getting better at recognizing&lt;br&gt;patterns. It is unclear though&lt;br&gt;whether this is the driving force&lt;br&gt;behind the rising popularity of&lt;br&gt;diagrams, or as a result of being&lt;br&gt;increasingly surrounded by&lt;br&gt;diagrams. &amp;nbsp;&lt;/font&gt;&lt;/p&gt;" style="text;resizable=0;points=[];autosize=1;align=left;verticalAlign=top;spacingTop=-4;fontSize=15;fontFamily=Verdana;html=1;" parent="1" vertex="1">
          <mxGeometry x="1942" y="779" width="260" height="260" as="geometry" />
        </mxCell>
        <mxCell id="954" value="&lt;font color=&quot;#fce7cd&quot;&gt;&lt;span style=&quot;font-size: 25px ; line-height: 30px&quot;&gt;DIAGRAMS CONVEY COMPLEX&lt;/span&gt;&lt;/font&gt;&lt;div&gt;&lt;font color=&quot;#fce7cd&quot;&gt;&lt;span style=&quot;font-size: 25px ; line-height: 30px&quot;&gt;INFORMATION&lt;/span&gt;&lt;/font&gt;&lt;/div&gt;" style="text;html=1;resizable=0;points=[];autosize=1;align=left;verticalAlign=top;spacingTop=-4;fontSize=14;fontFamily=Verdana;fontColor=#444444;" parent="1" vertex="1">
          <mxGeometry x="1634" y="1170" width="400" height="60" as="geometry" />
        </mxCell>
        <mxCell id="955" value="&lt;p style=&quot;line-height: 170%&quot;&gt;&lt;font color=&quot;#fce7cd&quot;&gt;Imagine trying to convey an organization’s management hierarchy with pure&lt;br&gt;text, or describe a complex business process with many decision points&lt;br&gt;without any supporting graphics. Even trying to explain a circuit board layout&lt;br&gt;or a simple room layout using only text sounds like a nightmare.&lt;br&gt;&lt;/font&gt;&lt;br&gt;&lt;/p&gt;" style="text;resizable=0;points=[];autosize=1;align=left;verticalAlign=top;spacingTop=-4;fontSize=15;fontFamily=Verdana;html=1;" parent="1" vertex="1">
          <mxGeometry x="1634" y="1239" width="600" height="160" as="geometry" />
        </mxCell>
        <mxCell id="956" value="&lt;p style=&quot;line-height: 170%&quot;&gt;&lt;font color=&quot;#fce7cd&quot;&gt;Businesses are quickly becoming technically,&amp;nbsp;procedurally, and organizational-&lt;br&gt;ly more complex.&amp;nbsp;Visualization is a great tool for communicating dense and&lt;br&gt;complex information quickly.&lt;/font&gt;&lt;br&gt;&lt;/p&gt;" style="text;resizable=0;points=[];autosize=1;align=left;verticalAlign=top;spacingTop=-4;fontSize=15;fontFamily=Verdana;html=1;" parent="1" vertex="1">
          <mxGeometry x="1634" y="1363" width="610" height="110" as="geometry" />
        </mxCell>
        <mxCell id="957" value="&lt;font style=&quot;font-size: 95px&quot;&gt;&lt;b style=&quot;background-color: rgb(255 , 255 , 255)&quot;&gt;WHY DIAGRAMS&lt;/b&gt;&lt;/font&gt;" style="text;html=1;resizable=0;points=[];autosize=1;align=left;verticalAlign=top;spacingTop=-4;fontSize=14;fontFamily=Verdana;fontColor=#444444;labelBackgroundColor=none;" parent="1" vertex="1">
          <mxGeometry x="1324" y="257" width="890" height="50" as="geometry" />
        </mxCell>
        <mxCell id="958" value="ARE IMPORTANT" style="text;html=1;resizable=0;points=[];autosize=1;align=left;verticalAlign=top;spacingTop=-4;fontSize=60;fontFamily=Verdana;fontColor=#444444;" parent="1" vertex="1">
          <mxGeometry x="1324" y="385" width="130" height="20" as="geometry" />
        </mxCell>
        <mxCell id="959" value="&lt;p style=&quot;line-height: 170%&quot;&gt;&lt;br&gt;&lt;/p&gt;" style="text;resizable=0;points=[];autosize=1;align=left;verticalAlign=top;spacingTop=-4;fontSize=15;fontFamily=Verdana;html=1;" parent="1" vertex="1">
          <mxGeometry x="1454" y="1664" width="20" height="60" as="geometry" />
        </mxCell>
        <mxCell id="960" value="&lt;p style=&quot;line-height: 170%&quot;&gt;Present training or on-boarding&lt;br&gt;material visually, in additional to&lt;br&gt;traditional reports and presenta-&lt;br&gt;tions. New employees will be&lt;br&gt;ready to be a productive part of&lt;br&gt;their teams more quickly, and&lt;br&gt;training courses will be more&lt;br&gt;successful.&lt;/p&gt;" style="text;resizable=0;points=[];autosize=1;align=left;verticalAlign=top;spacingTop=-4;fontSize=15;fontFamily=Verdana;fontColor=#BBBBBB;html=1;" parent="1" vertex="1">
          <mxGeometry x="1324" y="1988" width="260" height="230" as="geometry" />
        </mxCell>
        <mxCell id="961" value="&lt;p style=&quot;line-height: 170%&quot;&gt;Use your employees&#39; improved&lt;br&gt;spatial reasoning to solve a wide&lt;br&gt;range of problems and to design&lt;br&gt;better processes, structures, and&lt;br&gt;workflows to improve your com-&lt;br&gt;pany&#39;s productivity.&lt;br&gt;&lt;/p&gt;" style="text;resizable=0;points=[];autosize=1;align=left;verticalAlign=top;spacingTop=-4;fontSize=15;fontFamily=Verdana;fontColor=#BBBBBB;html=1;" parent="1" vertex="1">
          <mxGeometry x="1635" y="1988" width="270" height="180" as="geometry" />
        </mxCell>
        <mxCell id="962" value="&lt;p style=&quot;line-height: 170%&quot;&gt;Workplaces are becoming more&lt;br&gt;distributed, and teams are beco-&lt;br&gt;ming increasingly&amp;nbsp;multi-lingual.&lt;br&gt;Diagrams get around the language&lt;br&gt;barriers that are a big drain on&lt;br&gt;productivity.&lt;br&gt;&lt;br&gt;&lt;/p&gt;" style="text;resizable=0;points=[];autosize=1;align=left;verticalAlign=top;spacingTop=-4;fontSize=15;fontFamily=Verdana;fontColor=#BBBBBB;html=1;" parent="1" vertex="1">
          <mxGeometry x="1942" y="1988" width="280" height="210" as="geometry" />
        </mxCell>
        <mxCell id="963" value="&lt;font color=&quot;#bbbbbb&quot;&gt;&lt;span style=&quot;font-size: 25px ; line-height: 30px&quot;&gt;AVOID LANGUAGE&lt;/span&gt;&lt;/font&gt;&lt;div&gt;&lt;font color=&quot;#bbbbbb&quot;&gt;&lt;span style=&quot;font-size: 25px ; line-height: 30px&quot;&gt;BARRIERS&lt;/span&gt;&lt;/font&gt;&lt;/div&gt;" style="text;html=1;resizable=0;points=[];autosize=1;align=left;verticalAlign=top;spacingTop=-4;fontSize=14;fontFamily=Verdana;fontColor=#444444;" parent="1" vertex="1">
          <mxGeometry x="1942" y="1921" width="250" height="60" as="geometry" />
        </mxCell>
        <mxCell id="964" value="&lt;font color=&quot;#bbbbbb&quot;&gt;&lt;span style=&quot;font-size: 25px ; line-height: 30px&quot;&gt;TAP INTO OUR IM-&lt;br&gt;PROVED VISUAL IQ&lt;/span&gt;&lt;/font&gt;" style="text;html=1;resizable=0;points=[];autosize=1;align=left;verticalAlign=top;spacingTop=-4;fontSize=14;fontFamily=Verdana;fontColor=#444444;" parent="1" vertex="1">
          <mxGeometry x="1634" y="1921" width="260" height="60" as="geometry" />
        </mxCell>
        <mxCell id="965" value="&lt;font color=&quot;#bbbbbb&quot;&gt;&lt;span style=&quot;font-size: 25px ; line-height: 30px&quot;&gt;SUPPORT VISUAL&amp;nbsp;&lt;br&gt;LEARNERS&lt;/span&gt;&lt;/font&gt;" style="text;html=1;resizable=0;points=[];autosize=1;align=left;verticalAlign=top;spacingTop=-4;fontSize=14;fontFamily=Verdana;fontColor=#444444;" parent="1" vertex="1">
          <mxGeometry x="1324" y="1921" width="250" height="60" as="geometry" />
        </mxCell>
        <mxCell id="966" value="&lt;font color=&quot;#bbbbbb&quot;&gt;&lt;span style=&quot;font-size: 25px ; line-height: 30px&quot;&gt;HOW CAN WE USE DIAGRAMS&lt;/span&gt;&lt;/font&gt;" style="text;html=1;resizable=0;points=[];autosize=1;align=left;verticalAlign=top;spacingTop=-4;fontSize=14;fontFamily=Verdana;fontColor=#444444;" parent="1" vertex="1">
          <mxGeometry x="1324" y="1624" width="400" height="30" as="geometry" />
        </mxCell>
        <mxCell id="967" value="&lt;font style=&quot;font-size: 45px;&quot;&gt;TO IMPROVE PRODUCTIVITY?&lt;/font&gt;" style="text;html=1;resizable=0;points=[];autosize=1;align=left;verticalAlign=top;spacingTop=-4;fontSize=45;fontFamily=Verdana;fontColor=#BBBBBB;fontStyle=1" parent="1" vertex="1">
          <mxGeometry x="1324" y="1660" width="760" height="30" as="geometry" />
        </mxCell>
        <mxCell id="968" value="&lt;font color=&quot;#bbbbbb&quot;&gt;&lt;span style=&quot;font-size: 25px ; line-height: 30px&quot;&gt;PRESENT COMPLEX INFORMATION IN&lt;/span&gt;&lt;/font&gt;&lt;div&gt;&lt;font color=&quot;#bbbbbb&quot;&gt;&lt;span style=&quot;font-size: 25px ; line-height: 30px&quot;&gt;DIAGRAMS&lt;/span&gt;&lt;/font&gt;&lt;/div&gt;" style="text;html=1;resizable=0;points=[];autosize=1;align=left;verticalAlign=top;spacingTop=-4;fontSize=14;fontFamily=Verdana;fontColor=#444444;" parent="1" vertex="1">
          <mxGeometry x="1635" y="2302" width="490" height="60" as="geometry" />
        </mxCell>
        <mxCell id="969" value="&lt;p style=&quot;line-height: 170%&quot;&gt;&lt;br&gt;&lt;/p&gt;" style="text;resizable=0;points=[];autosize=1;align=left;verticalAlign=top;spacingTop=-4;fontSize=15;fontFamily=Verdana;fontColor=#BBBBBB;html=1;" parent="1" vertex="1">
          <mxGeometry x="1635" y="2344" width="20" height="60" as="geometry" />
        </mxCell>
        <mxCell id="970" value="&lt;p style=&quot;line-height: 170%&quot;&gt;Employees can understand diagrams more clearly, they can see dependencies&lt;br&gt;and relationships quickly, they have fewer questions, make fewer mistakes,&lt;br&gt;and are therefore more productive.&lt;br&gt;&lt;/p&gt;" style="text;resizable=0;points=[];autosize=1;align=left;verticalAlign=top;spacingTop=-4;fontSize=15;fontFamily=Verdana;fontColor=#BBBBBB;html=1;" parent="1" vertex="1">
          <mxGeometry x="1634" y="2370" width="610" height="110" as="geometry" />
        </mxCell>
        <mxCell id="971" value="&lt;span style=&quot;font-size: 25px ; line-height: 30px&quot;&gt;WHAT DO WE NEED TO DO TO SUPPORT&amp;nbsp;&lt;/span&gt;" style="text;html=1;resizable=0;points=[];autosize=1;align=left;verticalAlign=top;spacingTop=-4;fontSize=14;fontFamily=Verdana;fontColor=#666666;" parent="1" vertex="1">
          <mxGeometry x="1324" y="2614" width="540" height="30" as="geometry" />
        </mxCell>
        <mxCell id="972" value="&lt;font style=&quot;font-size: 45px&quot;&gt;DIAGRAMMING IN OUR COMPANY?&lt;/font&gt;" style="text;html=1;resizable=0;points=[];autosize=1;align=left;verticalAlign=top;spacingTop=-4;fontSize=45;fontFamily=Verdana;fontColor=#666666;fontStyle=1" parent="1" vertex="1">
          <mxGeometry x="1324" y="2651" width="810" height="60" as="geometry" />
        </mxCell>
        <mxCell id="973" value="&lt;span style=&quot;font-size: 25px ; line-height: 30px&quot;&gt;MAKE DIAGRAMMING AVAILABLE&lt;br&gt;TO EVERYONE&lt;/span&gt;" style="text;html=1;resizable=0;points=[];autosize=1;align=left;verticalAlign=top;spacingTop=-4;fontSize=14;fontFamily=Verdana;fontColor=#666666;" parent="1" vertex="1">
          <mxGeometry x="1324" y="2994" width="440" height="60" as="geometry" />
        </mxCell>
        <mxCell id="974" value="&lt;span style=&quot;font-size: 25px ; line-height: 30px&quot;&gt;HAVE ONE CENTRAL PLACE FOR&lt;br&gt;DOCUMENTATION&lt;/span&gt;" style="text;html=1;resizable=0;points=[];autosize=1;align=left;verticalAlign=top;spacingTop=-4;fontSize=14;fontFamily=Verdana;fontColor=#666666;" parent="1" vertex="1">
          <mxGeometry x="1784" y="2996" width="420" height="60" as="geometry" />
        </mxCell>
        <mxCell id="975" value="&lt;p style=&quot;line-height: 170%&quot;&gt;To reap the maximum benefit, everyone should be able&lt;br&gt;to create and modify diagrams. Instead of only a few&lt;br&gt;people in an organization using a variety of specialized&lt;br&gt;graphics tools, choose one general tool and enable&lt;br&gt;everyone in the company to use it.&lt;br&gt;&lt;/p&gt;" style="text;resizable=0;points=[];autosize=1;align=left;verticalAlign=top;spacingTop=-4;fontSize=15;fontFamily=Verdana;fontColor=#666666;html=1;" parent="1" vertex="1">
          <mxGeometry x="1324" y="3068" width="440" height="160" as="geometry" />
        </mxCell>
        <mxCell id="976" value="&lt;p style=&quot;line-height: 170%&quot;&gt;To cut down on duplication and wasted time, all&lt;br&gt;diagrams used in internal and external communications&lt;br&gt;must be developed and maintained in an intranet with all&lt;br&gt;other documentation, not statically hidden on local&lt;br&gt;computers and emailed around. This also improves&lt;br&gt;visibility and supports collaboration both within and&lt;br&gt;across teams and departments.&lt;br&gt;&lt;/p&gt;" style="text;resizable=0;points=[];autosize=1;align=left;verticalAlign=top;spacingTop=-4;fontSize=15;fontFamily=Verdana;fontColor=#666666;html=1;" parent="1" vertex="1">
          <mxGeometry x="1784" y="3063" width="450" height="210" as="geometry" />
        </mxCell>
        <mxCell id="977" value="" style="shape=image;verticalLabelPosition=bottom;labelBackgroundColor=#ffffff;verticalAlign=top;aspect=fixed;imageAspect=0;image=data:image/png,iVBORw0KGgoAAAANSUhEUgAAA9wAAAEECAYAAADaojx2AAAAGXRFWHRTb2Z0d2FyZQBBZG9iZSBJbWFnZVJlYWR5ccllPAAAAyhpVFh0WE1MOmNvbS5hZG9iZS54bXAAAAAAADw/eHBhY2tldCBiZWdpbj0i77u/IiBpZD0iVzVNME1wQ2VoaUh6cmVTek5UY3prYzlkIj8+IDx4OnhtcG1ldGEgeG1sbnM6eD0iYWRvYmU6bnM6bWV0YS8iIHg6eG1wdGs9IkFkb2JlIFhNUCBDb3JlIDUuNi1jMTM4IDc5LjE1OTgyNCwgMjAxNi8wOS8xNC0wMTowOTowMSAgICAgICAgIj4gPHJkZjpSREYgeG1sbnM6cmRmPSJodHRwOi8vd3d3LnczLm9yZy8xOTk5LzAyLzIyLXJkZi1zeW50YXgtbnMjIj4gPHJkZjpEZXNjcmlwdGlvbiByZGY6YWJvdXQ9IiIgeG1sbnM6eG1wPSJodHRwOi8vbnMuYWRvYmUuY29tL3hhcC8xLjAvIiB4bWxuczp4bXBNTT0iaHR0cDovL25zLmFkb2JlLmNvbS94YXAvMS4wL21tLyIgeG1sbnM6c3RSZWY9Imh0dHA6Ly9ucy5hZG9iZS5jb20veGFwLzEuMC9zVHlwZS9SZXNvdXJjZVJlZiMiIHhtcDpDcmVhdG9yVG9vbD0iQWRvYmUgUGhvdG9zaG9wIENDIDIwMTcgKE1hY2ludG9zaCkiIHhtcE1NOkluc3RhbmNlSUQ9InhtcC5paWQ6N0ZDMzg4NzBFQzgwMTFFNjkyQ0M4QTZGMTk4QjM2MUYiIHhtcE1NOkRvY3VtZW50SUQ9InhtcC5kaWQ6N0ZDMzg4NzFFQzgwMTFFNjkyQ0M4QTZGMTk4QjM2MUYiPiA8eG1wTU06RGVyaXZlZEZyb20gc3RSZWY6aW5zdGFuY2VJRD0ieG1wLmlpZDo0NzcxRkIwOUVDODAxMUU2OTJDQzhBNkYxOThCMzYxRiIgc3RSZWY6ZG9jdW1lbnRJRD0ieG1wLmRpZDo0NzcxRkIwQUVDODAxMUU2OTJDQzhBNkYxOThCMzYxRiIvPiA8L3JkZjpEZXNjcmlwdGlvbj4gPC9yZGY6UkRGPiA8L3g6eG1wbWV0YT4gPD94cGFja2V0IGVuZD0iciI/PhT+lAAAAEhfSURBVHja7N0HfBzVuffxZyWtmiXbcgUMtmk2ocaIboztGFNCIJQ0Qnq5gUAgN4QAJkAIiUNLSCDtDUkghQsJTujNNFMMGBDFdEwvNq6y1aWVtO/zaMeJMC7a3ZkzM7u/7+dz7uoG756ZMzO7858550xCNqBxdnKkvhyn5RAtu2sZKQDiarmWZ7TcqeVvdbNSS2kSAAAAIFiJ9QTtQfpyjpaTtVTSREDB6dDyay3nafBuoTkAAAAAB4Fbw/YEfblJy0SaBih4r2g5XEP3KzQFAAAAEGDg9sL2fC0jaBagaKzQMpnQDQAAAAQUuDVs1+hLg5YJNAlQdF7WUq+hu5WmAAAAAPxT4r3+iLANFC0bQnIOzQAAAAD4K9E4OzlaX98UJkgDiplNpDa2blZqOU0BAAAA+MPucH+JsA0UPfsOOI5mAAAAAPwN3AfRDADUITQBAAAA4G/g3o1mAKB2pwkAAAAAfwP3SJoBAN8FAAAAgP+BGwAAAAAAELgBAAAAACBwAwAAAABA4AYAAAAAAARuAAAAAAAI3AAAAAAAELgBAAAAAACBGwAAAAAAAjcAAAAAAARuAAAAAABA4AYAAAAAgMANAAAAAACBGwAAAAAAELgBAAAAACBwAwAAAABA4AYAAAAAAARuAAAAAAAI3AAAAAAAELgBAAAAAMAGldEEEVaSlJLBW0qiYnBBrE66s0l6m94V6U2xbQEAAAAQuOFW6YiPSHLn4yS59YFSOno3kURpYa1gukd6lj4jqTfultRzV0vPihfZ6AAAAAAKUqJxdjJNM0QgaI/aRaqm/0zKtjmoqNa7+/W50n7fmdKz7Fl2ggiom5VK0AoAAACAPxjDHbZEqVTuf7bUfu2xogvbxtbZ1t3aoODu5gMAAAAgcCOkrJ2slkHHzJHKKUUeNu2ig7aBtYW1CQAAAAAQuJFHy5dJ9VHXSHL7w2gLj7WFtYm1DQAAAAAQuJGTqqnnS3LbQ2mIdUO3tklyv5/SEAAAAAAI3Mhe2Zh9pGKfU2mIDRg05X+lZ+h+NAQAAAAAAjeyU3XgJTTCJtQceol0tDCJGgAAAAACNwaobNw0Kd1iLxpiEyrG7yEy+mOEbgAAAAAEbgxM+c5foBEGqGbvz0tHU5l0thK6AQAAABC4sQnJbQ+mEQaoaseZfa/ta8qki9ANAAAAgMCNDTb20PGSGDSahhig0tpRUjZ8XN/fbRa629hdAQAAABC4sb7GrtueRshScuR2//m7bU1SutrZZQEAAAAQuLGORMVgGiHbHbSqX5ulNXSvTkqqg90WAAAAAIEb/QN3+SAaIes2q/7g/6Chu7WR0A0AAACAwA34zwvd3Z3svgAAAAAI3IDvobtlVRmhGwAAAACBG/A/dCcyobuL3RgAAAAAgRvwPXS3EroBAAAAELiBADJ3L6EbAAAAAIEbCDR093QnaAwAAAAABG7A79DdsiJJ6AYAAABA4AYCCd0rk9JL6AYAAABA4AZ8Dt09CWkmdAMAAAAgcAMBhu4eQjcAAAAAAjfge+huIXQDAAAAIHAD/rNu5X2hu5fQDQAAAIDADfgeultXlkm6l7YAAAAAQOAGfNWTKum7003oBgAAAEDgBoII3asI3QAAAAAI3ID/obuL0A0AAACAwA0EFrpbGzV0p2kLAAAAAARuwFfdnRq6VxG6AQAAABC4gcBCtxC6AQAAABC4gQBCdyOhGwAAAACBG/BdqkND9+okDQEAAADAV2U0AaChu11Dtx4Og+q6aQwgAPX19eX6soOWHbWM1TLCK1Ve6a9HS7OWJi1LtSzT8rKW5xoaGlbRmgAAgMANxC50l0qbvlYTugG/Qrb1ovqMli9rmaal0ofPfFpf5mj5jYbv1bQyAACIMrqUA/10Wehew3UowIdgPERfHtVyjZZD/Ajbno9q+YmWV7WOvWhpAAAQZSQLYN3Q3Vra91o9hDvdQB5O17JngJ8/XMtftHyEpgYAuNQ4OzlUX7bXMk4yw6NqtQzq90+a5L/Dot7U8mrdrFQ7LUfgBtAvdJck0lI5uIfGAHIzxUEdO9TX12/e0NCwhOYGAAQYsK1X8Ewtn5LMEKntsvyIHv2Mhfo6V8s1Gr6foVWLB13KgQ3oaCmTjqZSGgLITa2jeipoagBAgGH7E/ryopY7tHwjh7Bt7IRykmR6fz2tnzlXCz20CNwA+kJ3C6EbAACgCMO2zRlys5YJPn+03S1/XD9/Jq1M4AYI3U2EbgAAgCIL2yfoy1kBVmFjvq/XerantQncAKFbQ3dnK6EbAACgCML2aH252EFVFrovpcUJ3ABU+5qy/8xgDgAAgIJ1knxw1vEgHcZ4bgI3AI89o7urjcMGAACggH3RcX2fo8kJ3AD+E7qT0tXOoQMAAFBoGmcnbYK0cY6rnUHLE7gBrJXW0L06KSlCNwAAQKHZO4Q6J2nQT9D0BG4A/UJ3q4XuDg4hAACAAjIxhDqrtYyh6QncANYN3Y2EbgAAgAIyNqR6N6fpCdzIV3cnbZBtpu3uikHoLtNNy6EEAABQAEaGVG8NTU/gRr7ZrKuZRshSb0dTDDZsQlpWEboBAAAKQFVI9Q6h6QncyDc8rn6DRshS98q34rGga0N3F4cUAAAAAAK3cz2rFkk61UpDDDTDdrVJ97JXY7TACWkldAMAACB7q2kCAjfy1dst3W/Nox0GqP2VByStbRariwS9mdDd082THQAAAGKorcjqBYG7sKSev4ZGGKDWJ/4Ry+W20N2yIknoBgAAiJ9lIdW7hKYncMMHXS/fIL1N79IQm9Dd+K60PX1TbJd/bejuJXQDAADESRgTCHVoeY+mJ3DDDz1d0nH/D2mHTVh983mS7umK9TpY6G5eSegGAACIkRdCqPO5ulmpXpqewA2fdD13jaReu4OG2ID2F+ZKS0y7k38odPd4obuH0A0AABAD80Oo8z6ancANf2OYtN38Veld9SpNsY7U8tdk+V+/qU2ULpytrWG7hdANAAAQeXWzUjb28ynH1c6h5Qnc8DuEta+UlmsOlt7G12kMT/eKN2Tp5YdLb+uqgls361ZO6AYAAIiFKxzWtUBD/mM0OYEbQYSwpnek+S/7S/cbdxd9W7S/dK8s+fl06W58p3C3d3fmkWFpRugAAABE2VVaXHRFtbPC79PcBG4EKN2+Qlr+8Qlpu/0ESbcuLbr172leJiuv+Y4s/e1R0tOysvDXN1XSd6eb0A0AABBNdbNS7fpyrAT/bOzva10P0eIEbgSeunul6+k/SdNvJ2jw/rZ0v/OQDfwt3PXt7ZGO1x6WldeeLO+eu7M0P3yVFFMCJXQDAABEPnQ/oS8HaHklgI+38ZPHah2X0tKFr4wmiFDu7m7X4P3HvlIx+SypOuDc3DNtW6OsmfsLDXUp35dz8PQTpaxuq5zfv+KaE6Xl0auLelv3he5VSakZlpIEl70AAACiGLobGmcnd9E/v6Tlm1r21JLPhDwvafmLlj/oZ6+ihQncCElJzeZSuc+peX3Gimu+I21P3xjI8nW+/qhsfup9+nWT2/fN0MPOltYnr5d0V1tRb+eerhJp1dA9aHgq16YEAABAsKG7S1/+aEXD9yh93UfLJC3baBmjZZj9s3WCeLNk7mIv0WIzJD8rmcnRmC2ZwI0oqJz+M0mU1+T8/o5X7g8sbPcF7rcapGXB1VKzzxdy2+mGjpGhB31fGm/5cdFv6+61oXsYoRsAACDi4XuZvtzkFWBA6MwaMWVb7ivlO38+9w/o7ZGVc04LfDkbbzpXejuac37/4BknS9nwcWxwC92dmdAtadoCAAAAIHAjGIkSqZr5y7w+ounBP0hqyYuBL6rNLr769p/lvqplFTLs6AvZ5v1DdyOhGwAAACBwIxDlu31NSjeblHsIblkhq2/9qbPlbb7/95JamvvEjdW7HiZVO8xgw3tSHV7oBgAAAEDghn8SlXVSNfW8vD5j9c3nSW/7GmfLnO5Jyao5P8jrM4Z96iJJlBIyPxi6mVoBAAAAIHDDN5VTzpZE9cic39/1ztPS/MhfnS93+0v3SNvCW3N+f3L0BKmdejw7QP/Q3V5K6AYAAAAI3PBD6cidpKL+hLw+Y+V1p4qke0NZ/lX/Pl3S3Z05v3/ooWdKae0odoR1QnfbGkI3AAAAQOBGXqpm/kIkUZrz+1sev1Y633gstOXvXvmWNN1zWe47YWWt1B1xHjvCOrpaCd0AAAAAgRs5S+5wtJSNm57z+3s7W6XxhrNDX4/Vcy+R7tXv5fz+mr2Pk4px9ewQ6wnd7U2lNAQAAABA4EY2EmVVUvWxi/L6jDV3Xig9Te+Hvi7prjYN/j/MozESMuzTP+97xQd1tpRJB6EbAAAAIHBj4Cr2/b6UDBmb8/tTy1+Tpnt/E5n1aW2YIx2vzs+9PcbVS81en2fHWI8OC93NhG4AAAAgThggGhIL2hX7nJbXZ6z61+mS7umK1HqtmnOabPGDB3UFcwuHdZ88X9qeuUl6O5rZSdYN3c16uCZEKmt6aAysV319vR1422nZVss4LVtoGaZlkJZaLWsPzNVamrRY95i3tLyk5bmGhoZOWjG2275SX/bQspu37UdrGaLFtmmzt73f1bJIy9O6rd8pkPWu67evb6VluJahXinXUu29mlYtKS3dWlq8tlmhZamW5VpWanlH22YJexQABKtxdrLM+/627+7NvbL2+3uw9J319v2OrWXf2e3ea5NX7Lt7ifc9/nrdrNQyAjf+o2rGxZIoq8z5/e3P39lXoqbrvWelef6VUjvlGzm9v7R2pAw99AxZdf1Z7CTrC91NZX297isGEbrRFzZq9OVALQdomaxlF/t6yfHjuvXzntLXe7TcouURDR69tHKkt7+FSesW9GktNhlIMov32qQb92m5wbZ31C+2eBcUPqplkve6k5aJWkYEUFezd2HiZclcjFrgHQ9N7HUAkFO4tov/+9pXrFd20LKN31lU62n1vr8XeuVxKxrE28Nc/4QuWJrdwPFVjnHTpObzc3N+v93VXvzTvfq6lEdRSXWdbHnuM32vOa1fb7csnr23pJa+ws6yAdVDuqU8gNCtX0gMoo9+yLJAfYwXtGbIf+/e+W2xliu1/EGDxts5LOfTkrnbGrStdfnedNT2dnzs7l3c2FEyV+Yt8Nld1RLvYkeFZO4o2wFqIdbumtoVePvCflbLXbq87+a5HHah5btaTpXMnYB82R2B03S5/hqh/dzuakzzLiTs5wXtMG8S2MWn57U8qOU2Lfdqe7VHqL3KvZPYvSTTw8XGq9kJrt0lsrZc+92+9u82LWu7yNl+2uLtt9brxY6nF7Q84OrYynPdS7z9Y6pkevhs462n9eqp8f6ZXYyynj7Ww6G133qvsnN0LXYB6hXvGH1Q17s1Jr8HW3rHyc7eeo/qt+5rj5ca7++1dwbF2/5re75Yb5c3vGDyMBeWNhjk7LjZxfsN2FWLtf1Ir80Hef+s0itr7HTW+x2w34C1PWle9r5HHtLzrcYCb6+kd0we5n2P79rve8g169X0hJY7vbJA29/pDQUCt/M0Wia1X39CSkfsmPNHrLnrUmm86ZxIr6bd4R7+mUtzfn/7i3fL0t8exf6yEVVDu6Wi2t/QTeCO9ImVnUCfouUb3km0K7aTXa3lR3oi9kaxBm5dn6/ry9leyM7XrVpOymW5dTmO0JffeCd7fjtSl+nGEPdxu2v9Se8EbR+J9jwzFsisd8BVWu7RdkuH1GY2TOR07wLMyACqeETLt3X9no7o9+KR+nKJd5HBL3Yh4jots3K52OhovS34XeaFbT9ZKP+dljN13bsEFhztgqqNAf2SZLo8+8HC3gNaLtXzrpsKqK1KvH3S2sqOzSERXVTrgj5Hy9+0/R8ncBegij1OlKqZuQfRnjVL5L3zd5fezpaIX1go7RvLXT5ml5w/YtkVn5O2hbey02zw6BWpHpqS8ir/LtIRuCN5YmU/8Od4QTvMO3x28vUrLbP1RGx1MQVuXZdveyHXTzZ2fsJAT2q9ng3W/t8McFXv1uWZ6Xj/trF71lvjOMncPYoj6774Cwvf2n4djtvvB/pyYcDV2PG+Y9TGtuu621X5fwdYhR2jO0Xtbrf3m2A9EIYGWM1Pdb1/KEVOM5L1mHhIMnNiBOVyPfc6OebtVOedo9hv5fiYLf4zkrnI9Ncgu50zS7nLfFQ9UiqnnJvfTn3jOdEP26a3p28CtXwMO+oCSSQr2XE2JC3StjopXe0cxgUatJPeyfSrWo6X8OfcsC6rdlAv0uX6cpFtjv8J4DPtTvnMAe4LFkrnBxy2zRSva3LQ+3al7UNa7vdCzQUxDttme++E7XXrCeF1cXblWAd1WLD7bsS+H62NLw24mnHed2/UfC/gsG2O5Fe4z9kBh23zHQ2sO8axcXS5N9fyS8lMyHlRDMO2sRsDv9fypq7LGVpqCNwxVzX1PElU5v4d2fnGAml54h+xWV97RJg9KixXZSPGy+DpJ7HjDCB0pzo4lAssbFv4sPFGdueqOmKLZ2OWr9JlvE3LZkWyScYG9LkjB7Av2Li3xyQzRjVoNv582wD36xFazpfMmNGrJDPZXyH1qrE7j3/UskDXczdHdbrqsvnZiLX1fuLP8I5N+UwE97NDHdQxiF/iPq6C8ISYBe1aLT/TP1+XzFC36gLY1jYW39Zpka7bCVp8fRYvZ+mOlG42Sco/+vU8glVaVl73/b7XWB2UN/xQ0l1tOb9/6MGnSdnQMexAmwjdrY2E7gIK2ydIZvKaXSO+qHbS96wu7yFFsFlKQtoX9pbMJF0uL2xsEcB6DNdysf5p42Gtm+qIAt9f7PFsj+s6n+ZNtBeklY7WaZyuy/YRauMDXW1LXe9hEfp9sO+CnRxUtUxgkjTBh8K29XCzYTRnSGaCuEJjx9hvtSzQdd2DwB0rCama+UvJ50J+88NXSdc7T8duzbtXvyer77w495Yrr5a6I3/CLjSg0F0m3Z0c0jEO2uVarvC+6CtistgWnOxO948cBIti2x8sbNvjLAY7rnqYj+tQquVEyczQ/n3J/ZF1cT1Rty6W13mPbwuKy+epHxSh9v2Yo3rsR3V6Ea73Ir6FsU7QHq/FfpOukuC72UfiZ1jLo7rOP/KeF07gjrrynY+Vsi33zfn9ve1rZPUtP47t+jfd92vpXvFmzu8fVP8pqdxuMjvSJkN3QlpWEbpjGq6s+57NVPqNGC6+BW2bnGJOwMGimPaHSSGF7b6vXJ/WwWZRn6fl1xLdmWpdsEf43ec95iwIzzpcl5kROT7se2Yfh1UeXISB+3EB/hu2bWjF01H5DnCo1Du/uU/bIK+eZpyZB30mWl4rldN/ltdnrL71J9LTsiK+OTDVIauuPyOvzxj2qYv7Zj7HpkN3q4XuLg7tGIUrO3m8PWIndbk42gKWrs9Itmpe+4PNintHSGHbr3Ww8YiPatmfLdrHno0913t+ut8ec7ge03UdyiLQnjZ+22VX3wMjtC/NcFTPgxy2sDu7Wi7XP20CqWK+cGq/ZQ3aFvUE7oiqnHyGlNTk/ti+1JIXpfnBP8a+HezxXvZs7VzZ48VqJ3+VHWogmZvQHadgYl3Hb9EypUBWaU8tD3t3N5H9/mCzatqzEEeFuBjJPNfBLiBZbw0m3/hw6J7jPTfbTzZ7fY+jdbCLQHtHoC2nOa5va91u20bg+2G8uJkFukkyj0pCcYdtC9jW04rZizNsfhO7053TBTjOyANUMmw7qdjzlLw+wyZKS/d2F0R7rPrX6XmtS90nzpGS6jp2rIGE7t5M6O7hsdpRDle2cf4i0Rof6Ae7Q2t3N7nTnd3+YEHsnxL+bLX5dim3R9lNZIuul/ViOc/PD2xoaLBnZD/scB2icLd3Wgh1RqErrau2f0T3qx4O16IO29Z9+qECPD/JV62W27R9sv4+IHAHqGrGJSKluT/StPXpG6Rj0QMF0x6ppa9I87zf5vx+C9sWujHw0N2yMik93YTuiLLne362QNfN7m5uwSbOyoUS8/Fx3kWD49mUG3WmtpPfPVpud7j8B4W8j1m3/H1CqDoKE8a5Gr99P4dpUYftLb2wvTOtsV7WC+xGbaepBO4obI1tD5Xkdh/PPSylOqTx+rMKrl1W336B9DQvz/n91q3cupcji9C9gtAdwWBiwepcWgLe/mDj308tgFWxL+fRbNFNnnddYU8l8PEzb3W4/Hvrsoc5v4CNpQxjQpfpAQwHiGrgvp3DtGjDtvVMs27k29IaG2VP3LhB22sHAneYSsul6sCf5/URa+76hXSvervgmqa3o1kabzw7j1OV0swEasgudK9MSi+hOyrharhkupLz/QvbH7bRlysLZHW4IzIw1uX+ZL8+rKGhYaG+vOvqDEfC7WY6LaR6bX6FPUL8nrBjy8XFrPeE8dvFGrZt/g27ePcRWmPA3wm3eGPdCdxhsHHbNn47Vxa019z9y4Jtn5bH/k8632rI+f32iDB7VBiyCN09CWm20N1D6I4Ae0zS5jQDlM34/H8S4xnJ18Hd7YE7w+dZy29zuOxhDn2YFmLdYXYrd3WR49aGhoY0h2fRhe21c8rsSWtkxXoCXOm1H4HbJZuRvHLymXl9xqrrZ0k61V7A6S8tq647te81V3VH/kQS5TzyN9vQ3ULoDpWeYNukSZ+jJeCxCcb2LqD1qWWTDpj1dPm6n0Gp0IOn15V9jxC3WZgTxrl6HNitHJpF+1vEnazcHKXlGwRux+yZ24ny3C9ad7xyv7Q9fWPBt5Pd4W5ZcHXO7y8bOkaGHHQqO1yWrFs5oTu0sG1jNn9DS6Cf7SO4TC0EbmdO8p5W4Ad77manq/1Wl3tcCO11gIQzfnutfQN6lvqmfjtsnac6qKrT249QRBpnJ21ehJ/SEnn5ubbjWAK3I2Vj9pHynT+fRxrqkZVzTiueg/ymc/vGdOdqyIxTpGz4OHa8HEK3PTIs3UtbOHaCMBEJoq8pj/dyTpEdG3u2rx8f1NDQ0KYv8xwuexh3e6eFvL2SIS3DJMmMFw3afd5+hOIJ23YB6W8S7oWsQmAXm3/Fj6MLiRKpOuhX+Z3lPPgHSS15sWiarKd5may+/We5N3lZhQw7+gL2vVzaPlXSd6eb0O2Gd1fkbFoCMbAmpPdmq1uL/WBer2W2lhO1fEYyY11390KK9SDY1fvbgpIN57CuUTZJ3ZNaovAN6OejAV12Bz64CAO3CWP8uqvu5Lfw9Vd0LtIynmbwxZGNs5Mb/F4so338Ub7bV6V0s0m5B6CWFbL61uLr0dF8/++ldr+vSHL0hJzeX73rJ6RqhxnS/tI97IQ5hu6a4Sm7XoRgnSSZMZtA1C3N471BTz6yQMsdWh7Q8mi+d+Pq6+vr9OVwLV+R8Gbe9jO4WuC+zNFyf0zbr0S3gZOLFlqXzQQ8KQLHRxh39hm/Dd9pOLT5Q46PyOJ0aHlQMs+AtwupiyQzY35r3axUp7e81svDbl5Y11Z70sNOWiZLZqK3qJzFXqDLOVeXOU3gDkCicqhUTf1xXp+x+ubzpLd9TdG1XbonJavm/EBGn3hDzp8x7JgLZfEF+/Z9FnII3as0dA8jdAd4olihL9+L0CLZD5vd3bNHv6y0rx/vfx+hxR5RtYf3iuL0Zh7v9ftZlnYXe55k7mLfoOFusZ8frp/XqC9/taLH6X6SmWPho47be6KNh9ZlecuH9XldP+sl/XMHB8s93AvADY7aaXpETqp31DYeo239nqPfD5v7Y38HVT2v6/SmoFjCts0dYU9MCXtCH7tb9jstt2pI7djYP9T/vto7X7FHIM7vty6jJNNT6EQviIfJfj9s8rnrCNwBqJxyjiSqR+b8/q53npbmR/5atO1nd6fbFt4q1bseltP7k5tNlNoDviVN9/2anTGX0N3lhe7hXLAIyLFaRoa9mbX8Q8uftdyvJ1bdmzjJ29r70fimRHNiLwTjfd03Vufx/td9Wg67k32Vln/q8qxyseJaz8O63++lf17qnbi5ZLN+X+HTZ93mKHCvXW5XgXtahI4Tu8v9F0d12Rj/Kgf1cHe7uNjwmzBn/LfJ+b6nIfrZfD9IP2OZvlyuwdsumNpEWr8I+ZzrzPUFbu5p5al0xI5SUX9CXp+xsu8RWcU9mHbVv0+XdHfuE6wO/fgsKa0dxQ6ZR+juaOL6W0BODrn+m+0EXAPFcVru2VTY9sLHG1ou9k7c7Yd5EZsxNrq0vCKZHgxvaGnN4r3z86x7oWQu7uSiwwudH9V9bx8tv3cVtvvt9yktJ3knbC7t4+NnuRyH63I8c5QCt8vHojl7/jZfncVBg6md7IU1hnWFlk9pSJ7pR9heJ3j3avm7/vkRLVeH2MSTtI2nE7h9VnXQpSKJ3Cf3a3n8Wul847Gib8fulW9J0z25Dz0rqayVuiN+xA6Zhzwei44NqK+vty6XYY07tC4LJ2uAOELLqzkGkF4tdqV2Zy3nSKaLL6LnfclMHGZj2ap1m03UYsHVhgbY7Kk2O/7XtFyjZflGPufKPAOrjeF+JMu3rfZO/sbq+/9HyzMRaE97Ju1ch/Xt5uNnPaSl2dFyT9bvuGoH36PDJDP5XVQc6OPj3DZZl4sMJvlfbEN8fFbCeWLKU1p211D8ryAr0c9fqeUL+ud3JLyJMU8icPsoOfEoKRuX+8XH3s5WabyBiYv/c9Y19xLpXp37sKiavb8gFePqaUhEyVdCqtce7TRDw8vlfnyYfk6XlvMl073xbTZrZNiJ8ilabAzwWVqe0NKzzrZL29heLVdqse52m0nmmb7/T8s73j+zu+IX6n/34y7XNQP8d3an4/tattJ6f6hleVQa1WvDb0nmrrsLO3nPWvZj2VMOLxbY+OIDHNRj+2siQsfdKBcXAHSfGKQvezlYnzvW/d5Agf5gZMZunx5C1XYhcLoG4XdcVah12TjTL4UUug/3xpYTuPOVKKuSqhkX5/UZa+68UHqa3qcxPemuNmm84Yd5bJSEDPvUJX2vQNhsBl99+XQIVdvMzQfpCdSDAQSRJyQz7mseWzh0Fo531G1ymV0QyWIbWq+FB7Qcr2WsZO6A213xM3xariv7Bfn1sW7iNsZta63z51paoti43gRSf3JUXaX4O1eCy27lLrpXz4jgLuLizvMUyTz728V3CYrDNC27OK7Thhp9QgOw85mhtU7rWn5SCO1sx+1nCdw+qNjn+1IyZGzO708tf02a7v0NDbmO1oY50vFq7j2bKsbvITV7fZ6GRBTY4yo2D6Her2pYWBBgELE7kTZ2889s4lCkvcB6uG6L933Yni1+3t3yupV/ygvW/dnjxn6kZVv9NxdENWivw+VMnFv7+Fl3ePtJoQTPaRHcN1w8h9zFhYZeb39BcTjBcX02ZOjIMMJ2v9Bts6D/LYSqP0PgzpMF7Yp9T8vrM1b963RJ93TRmOtrmznatr25n//VffLHfWO6gZAdE0ZA0CDzz6Ar8SZe+4ZkZnSGO9Zd+NNeYI3srAu6bDYxiT2exWa5t7sLNvbKuo6fl+cs6K7Xwx6x9Zyj6sb4uNx2IeZJR8u9S319fWAXFvWzbbbhnSK4e+yvy1YZcB0fc7Aej+j+spKv1sLXODtpj/I70nG1J2rgfSMCq2+/Q285rnOytvnmBO48VH3sIkmU5f492/78nX0F69f13rPSPD/3uXtstvKhh55BQ2aJSdN8d6jj+uzZlM52fG9ssD1f/Fw2tbOwfYy2+b/isLC6nCu0/FHLb7TM88YWx9G9jurZzOfPc9mtPMi73FOjeioomV5MQV1osIniXEy4eYugWNgQt6TD+u7TsP1/UVhxXQ6b1+Z7jqtN9D8PJHBnqWzcNEnucHTuoaanq+/uNjau8ZYfS29bY87vr516giRHT6Ahs9o5Gfvu48mSzQDqegc8VUNNq+t11Tp/rC8XsNUDZd0+j9W2vpmmcO5RR/WM8fnzXI7LDfLxYDMivG8Eud7TxM1EcYzfLh4ux1vaLZyTorTyGrr/Ldk/RSNfhxC4c1FSJlUH/TKvj7Bx2zZ+G5s4u9SwbaE7V4nSpAw75kIaEmGZ7rg+6/Z6XYjrO0sys14jGKfE5c52AXrRUT0jfP68Bi3LCiB4To/wvhHkervoTv62fq88yyFe+Lzu5JMdVvlPDbgvRLApfuT6XNCbGZ7AnY2K3b8lpSN2zPn9PWuWyJo7L6IhB8i6lVv38lxVfeRAqd7l4zQkwjDNcX2zwxzT69V9ov3Isul99ztt31/TDKFxdYU86fMxab0ibne07JvV19f7PvOxfqZ1s58Y4X1jki7jiIA+28Wdfe5uF4+PO858syPaDndpecVhfSPWfocRuAcoUT1SKqfkN1Sx8cZzpLezhcYcqN6ezARqeRh29IWSKKugLeHa3g7rstmf54S9wt5M11/WsoDN7xvr/vZdmiHU/bpZ3DyPe1AAn+lyfG4Qd3unRf3UMIhg7E1CtwOBGz4Hblfm181KLYxiI+hy2c2B3zuudjKBOwtVU8+TROXQnN/f+cYCaXniHzRkluwRYfaosFyVjRgvgz/2HRoSzniT3WznsMq/RGVCKl0OCyY2C+o77Al5s8dqfSabZ2wjMMsd1BHEZEZ2N6fbURsFMXHa9BjsG0E8h9zF3W17fN+9HNpFw+WxdFXE28J1T7zd+/JIXPaURHmNlG05WUpG7iQltWPyCr9Z1101TJLbHZbXZ/S0rpIRx/3uA/9bOtXRN1Y5tXSRBvJHJbX89aL8FkiO3EYqtt5HkqO3l5LqOkkkPzgDfKJEd9Pe7r4x9LmoO+wsKd9yV0l3tTlbp972NdLd+J6k3n9ROl97WHo7WwVFYw/H9f0lSitvjySqr6//pP45XzIz+SI39jz1d2mGSOh1UMegAI7FNXos2nHoYqbvaVpXhdbZGbPgGcULDS7Gb9+j26qdQ7vwNc5OWm+J0Y6qs4v/10W5Pepmpd7TNrGeeK56Ik6KReAuGztVKvb8jiS3PUSktDy2O3z1zpt+QlBq2avS8vBV0vzwlRrYmgr6C6CkaojU7vcVqdGSHBXwzUAN6oMmHRXautrM9O3P3SlN9/9OOhY9yLd/4dvZYV2v6klT5CYm0WV6Sk++bZzUbuwOObHHad1EM0SGix/koB7Xc4ujwG0X1/bTcp8fH6bfH1vqy7Yx2DfG6rJO0OPVz3GhLgI33cmLh8shbg9poF0Tgza53WG79M1vEdku5SXDtpeaz98pNcfdJckJR8Q6bA/411aDZ92RP5Etz3tBaid/TSRRgI9p0nWq3f/ruo7P961r4GE7Cqus+271bofLZiffJqNPuqko1rnI7eKwrhtp7oJj3fFPpRkipTfGyx7Xx4NNi1Eb+9atXMO7nSCMI3DDR3s5rOvOmLTJfId11TTOTo6JZOAu3+lYqf3aY1I2bnpRHhl293f4534lo791nf49uIDWa7CMPn6ODP/sL/vWsRhVTZwuW5w+Xwbt8Rl+AgrXDg7rYgxe4flGQ0NDE80AP+i+ZI81ezNuwTNmgdvPCw0uTnwX6n7BPBvFY3fOST7kUXF7IXVC5AJ3xZ4nS/URf5FEclDRHyFVOx0sm51yp5TWDI/9utg62LpU7XhQ0W/XRHm1jPzyn2Tw1BP4GShMrrow2I/FfJq7oFhX8rk0A3zmarby3evr6/06YfF7/HaQ8yHY+PWyiK53mPsDomEnR/XYBJ8L49AgdbNS9sioRQ6r3DpSgbt8589L1YGXcGj0b5MxO8uob10X60db2bLbOti64L+GfeoiGbTHZ2mIAqInXbWSee6iCy/YpEi0ekG5miZAAG5z9XPvR2DU79Hx+jLe52WzLtTPBLTe1hVxbx/W29qP8dvwTePs5Fh9qXVU3UINsp0xah6X899sFZlJ00qHT5SqQ37L0bEeFeP3lLojz5dVc34Qy+W3Zbd1wIeNOPYy6Xq7oW/CPBSELR3WtZDmBvIKODZR2UC605XGfFVtIjObkdrFUwOse3W+j92ZFsByzZPM5HdBTeRos5Xn2+PI7kSODHj7rNSygKO/aEzgnGSDbLiNqxmVx0QmcFcdfLkkktUcGhsw+IDjpWXBNdL1zlPxulgwdve+Zcf6WfdyG6///mWH0RiFYRQ/boCzwGznMJtrsbs4W3llCy3WrXnoOmXthCgWOsuLqZ0aGho6tK3u0T8/4aA6P8aNBRW4l2k5LcD1Ps+H0B6023V/6OHbo2iMd1hX3J5t7HJ5N49E4LbJ0crGTeOw2GgyS0jd4efI0t8eFavFHvqJswtztnUfVW5/QF/pWPQAjRF/ox3WtYjmRpEEa/sRsckI7QkAO3tlR8nMl1BKCw3IrY4Ctz0ma3sNdfl8P/l9Qvi8Ls/7ulyN+nebliDu7uytnz84zwkPpzvaD0DgDkLcumq+67Cu4ZEI3BV7nsQhMQBVHzlQkiO3ldTy12KxvLastszYtMHTTiBwF4aRDut6k+ZGgQZsOzexcUhTtOyvZbKWYbRMXm5zWJfd7V2U47YP4rFY8+z/aBju1M+3vz8ewDqXeoH5xhzXu1SCn5nd7mzfwaFQVDbjnCQSgXtE6JOmJcprJLntIRwSA1S9+9GxWdZBux/DBhugqp0OkpIKZubnxy0rb9HcKKCQXaXls1qu1f93hZaHtVyo5XDCdv40bL6tL886qi6fx2QFETrn9fs7yOcE53OHYQ/577CHoDyk+8FqjoaisrnDulbGrG2WOayrPPTAXbbV/iIlSQ6JgQazidNis6yVE6eywQYoUVouFdvuR0PEn6s73D164rSS5kYBBO39tVylfy7XYmHbHt0whJYJhKu73NPzeEyW3yc5aclMGucicB+cx3uZnRxxPicR7zs8TlxefBoUeuAuGcmjorJRvkV82qt8zC5ssKy27U40QvxVOqpnFU2NGIfsMi3HaXlS/98HtXxZBjZbOOIRuOxO7V4RCdwL+1+c1L9f1pe3A1rv7XWfHpvje2cU0PZHdAx2VE933axUrB5TqsubksycDi4kww/cg7fkcMimvQYNk0SyKvLLabNvl1TXscGyUDp0TKj1p9NsgxgF7haaGjEM2gktn9Y/n9Pydy2TaBWnrJu+q7s6M3PYP+wRRn7/EM5bz/92Z8TW2343gu7i9mZDQ8MLHAJFx9UzuFtj2j5NjuqpjsAY7loOh2zbrCz6TzRJlDJMIFsllRwLBO7I/UgAfoVt6551v2Se0TyRFnHPexyUq0mzchnHHUS36vvW87/dEbH13keCf0b6zRwBRYmeQxvX6aie8O9wA0AB4RFFwAeDdomWMy3vSWbWcYTLVbfifewxWVm+Z5rPy9Ar67/Dfa/334Iww/b5bN9TQNsd0eLqubz0utsEAjcA+IduCsB/w/ZwydxNnK2lnBaJhDsCDJv9rX1MVpiB+6mGhoYPjSv1Zup+NKD1HqHlo1m+J+gJ02yc6jx2/aLkbAw3TU3gBgAAbsP2dl6omUlrRIeGTXvk2mOOqjswi/1lB30Z7XP9GwuZkRjHretdoy97B7wd7rJnkLP3I0B0XSdwA0DBqaYJEOGwbY+osNnHt6M1IslV9+JsHpN1YAD1372R/zY3wPU+KIt/a89PLS2Q7Y3oaXZUDxM3bVw3gRsA/NPlqJ4amhoRDdvjJXP3cDNaI7JucVRPNo/JmuZz3TZB3EMb+e+Pa2kMaL0n63oPdBK06Q62A4G7ePU6qqcspu3jqst9C4EbAPzj6pmOQ2hqRDBs24Wg27RsTmtE2jNaFjuqa+YA9hub2Gmqz/U+0dDQsMGJnLwZ2+8OaJ0rZOATBB4YcPvbOPbF7PJFy9Ud7kGNs5NxvMvt6skyawjcABA/1XqSyiRUiJortHyEZog2DWBpyVwYcWEg3at3ksxkY366ZwD/5s4w19ubVHDXgNv/Fvb4otbjsK66ODVM4+yk9UKpclQdgRsAfOTy+dh02UVkaHj4tL58jpaIDVfdjAfymCxXz99eV5DjuAcycZp1J08UyHZGNLl8XFddzNpmuMO6lpaxLwKAb5od1jVGy9s0OSIQtm0c3OURWywb3vGmlne0vCuZ8bprvBPQniyP1R9r2arANpt1p7Y5J4LuKWMntZMk8xx2V4E7peXhTf2jhoaGd3TffUH/3DGA9d5VP3uU1rHM8YWG/qzux/mGKmrtDuvaQsvLMWqbUQ7rWkHgBgAfv1Qd1mUB4BGaHBFwhvj/SKdsLZTMXU2bHf0pC9sadnyZMEiD03cLLXDb+GZdrwck+DHEZuaGArd39/sAn+tboOs30Pk05gYUuNeu99Ub+e8zAm732/06BhBbKx3WNTZmbTPeYV3vErgBwD/LHda1Pc2NsGlgGqovJ4VU/XtafqflWg0Wr7E1snaro8Bt45kv2MB/szHMfndFvSeLf2vjuL8b0HofuKHArcfNlvoyIeB2Z/w2XN8EiJNtHNb1JmO4ASCeP24TaG5EwNe11Dqu0y5s/Y+WrTVo/5SwHflAtp8GzOoN/LdpAdQ3L4t/e7+WzoDWe2MTpwXdnbxbgh2jjnhYwjnJBm1H4AYAAvem7EhzIwK+6bi+G7RM1JB9hZYUzZ87bb9X9WWRg6rsMVkb6jbud7dqC8+PZtEGNsb1gYDWe4v6+vodQwrcD+q6NbGXF713HNa1S8za5qMO63qJwA0A/nnTYV02KU+SJkdYdP+zE6yJDqu8UMvRGiQaaX3fuJrFeuZ69p9S8X/89kO6f3Rk+Z47Xa63J+jx2zeza8Nx4P5I4+xkaRwaxVvOXR1VZxcBucMNAD56S4urSWrKHf5gAOvzSYd1/V6D1BneM6RRAIFbMrOXD/a5nnk5vCfIrtcfGiNfX19vXVm3LJDtimhzOdzGerLsFpN2sZ4nrp7B/ULdrFQvgRsAfOJ1cXV5RXkarY4QHeioHpuB/BSaOxDWndrFs3p30aC5mYPvr6wDt35vP6sviwNa7+m63uWOj5tXdZ1eYdeGsv3A5UXKKfx2ffgrxv4PgRtAn3Rvgkbwx+sO6zo4ig2gJ5h2pXsYu0Lh8h7ntKej6r6nAaKLVg/gTDDTrnc7qm7du9zTff78Vi2P5fjeoO5yD9Kyzzr/W9Djt7m7jT51s1I2vOJth1UeEJOmcXnu9BiBGwD8t8hhXVM0+NREsA3+KAX23GJ8iD2WrtpBPQs1FN5DcwfK1Wzl/wnc+r1lj6Wd6vPnP5THhZk7Ha13IoALDWFtT8TDUy6DbOPsZFWUG0OXrzaA756NeYTADQD+e8ZhXZVajozSyusJ5Rn68gV2g4Ln6hEw/6CpA3e7o3r6d+PcQzJ3f/00L4/33iXBdb3tf2ffxriOCLCNmyW4WddB4N6UQbLhiQKj4lPeuZML9uSa5wncAOC/Jx3X98UIhW2bRGs2u0BRGOeoHu5uB6yhoWGxo5Pyzb2Z7c20AD7/3jzaYKV4Yy0DsKeu91Dv76Dvbt/F8Aus4/FiPSfZgC87rOv+ulmpvgt5ZeyHAOArm4DHZip3dUFzpp7MTQh7khxdhr305WotTAZQHDZzVM8LNLUT1g15koN6DvS+I/0O3E0+BOY7JHPn3W/2W2Djtv8twT8OLFLdyfV3YRvJ9IYZK5k7+0MkM5u1sSCyWotd7LCLPjYc60X9LevmcPTVw15bu/ptPrJxdnKMBs33otYQulz2HeeyO/l/5lMgcAOAj/RkoVVPMl6SzGMnXLAfUZvB+cQQT6p28H5YBrEHFI3BDupo0uOpmaZ24jYtZzuoxy4Q/kb8n834Qd1XevL8DJs47YcBrvdNEuykUhaqbg9zJ/JmZD9aMt12p2kZnuVHtOtnLPAuTvxdt2kjh2Z+NPiu0aBpT3pw9cguy5bHO/o+ydaZDuv6wPFIl3IA8J/rLlxf15OUrUM6wbLnydosxyPY7ARun7XQzM7YTLorHdRjIWx/8X/CvXk+fIZNbhTUBZ6DJHP3vDbAttV82vB+SL8DCS3f1D/f0nKNlmNyCNumyttHLtPyjn7mj7RUcnjm7W7H9f2vhvyRUWoAXZ7dJXMhyJVH6mal3idwA0BwXE9aY130LgjhJGuk90M+hk2OANBjwhENajYM5jYHVVmg+t8oBgqvK3NQcwZY1+qvBNy2oXQn9wKx3ZH+g/g71MSO/3Pt99T7rUHuXPd8sG0XmTvcGrYt7/5e3A55u7b//0PgBgD/zQuhzs94k5a5OsmyO9s2Nmwim7sotTmoo9brohoarf8QcTc8JGyunt/s9zNwrdvxQp8+K8jHg32pEAO3+rME+7SMPbVc7z1KDrl5SDLzHLj0bQ26e0Rk/b/j7Ueu2MW7fxC4ASBADQ0Nr+tLGJOY/dkLwkGHEBuzPV/LdmztotXuoI6SMPcx3c+t67PduUsWyTa1Mcw9Durxuz0f8O7Q+9UGQQny+cTWdfXJEI6RI/TlWAdVTdZyEl+7uamblerUl5scV1uq5Wrvudeh0fr30ZeLHFd7k7b5MgI3AAQvjMlrhmm5WU+ChgR4gmVjEW2s41g2cVFzNZnZ/iGF7b0lc8e3qlg2qDdB1fwYLvo9PraBXSx9NYZtcJsuezqEes9xWNcPwu7xEnPXhlCnzVD/Tw29oVy01Hrtgu0NWlzvN79b938gcANAMP4VUr0f1TJXT0xG+RxAyrSc511IGMrmLXorHdVzdAhhe5pk7nQOLsLtelsMl/k+nz/vjhi2wc0hHCe72ovDKjcX/4cjFBPbr5eEUK8Ny/mbhl+noVfr20kyw/tGO15fe+zhPQRuAHBjfkg/bsaeif2YnhDt4tOJlZ1U2V3tc/jdgMfVXcCDdPdzNoZa6zrcC52Di3S73hqz5V2h5XmfP/OumLVBl7ifhdocGUKdn+CrNzd1s1I2XOSqkKr/rJa5GoKdhF+t5wjvHCyMCV0v0rZOE7gBwAFvTOFfQ1yEcVoe1wBxjpaaHMPHDlr+JpnHnO3BVkUIgdtmlb3EUdg+TTLdD6uKdaPq99Zz+vJ2jBZ5XgBdqe/VkopRG9yvbRDGI/Qmh1Dn/oJ8/CbEfXuqlmc0DB8TYNAepeWP+ueNWoaEsI42d896u+4TuAEgOH8OuX57XJh1A39bw8QvtEzRUrWJ0DHWnqeqxU46X9TyBXH7KA3Ew5taOh3Vdajuj6cEGLRrtPyfZCbW4bwoXne5fX+Mlxde57O9Nn3ohFDnRxjHnbu6Wan3ZJ3Zsx2zO9xzNBTfreUAn4P2DyVzIfjrIa7f2drG3ev7D0yxDwAB0RO3V/TkwLonzgz7d1Yyz7610qPLZF0wF0vmcTrWHdEmNNnCTmbE/XgnxHPfTul+ZD0fXN1xsgtGjVqvr71G9DOnS+bC2Hi26n9Yl/oTYrKs8wL6XBvDPy0mbeD8cWB63Ng8HsNDWFe7+GvPNH+JwzRnP5HMzPKlIS7DDCsakq1HzXXed86TGlYH/LQBfe9I79zKhgEdI+E/TeJRb12EwA0A7l0agcDdn/3I7uoVIB/3Owzcduf5L3qiP0lfZ2nwzuuxZPo5NgHT+RLu3ZCosrvGHVoqI76cS3U/CCp42fO4Z8dgW72kbfBaCPWG+ZSKLQncudNQ+7KG1b/rn1+OwOLs7BXribdGl+sFfX1ZMsNa7IZAq2S6wA/SUi2ZGwLba7FHk06IULPahYJvr2/sNoEbANywmUGflszs4UAhsdmhz3Jc53e1fFIDs92luVbDRluWQdsuNB2v5asxCJShsIsZ3pCSj0d8UYOcKOwpLcu1jIx4G4TVnXxUiOs8nKM0b/a9bXeFayK0TDbmel+vxM3lGraf2tg/IHAD6JNO0wYBnbymvcdpXU9roMA8IJlZokc4rndrLX/ScqkeW/aYunmSeRSLPUN5uR5z3fq/W5iu84JBvVesG+NENtuA3BaDwD0v4O9t61Z+XMTb4JaQ6q0NcZ2rODzzY2O5G2cnrYfPhbRG3uyO/Jmb+kdMDgLAS9w0QYAnbzbz8XxaAgW2X1tXv2tCXAR7dJc9buZ3Wh6SzLwENrbcvs3avf//aS+cf5uwnZU4TJw2L+DPnxvx9V8T4u/KkBDXexCHpy9+YV/jNENebA6c4+pmpTY5xInADQBufE+4rIHC81v268LT0NDwpr68EOFFfFuXMehH090Z8c0017voVWySHKH582bT/oq4e9pEITpV23FAFy3CD9w9XWwuwM5YuzkWCvwE9jF9+X2Rrr5N6tPBXlCQ+7VNXvRPWqIgRfku930O9u2lkukhEVW3FOl+uYZD07fQbbOEf4eWyMmftf1+PdB/HHrg7m1bzibLJpT1dElve/S/a2wZ0z0pNlg2bda6kkYofDbO590iW2db32nCVfRC9mPhLnchui3CyzbPUT1R7VaeDnn7hPl93suh6WvovkJfrqQlsv7+yerRieEH7lWL2GxZSC17NTbL2h2jZY3Etl3KsVDoGhoa7GrZF4sonFjYnq7r/S5bv6D3a+t6/CdaouDYuPioXuG/z1E9Ue1WvkCPuxUh1t8UYt3cnfCfPbnhXpphQKy34pF1s1JZdUsNPXB3v/swmy4Lna8/Gptl7Xj9ETZYNtv2jUdphOIIJ/Mkc0ew0Fk38n0djLNENJyu5f0iWE+7u9ZaJN9VNsYzind4X9Nle8tRXXbRoS2CbRB2d/8wQ+8qvm795YXHo70wiQ17Rsth2l5ZX4gM/w5342vSs5Ln1w9U27O3sawFKPX+y5Ja/joNUTzsMWE3FfD62bjH/bmzXTx0W9tJ8FeLIGx/SUsxXUSK4jjueQ73awsi90WwDcIev/1eiHW/wTduIKHbQuRBXqjEh9nFt6naTjn1LInELOVdz1zFZhyA7tXvScdL8enxYcvas3oxG24AWh79G41QXOHEupQfq6UQuzXcpWWaruP7bOmi26/v0JfzC/Un2MK2ruPVRbZZ7TnnURsCM89xfVG7y/+e7odhT+ZmF1PDmAizRdd9Cd+2gYbuqRLNi0xhsolBD87lzna0AvdTf5B0+wo25yY03f2rWE1EZsu65p5fseE2oadlpTQ/9EcaovjCiXVTPFzLcwW0WvaIqI97Y9VRnM7VUmih1I7VI4swbNv31DJ9eTxii3W34/ruiNj63xqB/cIuwoQR+nlutJvQfYiWq2iNvl5NZ2v5nLZLXkNLIhG4010t0n7fWWzWjeha8oI0P3hF7Ja7+YE/9C07NqzxxrOlt7OVhijO0G1XGqdI/MdN2Z2Ob+j6nOiN+0Tx7tN2Iv41KZwhE3Ynb4qu161FvFmjtO4vu+49o/W9oi9vsT0+5MEiqbMYQ3eXFhsi9G0p3ieM2LCJGdoOP9GSdy+fkqislXUrT71yE3v5+i5IpNplxVVfk3Rv/M5jbZn7ll3XAR/W9szNdCcnoKzWl+labo7pKtjJqE2OxizVWLtPr52AJ+5dd2wMV72uz5NFvkmjFLjnhVRvVGYrt/Bzd0SWJYyT9hv4hnUavH9n34FSfOO6r9Kyq66/b983JdFZt7S03fRl6Vn8OHv4BxOrLL/yK9K1+PnYroIt+3IN3bYu6Per+VaDLP/rN2gIrO1efpTE73nGv9cyKQLjCRG9fbpHyzf1z/+VzPjnOLGxW2dqOcjrUl3s7ILDOxFZlrCC7y0RWf87vN+LKJiv5UWX+6GuO13K3YduCyB7SuZJFIV+98zWdabd3dfi62z4JVFay3SqVVqu/bh0vX4/e7i1R1ebLPvDZwtitu+2hbfIsiuO7VsniHQsekCW/uYI2gPrBhQb/3qwhDsD7EDYLM0H6vKeEKGTv6ADWCHV43K//qW+7KslLo8jWaBlD13uC+yY5JvpP8MEronAotjYq7DGU9vEaVGYbOjPEdsvznNY5TkhrCZDpDKhO6XlIv1zomTu/qYLbBVtmIp1n/+ormcgPUhKorbG6c410nbdodJ8z8Wx7ELtl653n5HFl0yTtufuKJh1sgsHtk62bsXK9uk1cy+Rpb/+pPS2N/EtjvWdxNgs3ztr+X8R/FGzcG0XBXbR5bwny/cG8Ygw+5FwcQfSxcR2PTEKpdnu00/oy26SuWsc1Qs0S7V8S8t+urwLN/Fvg3gGcdRn9b9Uy+qwl0G3TXtI+7B15Q57Bn67o3xzxI7tf+jLdQ6qujKkeRRcfSfH4lGDGkbf8cZ22znK37zfrTizuRmsF9Y21n1eS2DBsySSq6+hpGfBWbL80n2l9anri6orcvfKt2TltafI4ounSmrJiwW3frZOSy6e1reO3aveLqakLa1P/lsWX7CfNN58XlFfTMKATmJWazle/9xLSxS6/KS8CwATdLl+rCWXx8FcEsBy/dnRHfYfSubuWpDO13VZWcD7dJfdNZbMHZLLJTpdE63NbdbW7XX5/qBlICcc1wewHFdFfPvZBYEjxM0FrvWxuw+zQ24G229/EVLdi7Qc591VjpqvSLBjq/+q5fiQ1s2GeS0PuI4/a9CL1dNKdHlf0PIl/XNrLT+TzAXL2JyRS+axZ8do2VbX45daAv89SjTOTka2W0Bal6x1VVLSlWNk0KSjpHL7KVI+Zhcpq9tSpKS0IE5CettWS2rZq9L5xoK+O8Adrz5UPBcYEiV927R650OlYuu9JTlqOympHloY69bbI92N70rXe89Kx6IH+y4c9ayJ9qMjS0rTMu5XrQnibvTU19dPk8xV2E+I2wuljVpsMrTL9UTvbR/W4zDvBGb3PD9quXfie4mrWdF12cfpy6mSmQxsjE8fayHeuq/9StfjviLbp0foy8lavqhlfAiLYHeUfm37t7Z9S5bLbt+TdhHmB1pq8lyO17ScG5dHjum624/0/3jh2y4IJgOszo4Pu6tr3aj/GZWwqW1Q7wVAm+xy24Cre9m7GHNZlIfveMeEBe8faRnr08fahJxn6XrPCXPdNCeN1JdTtHzOx+1tPSYesN9WDXtxnTC1fxvZ94A9SuwzWo704XsxCE9psX3p79rmzu/4RTpw9w/d3Z0fPMdMJCslUVYR490zTZfiDQW/qsG2heO7Zbs7JZ3qiF+7E7jjcLJroe9YLZ/2IbRu7ETAJiayMZs3BXGSp+thAWtvydzt3ExLnZYqLbVa+l9NbfGWZ5VX7C6P3Ql4PMzxtbr8dtK1k5bttYzWMswr9kM1ZJ0vMFsHuyjQ7K2D3SF8wzuRfqbYH6PmnahP1vJ5ycxfsE2A1S2WTJdc6wr5cL4BTpe9ylv2HbVs4ZXB3n/uvy93eKXH2/42R4NNQjZfl+HVGG+7am/dx3tluLf+tf3awdpofSdr7d6xbXcYmrxw3eq1zWLvQsTCqB8f2ga2zSdose/mLb3vgbXrX+n9syEbOKlZ3a8t2r12WOmtv+0fz+r6L4nZPlGmL4dK5u7h/jkEVOvCPU8yvUjuHmCPE5fBcit92VXLdt7xPsz7/Spbz++X7c8p79W++1f0/+7X0NchBUjbqNzb9rYfTPHOVZIhLMpSb1+yi9m3WXf4MNsl8oF7Y6EbgI9fBhq4xxO443RiY0H1QMlMSGV3XHbRUp3DR9lJns38+pj343R/WOMkAd2vrYvijH779K7eiWzWpw6SuYttM+g/7O3bz0S0Sy5QqMfzEC+cWlC1O8WDvIsPa4/DFi8Y2Rwfr+rx2UyrFVwAt/OSSZKZx8PKBG+fGCP+3F3r8L7rrUeEjcW1pyo8qQH7zUidY8chcBO6AQdfBiUauC8jcMf85GZzydxpstcRXgC3Oy1rvzjtZMbuWNuVdruT9Jqe4Cyl5RDhfdq+k0Z5J2e2X4/29mm7o7S222L/HgS2b9uJ1hs5zjUAAAg+iFd43+f2vW4XY4Z63+3l3t/9WW8YuxFgF2jWeMV6gryvwXpFHNY3NoG7L3T3aktr6O7pInQDBG4AAAAg2mKVXBO6tDXDUlJa3suWAwAAAAAQuAndAAAAAAACN6EbAAAAAIDiDNwfCN1JQjcAAAAAgMDtf+geTugGAAAAABC4Cd0AAAAAAAI3oRsAAAAAgCIO3P1Dd0lZmq0KAAAAACBwE7oBAAAAAATuOKxQaZrQDQAAAAAgcBO6AQAAAAAE7hiG7kQpoRsAAAAAQOD2PXTXEroBAAAAAATuAFawjNANAAAAACBwE7oBAAAAAARuQjdQQDg0AAAAAAJ3PqG7byK1EpIF8KG8nU7QCAAAAACBO3elFrpHELoBAAAAAARuQjcAAAAAgMBN6AYAAAAAoIgD99rQPWhYN6EbAAAAAEDg9ltZeS+hGwAAAABA4CZ0AwAAAAAI3IRuAAAAAACBG32hu65bJEHoBgAAAAAQuP0N3RW9UjOM0A0AAAAAIHATugEAAAAABG5CNwAAAACAwE3o9sZ00xYAAAAAAAK3r5KVFrpThG4AAAAAAIGb0A0AAAAAIHATugEAAAAABG5CN6EbAAAAAEDgDih0Vw8ldAMAAAAACNy+K68idAMAAAAANh24l9MMhG5A9+VmGgEAAADwN3A/STPkEbqHpGgIFEbeLkm/RisAAAAA/gbuO2iGPEJ3tYXubhoC8f8yKEnfSysAAAAA/gbuq7V00BR5hO5BPYRuxFsinUqUyGU0BAAAAOBj4K6blbIx3L+iKQjdKOIvglL551Y/b3uLlgAAAAB8PM/2Xs/X8jLNkX/oriJ0I2YSJeklJaXp79ASAAAAQACBu25WqlVfDteygibJT4WG7srBhG7EJW1Lc2kyffhWP29rpDEAAACAAAK3F7oX6ct+Wl6hWfJTWUPoRgyydkl6cVl573QN2w20BgAAABBg4O4Xuuu1XCJMpEboRoEm7XSqpCz9t7KK9I6EbQAAACDAU+8N/YfG2cnR+vJFLQdr2U3LSJorex0tpdLRVEZDIOwjvbmkJL1ISuRufb1cg/a7NAoAAAAQrP8vwAAE8qe3CArSsgAAAABJRU5ErkJggg==;" parent="1" vertex="1">
          <mxGeometry x="1326" y="109" width="262" height="68" as="geometry" />
        </mxCell>
        <mxCell id="978" value="" style="shape=image;verticalLabelPosition=bottom;labelBackgroundColor=#ffffff;verticalAlign=top;aspect=fixed;imageAspect=0;image=data:image/svg+xml,PHN2ZyB4bWxucz0iaHR0cDovL3d3dy53My5vcmcvMjAwMC9zdmciIHZpZXdCb3g9IjAgMCAyMDAgMjAwIj48ZGVmcz48c3R5bGU+LmNscy0xLC5jbHMtM3tmaWxsOiM0NDQ7fS5jbHMtMntmaWxsOiM3Nzc7fS5jbHMtM3tzdHJva2U6I2FhYTtzdHJva2UtbGluZWpvaW46cm91bmQ7c3Ryb2tlLXdpZHRoOjIuMjM0cHg7fS5jbHMtNHtmaWxsOiMzMzM7fS5jbHMtNXtmaWxsOiNmMDg3MDU7fTwvc3R5bGU+PC9kZWZzPjx0aXRsZT5aZWljaGVuZmzDg8KkY2hlIDMgS29waWUgMTE8L3RpdGxlPjxnIGlkPSJFYmVuZV8yIiBkYXRhLW5hbWU9IkViZW5lIDIiPjxwYXRoIGNsYXNzPSJjbHMtMSIgZD0iTTEzMC43MjQsOTEuNmE2LjUsNi41LDAsMCwwLTQuNjA5LTEuOTA4SDg1Ljc0M2E1LjI2OSw1LjI2OSwwLDAsMC01LjI2OCw1LjI2OVYxMTkuOWE1LjI2OCw1LjI2OCwwLDAsMCw1LjI2OCw1LjI2OGgxLjM5MXY3LjE2YS41MjYuNTI2LDAsMCwwLC45LjM3Mmw3LjUzMS03LjUzMmgzMi4zMTJhNS4yNjgsNS4yNjgsMCwwLDAsNS4yNjgtNS4yNjhsLS41MS0yMy42ODlBNi41LDYuNSwwLDAsMCwxMzAuNzI0LDkxLjZaIi8+PHBhdGggY2xhc3M9ImNscy0yIiBkPSJNOTkuODU5LDc4LjUxNmE2LjUsNi41LDAsMCwwLTQuNjA5LTEuOTA4SDU0Ljg3OGE1LjI2OSw1LjI2OSwwLDAsMC01LjI2OCw1LjI2OXYyNC45MzlhNS4yNjgsNS4yNjgsMCwwLDAsNS4yNjgsNS4yNjhoMS4zOTF2Ny4xNmEuNTI2LjUyNiwwLDAsMCwuOS4zNzJsNy41MzEtNy41MzJIOTcuMDExYTUuMjY4LDUuMjY4LDAsMCwwLDUuMjY4LTUuMjY4bC0uNTEtMjMuNjg5QTYuNSw2LjUsMCwwLDAsOTkuODU5LDc4LjUxNloiLz48cGF0aCBjbGFzcz0iY2xzLTMiIGQ9Ik05Ny42ODIsNjcuMTUxYTQuNTE4LDQuNTE4LDAsMCwwLTQuNTE5LDQuNTE5djI4LjUyNGE0LjUxOCw0LjUxOCwwLDAsMCw0LjUxOSw0LjUyaDM3LjU4Mmw3LjUxMSw3LjUxMnYtNy41MTJoMy4xYTQuNTIxLDQuNTIxLDAsMCwwLDQuNTE5LTQuNTJWNzEuNjdhNC41Miw0LjUyLDAsMCwwLTQuNTE5LTQuNTE5WiIvPjxwYXRoIGNsYXNzPSJjbHMtNCIgZD0iTTg1LjU5MiwxMDMuMzQySDgxLjg3NWEuMTc3LjE3NywwLDAsMS0uMTY1LS4xMTNMODAuMjc2LDk5LjVINzMuNzU5TDcyLjQsMTAzLjIyNWEuMTc2LjE3NiwwLDAsMS0uMTY3LjExN0g2OC42MTNhLjE3Ny4xNzcsMCwwLDEtLjE2NS0uMjQxTDc1LjAzOSw4Ni4xOGEuMTc4LjE3OCwwLDAsMSwuMTY1LS4xMTNoMy42MTNhLjE3Ny4xNzcsMCwwLDEsLjE2NC4xMTFMODUuNzU2LDEwMy4xYS4xNzcuMTc3LDAsMCwxLS4xNjUuMjQzTTc0LjkzNyw5Ni4yOTRoNC4xMDlsLTIuMDc1LTUuNTg4WiIvPjxwYXRoIGNsYXNzPSJjbHMtNSIgZD0iTTExMi44MjksOTUuOTI2YS4zNTQuMzU0LDAsMCwxLS4zMTgtLjJsLTEuMTg3LTIuNDM3YS4zNTkuMzU5LDAsMCwxLS4wMDYtLjMuMzU1LjM1NSwwLDAsMSwuMjI2LS4yLDI3LjQzNiwyNy40MzYsMCwwLDAsNy40MTMtMy4yLDE5LjM0OCwxOS4zNDgsMCwwLDEtMi44MzgtMy42MzksMTcuMDExLDE3LjAxMSwwLDAsMS0xLjY1LTMuNDU4aC0yLjM1NGEuMzU1LjM1NSwwLDAsMS0uMzU1LS4zNTV2LTIuNWEuMzU0LjM1NCwwLDAsMSwuMzU1LS4zNTVoNy43NThWNzYuNTYzYS4zNTQuMzU0LDAsMCwxLC4zNTUtLjM1NWgzLjAxNmEuMzU0LjM1NCwwLDAsMSwuMzU1LjM1NXYyLjcyNGg3Ljg4M2EuMzU0LjM1NCwwLDAsMSwuMzU1LjM1NXYyLjVhLjM1NS4zNTUsMCwwLDEtLjM1NS4zNTVoLTIuNzYzYTE4LjEzLDE4LjEzLDAsMCwxLTQuMjA3LDYuOTIyQTI2LjIwOCwyNi4yMDgsMCwwLDAsMTMyLDkyLjQzMmEuMzU1LjM1NSwwLDAsMSwuMjE4LjUyN2wtMS42MjgsMi43MTFhLjM1OS4zNTksMCwwLDEtLjQuMTU4QTI4LjQ4MiwyOC40ODIsMCwwLDEsMTIxLjcsOTEuOWEzMC41MywzMC41MywwLDAsMS04Ljc2Nyw0LjAxMi4zNDUuMzQ1LDAsMCwxLS4xLjAxNm01LjUtMTMuNDI5YTE0Ljk2OSwxNC45NjksMCwwLDAsMy4zODYsNC43NywxNC43NzYsMTQuNzc2LDAsMCwwLDMuMTE1LTQuNzdaIi8+PC9nPjwvc3ZnPg==;" parent="1" vertex="1">
          <mxGeometry x="1880" y="1708" width="277" height="277" as="geometry" />
        </mxCell>
      </root>
    </mxGraphModel>
  </diagram>
</mxfile>
